M48
; DRILL file {KiCad (5.1.9)-1} date 03/31/23 17:31:45
; FORMAT={-:-/ absolute / metric / decimal}
; #@! TF.CreationDate,2023-03-31T17:31:45-07:00
; #@! TF.GenerationSoftware,Kicad,Pcbnew,(5.1.9)-1
; #@! TF.FileFunction,Plated,1,2,PTH
FMAT,2
METRIC
T1C0.400
T2C0.508
T3C0.750
T4C0.762
T5C0.800
T6C0.900
T7C1.000
T8C1.800
%
G90
G05
T1
X39.525Y-89.69
X52.86Y-70.64
X70.64Y-73.18
X75.72Y-70.64
X98.58Y-70.64
X111.915Y-71.91
X111.915Y-76.355
X113.82Y-71.91
X113.82Y-76.355
X115.725Y-71.91
X115.725Y-76.355
X121.44Y-70.64
X162.08Y-47.78
X167.16Y-59.845
T3
X60.48Y-107.375
X60.48Y-109.375
X148.9Y-73.66
X148.9Y-74.93
X148.9Y-76.2
X153.98Y-73.66
X153.98Y-74.93
X153.98Y-76.2
X159.695Y-73.66
X159.695Y-74.93
X159.695Y-76.2
X165.41Y-73.66
X165.41Y-74.93
X165.41Y-76.2
X171.125Y-73.66
X171.125Y-74.93
X171.125Y-76.2
X176.205Y-73.66
X176.205Y-74.93
X176.205Y-76.2
T4
X59.21Y-83.975
X59.21Y-89.055
X64.11Y-38.36
X64.11Y-40.9
X66.65Y-38.36
X66.65Y-40.9
X69.19Y-38.36
X69.19Y-40.9
X69.37Y-83.975
X69.37Y-89.055
X71.73Y-38.36
X71.73Y-40.9
X74.27Y-38.36
X74.27Y-40.9
X76.355Y-83.975
X76.355Y-89.055
X76.81Y-38.36
X76.81Y-40.9
X79.35Y-38.36
X79.35Y-40.9
X81.89Y-38.36
X81.89Y-40.9
X86.515Y-83.975
X86.515Y-89.055
X96.11Y-38.36
X96.11Y-40.9
X98.65Y-38.36
X98.65Y-40.9
X101.19Y-38.36
X101.19Y-40.9
X103.73Y-38.36
X103.73Y-40.9
X106.27Y-38.36
X106.27Y-40.9
X108.81Y-38.36
X108.81Y-40.9
X111.35Y-38.36
X111.35Y-40.9
X113.89Y-38.36
X113.89Y-40.9
X128.11Y-38.36
X128.11Y-40.9
X130.65Y-38.36
X130.65Y-40.9
X133.19Y-38.36
X133.19Y-40.9
X135.73Y-38.36
X135.73Y-40.9
X138.27Y-38.36
X138.27Y-40.9
X140.81Y-38.36
X140.81Y-40.9
X143.35Y-38.36
X143.35Y-40.9
X145.89Y-38.36
X145.89Y-40.9
T5
X32.54Y-45.875
X32.54Y-56.035
X34.33Y-105.085
X34.33Y-108.105
X35.08Y-59.845
X35.08Y-67.465
X35.715Y-45.875
X35.715Y-56.035
X36.83Y-105.085
X36.83Y-108.105
X37.62Y-59.845
X37.62Y-67.465
X38.89Y-45.875
X38.89Y-56.035
X39.525Y-119.535
X40.005Y-105.085
X40.005Y-107.625
X40.005Y-110.165
X40.005Y-112.705
X40.005Y-115.88
X40.16Y-59.845
X40.16Y-67.465
X42.065Y-45.875
X42.065Y-56.035
X42.505Y-115.88
X42.7Y-59.845
X42.7Y-67.465
X45.24Y-45.875
X45.24Y-56.035
X45.24Y-59.845
X45.24Y-67.465
X47.625Y-105.085
X47.625Y-107.625
X47.625Y-110.165
X47.625Y-112.705
X47.78Y-59.845
X47.78Y-67.465
X48.415Y-45.875
X48.415Y-56.035
X49.685Y-119.535
X50.32Y-59.845
X50.32Y-67.465
X51.59Y-45.875
X51.59Y-56.035
X51.59Y-110.05
X51.59Y-112.55
X52.86Y-59.845
X52.86Y-67.465
X53.495Y-119.535
X54.765Y-45.875
X54.765Y-56.035
X57.94Y-45.875
X57.94Y-56.035
X57.94Y-59.845
X57.94Y-67.465
X59.21Y-96.675
X60.48Y-59.845
X60.48Y-67.465
X61.115Y-45.875
X61.115Y-56.035
X63.02Y-59.845
X63.02Y-67.465
X63.655Y-119.535
X64.29Y-45.875
X64.29Y-56.035
X65.56Y-59.845
X65.56Y-67.465
X67.465Y-45.875
X67.465Y-56.035
X68.1Y-59.845
X68.1Y-67.465
X69.37Y-96.675
X70.64Y-45.875
X70.64Y-56.035
X70.64Y-59.845
X70.64Y-67.465
X73.18Y-59.845
X73.18Y-67.465
X73.815Y-45.875
X73.815Y-56.035
X75.72Y-59.845
X75.72Y-67.465
X76.355Y-96.675
X76.99Y-45.875
X76.99Y-56.035
X80.165Y-45.875
X80.165Y-56.035
X80.8Y-59.845
X80.8Y-67.465
X83.34Y-45.875
X83.34Y-56.035
X83.34Y-59.845
X83.34Y-67.465
X85.88Y-59.845
X85.88Y-67.465
X86.515Y-45.875
X86.515Y-56.035
X86.515Y-96.675
X88.42Y-59.845
X88.42Y-67.465
X89.69Y-45.875
X89.69Y-56.035
X90.96Y-59.845
X90.96Y-67.465
X92.865Y-45.875
X92.865Y-56.035
X93.5Y-59.845
X93.5Y-67.465
X96.04Y-45.875
X96.04Y-56.035
X96.04Y-59.845
X96.04Y-67.465
X98.58Y-59.845
X98.58Y-67.465
X99.215Y-45.875
X99.215Y-56.035
X102.39Y-45.875
X102.39Y-56.035
X103.66Y-59.845
X103.66Y-67.465
X105.565Y-45.875
X105.565Y-56.035
X106.2Y-59.845
X106.2Y-67.465
X108.74Y-45.875
X108.74Y-56.035
X108.74Y-59.845
X108.74Y-67.465
X111.28Y-59.845
X111.28Y-67.465
X111.915Y-45.875
X111.915Y-56.035
X113.82Y-59.845
X113.82Y-67.465
X115.09Y-45.875
X115.09Y-56.035
X116.36Y-59.845
X116.36Y-67.465
X118.265Y-45.875
X118.265Y-56.035
X118.9Y-59.845
X118.9Y-67.465
X121.44Y-45.875
X121.44Y-56.035
X121.44Y-59.845
X121.44Y-67.465
X124.615Y-45.875
X124.615Y-56.035
X127.155Y-59.845
X127.155Y-67.465
X127.79Y-45.875
X127.79Y-56.035
X129.695Y-59.845
X129.695Y-67.465
X130.965Y-45.875
X130.965Y-56.035
X132.235Y-59.845
X132.235Y-67.465
X134.14Y-45.875
X134.14Y-56.035
X134.775Y-59.845
X134.775Y-67.465
X137.315Y-45.875
X137.315Y-56.035
X137.315Y-59.845
X137.315Y-67.465
X139.855Y-59.845
X139.855Y-67.465
X140.49Y-45.875
X140.49Y-56.035
X142.395Y-59.845
X142.395Y-67.465
X143.665Y-45.875
X143.665Y-56.035
X144.935Y-59.845
X144.935Y-67.465
X149.535Y-78.74
X149.535Y-88.9
X154.615Y-78.74
X154.615Y-88.9
X160.33Y-78.74
X160.33Y-88.9
X166.045Y-78.74
X166.045Y-88.9
X171.76Y-78.74
X171.76Y-88.9
X176.84Y-78.74
X176.84Y-88.9
T7
X34.995Y-77.5
X34.995Y-80.0
X34.995Y-82.5
X37.495Y-77.5
X37.495Y-80.0
X37.495Y-82.5
X42.495Y-77.5
X42.495Y-80.0
X42.495Y-82.5
X44.995Y-77.5
X44.995Y-80.0
X44.995Y-82.5
X114.455Y-100.485
X114.455Y-115.725
X116.995Y-100.485
X116.995Y-115.725
X119.535Y-100.485
X119.535Y-115.725
X122.075Y-100.485
X122.075Y-115.725
X124.615Y-100.485
X124.615Y-115.725
X127.155Y-100.485
X127.155Y-115.725
X129.695Y-100.485
X129.695Y-115.725
X132.235Y-100.485
X132.235Y-115.725
X134.775Y-100.485
X134.775Y-115.725
X137.315Y-100.485
X137.315Y-115.725
X139.855Y-100.485
X139.855Y-115.725
X142.395Y-100.485
X142.395Y-115.725
X144.935Y-100.485
X144.935Y-115.725
X147.475Y-100.485
X147.475Y-115.725
X150.015Y-100.485
X150.015Y-115.725
T8
X158.27Y-108.74
X162.08Y-108.74
X165.89Y-108.74
T2
X170.161Y-33.255G85X170.669Y-33.255
G05
X170.161Y-35.755G85X170.669Y-35.755
G05
X170.161Y-40.755G85X170.669Y-40.755
G05
X170.161Y-43.255G85X170.669Y-43.255
G05
X170.161Y-47.86G85X170.669Y-47.86
G05
X170.161Y-50.36G85X170.669Y-50.36
G05
X170.161Y-55.36G85X170.669Y-55.36
G05
X170.161Y-57.86G85X170.669Y-57.86
G05
X175.415Y-38.001G85X175.415Y-38.509
G05
X175.415Y-52.606G85X175.415Y-53.114
G05
T6
X178.59Y-106.7G85X178.59Y-105.7
G05
X178.59Y-111.78G85X178.59Y-110.78
G05
T7
X167.795Y-121.805G85X167.795Y-119.805
G05
X171.795Y-116.105G85X169.795Y-116.105
G05
X173.795Y-121.805G85X173.795Y-119.805
G05
T0
M30
