G04 #@! TF.GenerationSoftware,KiCad,Pcbnew,(5.1.9)-1*
G04 #@! TF.CreationDate,2023-03-31T17:31:40-07:00*
G04 #@! TF.ProjectId,ECE5 v2,45434535-2076-4322-9e6b-696361645f70,rev?*
G04 #@! TF.SameCoordinates,Original*
G04 #@! TF.FileFunction,Legend,Top*
G04 #@! TF.FilePolarity,Positive*
%FSLAX46Y46*%
G04 Gerber Fmt 4.6, Leading zero omitted, Abs format (unit mm)*
G04 Created by KiCad (PCBNEW (5.1.9)-1) date 2023-03-31 17:31:40*
%MOMM*%
%LPD*%
G01*
G04 APERTURE LIST*
%ADD10C,0.150000*%
%ADD11C,0.300000*%
%ADD12C,0.120000*%
%ADD13C,0.360000*%
%ADD14R,3.500000X3.500000*%
%ADD15O,1.600000X1.600000*%
%ADD16R,1.600000X1.600000*%
%ADD17C,1.600000*%
%ADD18C,1.524000*%
%ADD19R,1.524000X1.524000*%
%ADD20C,0.800000*%
%ADD21O,1.778000X1.270000*%
%ADD22O,1.270000X1.778000*%
%ADD23O,1.750000X1.200000*%
%ADD24R,1.500000X1.050000*%
%ADD25O,1.500000X1.050000*%
%ADD26C,1.762000*%
%ADD27C,3.070000*%
%ADD28O,1.662000X2.662000*%
G04 APERTURE END LIST*
D10*
X34208809Y-126789761D02*
X34208809Y-124789761D01*
X34208809Y-125742142D02*
X35351666Y-125742142D01*
X35351666Y-126789761D02*
X35351666Y-124789761D01*
X37161190Y-125456428D02*
X37161190Y-126789761D01*
X36304047Y-125456428D02*
X36304047Y-126504047D01*
X36399285Y-126694523D01*
X36589761Y-126789761D01*
X36875476Y-126789761D01*
X37065952Y-126694523D01*
X37161190Y-126599285D01*
X38113571Y-125456428D02*
X38113571Y-126789761D01*
X38113571Y-125646904D02*
X38208809Y-125551666D01*
X38399285Y-125456428D01*
X38685000Y-125456428D01*
X38875476Y-125551666D01*
X38970714Y-125742142D01*
X38970714Y-126789761D01*
X39637380Y-125456428D02*
X40399285Y-125456428D01*
X39923095Y-124789761D02*
X39923095Y-126504047D01*
X40018333Y-126694523D01*
X40208809Y-126789761D01*
X40399285Y-126789761D01*
X41827857Y-126694523D02*
X41637380Y-126789761D01*
X41256428Y-126789761D01*
X41065952Y-126694523D01*
X40970714Y-126504047D01*
X40970714Y-125742142D01*
X41065952Y-125551666D01*
X41256428Y-125456428D01*
X41637380Y-125456428D01*
X41827857Y-125551666D01*
X41923095Y-125742142D01*
X41923095Y-125932619D01*
X40970714Y-126123095D01*
X42780238Y-126789761D02*
X42780238Y-125456428D01*
X42780238Y-125837380D02*
X42875476Y-125646904D01*
X42970714Y-125551666D01*
X43161190Y-125456428D01*
X43351666Y-125456428D01*
X46494523Y-126789761D02*
X45542142Y-126789761D01*
X45542142Y-124789761D01*
X48018333Y-126789761D02*
X48018333Y-125742142D01*
X47923095Y-125551666D01*
X47732619Y-125456428D01*
X47351666Y-125456428D01*
X47161190Y-125551666D01*
X48018333Y-126694523D02*
X47827857Y-126789761D01*
X47351666Y-126789761D01*
X47161190Y-126694523D01*
X47065952Y-126504047D01*
X47065952Y-126313571D01*
X47161190Y-126123095D01*
X47351666Y-126027857D01*
X47827857Y-126027857D01*
X48018333Y-125932619D01*
X48970714Y-126789761D02*
X48970714Y-125456428D01*
X48970714Y-125837380D02*
X49065952Y-125646904D01*
X49161190Y-125551666D01*
X49351666Y-125456428D01*
X49542142Y-125456428D01*
X50113571Y-126694523D02*
X50304047Y-126789761D01*
X50685000Y-126789761D01*
X50875476Y-126694523D01*
X50970714Y-126504047D01*
X50970714Y-126408809D01*
X50875476Y-126218333D01*
X50685000Y-126123095D01*
X50399285Y-126123095D01*
X50208809Y-126027857D01*
X50113571Y-125837380D01*
X50113571Y-125742142D01*
X50208809Y-125551666D01*
X50399285Y-125456428D01*
X50685000Y-125456428D01*
X50875476Y-125551666D01*
X52113571Y-126789761D02*
X51923095Y-126694523D01*
X51827857Y-126599285D01*
X51732619Y-126408809D01*
X51732619Y-125837380D01*
X51827857Y-125646904D01*
X51923095Y-125551666D01*
X52113571Y-125456428D01*
X52399285Y-125456428D01*
X52589761Y-125551666D01*
X52685000Y-125646904D01*
X52780238Y-125837380D01*
X52780238Y-126408809D01*
X52685000Y-126599285D01*
X52589761Y-126694523D01*
X52399285Y-126789761D01*
X52113571Y-126789761D01*
X53637380Y-125456428D02*
X53637380Y-126789761D01*
X53637380Y-125646904D02*
X53732619Y-125551666D01*
X53923095Y-125456428D01*
X54208809Y-125456428D01*
X54399285Y-125551666D01*
X54494523Y-125742142D01*
X54494523Y-126789761D01*
X58399285Y-124980238D02*
X58494523Y-124885000D01*
X58685000Y-124789761D01*
X59161190Y-124789761D01*
X59351666Y-124885000D01*
X59446904Y-124980238D01*
X59542142Y-125170714D01*
X59542142Y-125361190D01*
X59446904Y-125646904D01*
X58304047Y-126789761D01*
X59542142Y-126789761D01*
X60780238Y-124789761D02*
X60970714Y-124789761D01*
X61161190Y-124885000D01*
X61256428Y-124980238D01*
X61351666Y-125170714D01*
X61446904Y-125551666D01*
X61446904Y-126027857D01*
X61351666Y-126408809D01*
X61256428Y-126599285D01*
X61161190Y-126694523D01*
X60970714Y-126789761D01*
X60780238Y-126789761D01*
X60589761Y-126694523D01*
X60494523Y-126599285D01*
X60399285Y-126408809D01*
X60304047Y-126027857D01*
X60304047Y-125551666D01*
X60399285Y-125170714D01*
X60494523Y-124980238D01*
X60589761Y-124885000D01*
X60780238Y-124789761D01*
X62208809Y-124980238D02*
X62304047Y-124885000D01*
X62494523Y-124789761D01*
X62970714Y-124789761D01*
X63161190Y-124885000D01*
X63256428Y-124980238D01*
X63351666Y-125170714D01*
X63351666Y-125361190D01*
X63256428Y-125646904D01*
X62113571Y-126789761D01*
X63351666Y-126789761D01*
X64018333Y-124789761D02*
X65256428Y-124789761D01*
X64589761Y-125551666D01*
X64875476Y-125551666D01*
X65065952Y-125646904D01*
X65161190Y-125742142D01*
X65256428Y-125932619D01*
X65256428Y-126408809D01*
X65161190Y-126599285D01*
X65065952Y-126694523D01*
X64875476Y-126789761D01*
X64304047Y-126789761D01*
X64113571Y-126694523D01*
X64018333Y-126599285D01*
D11*
X129751428Y-32988571D02*
X129751428Y-34060000D01*
X129680000Y-34274285D01*
X129537142Y-34417142D01*
X129322857Y-34488571D01*
X129180000Y-34488571D01*
X131180000Y-34488571D02*
X130465714Y-34488571D01*
X130465714Y-32988571D01*
X132537142Y-34345714D02*
X132465714Y-34417142D01*
X132251428Y-34488571D01*
X132108571Y-34488571D01*
X131894285Y-34417142D01*
X131751428Y-34274285D01*
X131680000Y-34131428D01*
X131608571Y-33845714D01*
X131608571Y-33631428D01*
X131680000Y-33345714D01*
X131751428Y-33202857D01*
X131894285Y-33060000D01*
X132108571Y-32988571D01*
X132251428Y-32988571D01*
X132465714Y-33060000D01*
X132537142Y-33131428D01*
X133608571Y-32988571D02*
X133608571Y-34060000D01*
X133537142Y-34274285D01*
X133394285Y-34417142D01*
X133180000Y-34488571D01*
X133037142Y-34488571D01*
X135037142Y-34488571D02*
X134322857Y-34488571D01*
X134322857Y-32988571D01*
X136394285Y-34345714D02*
X136322857Y-34417142D01*
X136108571Y-34488571D01*
X135965714Y-34488571D01*
X135751428Y-34417142D01*
X135608571Y-34274285D01*
X135537142Y-34131428D01*
X135465714Y-33845714D01*
X135465714Y-33631428D01*
X135537142Y-33345714D01*
X135608571Y-33202857D01*
X135751428Y-33060000D01*
X135965714Y-32988571D01*
X136108571Y-32988571D01*
X136322857Y-33060000D01*
X136394285Y-33131428D01*
X137465714Y-32988571D02*
X137465714Y-34060000D01*
X137394285Y-34274285D01*
X137251428Y-34417142D01*
X137037142Y-34488571D01*
X136894285Y-34488571D01*
X138894285Y-34488571D02*
X138180000Y-34488571D01*
X138180000Y-32988571D01*
X140251428Y-34345714D02*
X140180000Y-34417142D01*
X139965714Y-34488571D01*
X139822857Y-34488571D01*
X139608571Y-34417142D01*
X139465714Y-34274285D01*
X139394285Y-34131428D01*
X139322857Y-33845714D01*
X139322857Y-33631428D01*
X139394285Y-33345714D01*
X139465714Y-33202857D01*
X139608571Y-33060000D01*
X139822857Y-32988571D01*
X139965714Y-32988571D01*
X140180000Y-33060000D01*
X140251428Y-33131428D01*
X141322857Y-32988571D02*
X141322857Y-34060000D01*
X141251428Y-34274285D01*
X141108571Y-34417142D01*
X140894285Y-34488571D01*
X140751428Y-34488571D01*
X142751428Y-34488571D02*
X142037142Y-34488571D01*
X142037142Y-32988571D01*
X144108571Y-34345714D02*
X144037142Y-34417142D01*
X143822857Y-34488571D01*
X143680000Y-34488571D01*
X143465714Y-34417142D01*
X143322857Y-34274285D01*
X143251428Y-34131428D01*
X143180000Y-33845714D01*
X143180000Y-33631428D01*
X143251428Y-33345714D01*
X143322857Y-33202857D01*
X143465714Y-33060000D01*
X143680000Y-32988571D01*
X143822857Y-32988571D01*
X144037142Y-33060000D01*
X144108571Y-33131428D01*
D12*
X166695000Y-124555000D02*
X166695000Y-125605000D01*
X167745000Y-125605000D02*
X166695000Y-125605000D01*
X166895000Y-118905000D02*
X166895000Y-116205000D01*
X166895000Y-116205000D02*
X168795000Y-116205000D01*
X172621000Y-116169500D02*
X178018500Y-116169500D01*
X177955000Y-125440500D02*
X166906000Y-125440500D01*
X166906000Y-125440500D02*
X166906000Y-122773500D01*
X122770000Y-62655000D02*
X122770000Y-61005000D01*
X122770000Y-61005000D02*
X102330000Y-61005000D01*
X102330000Y-61005000D02*
X102330000Y-66305000D01*
X102330000Y-66305000D02*
X122770000Y-66305000D01*
X122770000Y-66305000D02*
X122770000Y-64655000D01*
X122830000Y-58515000D02*
X102270000Y-58515000D01*
X102270000Y-58515000D02*
X102270000Y-68795000D01*
X102270000Y-68795000D02*
X122830000Y-68795000D01*
X122830000Y-68795000D02*
X122830000Y-58515000D01*
X122770000Y-64655000D02*
G75*
G02*
X122770000Y-62655000I0J1000000D01*
G01*
X48645000Y-119535000D02*
X47875000Y-119535000D01*
X40565000Y-119535000D02*
X41335000Y-119535000D01*
X47875000Y-118165000D02*
X41335000Y-118165000D01*
X47875000Y-120905000D02*
X47875000Y-118165000D01*
X41335000Y-120905000D02*
X47875000Y-120905000D01*
X41335000Y-118165000D02*
X41335000Y-120905000D01*
X63782000Y-89055000D02*
X63782000Y-83975000D01*
X64798000Y-89055000D02*
X64798000Y-83975000D01*
X61750000Y-83975000D02*
X62512000Y-83975000D01*
X61750000Y-89055000D02*
X62512000Y-89055000D01*
X60226000Y-89055000D02*
X61750000Y-89055000D01*
X60226000Y-83975000D02*
X61750000Y-83975000D01*
X66830000Y-83975000D02*
X66068000Y-83975000D01*
X66830000Y-89055000D02*
X66068000Y-89055000D01*
X68354000Y-83975000D02*
X66830000Y-83975000D01*
X68354000Y-89055000D02*
X66830000Y-89055000D01*
X62512000Y-89055000D02*
G75*
G03*
X62512000Y-88039000I0J508000D01*
G01*
X62512000Y-88039000D02*
G75*
G03*
X62512000Y-87023000I0J508000D01*
G01*
X62512000Y-86007000D02*
G75*
G03*
X62512000Y-84991000I0J508000D01*
G01*
X62512000Y-83975000D02*
G75*
G02*
X62512000Y-84991000I0J-508000D01*
G01*
X62512000Y-87023000D02*
G75*
G03*
X62512000Y-86007000I0J508000D01*
G01*
X66068000Y-83975000D02*
G75*
G03*
X66068000Y-84991000I0J-508000D01*
G01*
X66068000Y-84991000D02*
G75*
G03*
X66068000Y-86007000I0J-508000D01*
G01*
X66068000Y-86007000D02*
G75*
G03*
X66068000Y-87023000I0J-508000D01*
G01*
X66068000Y-87023000D02*
G75*
G03*
X66068000Y-88039000I0J-508000D01*
G01*
X66068000Y-89055000D02*
G75*
G02*
X66068000Y-88039000I0J508000D01*
G01*
X153955000Y-117125000D02*
X153955000Y-99085000D01*
X110515000Y-117125000D02*
X153955000Y-117125000D01*
X110515000Y-99085000D02*
X110515000Y-117125000D01*
X113185000Y-101755000D02*
X113185000Y-99085000D01*
X148745000Y-101755000D02*
X113185000Y-101755000D01*
X148745000Y-101755000D02*
X148745000Y-99085000D01*
X113185000Y-114455000D02*
X113185000Y-117125000D01*
X151285000Y-114455000D02*
X113185000Y-114455000D01*
X151285000Y-114455000D02*
X151285000Y-117125000D01*
X153955000Y-99085000D02*
X151285000Y-99085000D01*
X148745000Y-99085000D02*
X110515000Y-99085000D01*
X151285000Y-101755000D02*
X151285000Y-99085000D01*
X148745000Y-101755000D02*
X151285000Y-101755000D01*
X32960000Y-106455000D02*
X32960000Y-103715000D01*
X38200000Y-106455000D02*
X38200000Y-103715000D01*
X38200000Y-103715000D02*
X32960000Y-103715000D01*
X38200000Y-106455000D02*
X32960000Y-106455000D01*
X43075000Y-116805000D02*
X43075000Y-117050000D01*
X43075000Y-114710000D02*
X43075000Y-114955000D01*
X39435000Y-116805000D02*
X39435000Y-117050000D01*
X39435000Y-114710000D02*
X39435000Y-114955000D01*
X39435000Y-117050000D02*
X43075000Y-117050000D01*
X39435000Y-114710000D02*
X43075000Y-114710000D01*
X50220000Y-113920000D02*
X50220000Y-108680000D01*
X52960000Y-113920000D02*
X52960000Y-108680000D01*
X50220000Y-113920000D02*
X52960000Y-113920000D01*
X50220000Y-108680000D02*
X52960000Y-108680000D01*
X32960000Y-109475000D02*
X32960000Y-106735000D01*
X38200000Y-109475000D02*
X38200000Y-106735000D01*
X38200000Y-106735000D02*
X32960000Y-106735000D01*
X38200000Y-109475000D02*
X32960000Y-109475000D01*
X177701000Y-36985000D02*
X176685000Y-36985000D01*
X177701000Y-39525000D02*
X177701000Y-36985000D01*
X176685000Y-39525000D02*
X177701000Y-39525000D01*
X176685000Y-42319000D02*
X171859000Y-42319000D01*
X176685000Y-34191000D02*
X176685000Y-42319000D01*
X171859000Y-34191000D02*
X176685000Y-34191000D01*
X171859000Y-42319000D02*
X171859000Y-34191000D01*
X171859000Y-56924000D02*
X171859000Y-48796000D01*
X171859000Y-48796000D02*
X176685000Y-48796000D01*
X176685000Y-48796000D02*
X176685000Y-56924000D01*
X176685000Y-56924000D02*
X171859000Y-56924000D01*
X176685000Y-54130000D02*
X177701000Y-54130000D01*
X177701000Y-54130000D02*
X177701000Y-51590000D01*
X177701000Y-51590000D02*
X176685000Y-51590000D01*
D13*
X85499914Y-37300000D02*
X87499914Y-37300000D01*
X87499914Y-35300000D02*
X87499914Y-37300000D01*
X58499914Y-37300000D02*
X60499914Y-37300000D01*
X58499914Y-35300000D02*
X58499914Y-37300000D01*
X117500000Y-37300000D02*
X119500000Y-37300000D01*
X119500000Y-35300000D02*
X119500000Y-37300000D01*
X90500000Y-37300000D02*
X92500000Y-37300000D01*
X90500000Y-35300000D02*
X90500000Y-37300000D01*
X122500086Y-35300000D02*
X122500086Y-37300000D01*
X122500086Y-37300000D02*
X124500086Y-37300000D01*
X151500086Y-35300000D02*
X151500086Y-37300000D01*
X149500086Y-37300000D02*
X151500086Y-37300000D01*
D12*
X58370000Y-111735000D02*
X59620000Y-111735000D01*
X58370000Y-110485000D02*
X58370000Y-111735000D01*
X62780000Y-108375000D02*
X62280000Y-108375000D01*
X62280000Y-108275000D02*
X62780000Y-108275000D01*
X62280000Y-108475000D02*
X62280000Y-108275000D01*
X62780000Y-108475000D02*
X62280000Y-108475000D01*
X61280000Y-105315000D02*
X61280000Y-105925000D01*
X59980000Y-105315000D02*
X59980000Y-105925000D01*
X61280000Y-111435000D02*
X61280000Y-110825000D01*
X59980000Y-111435000D02*
X59980000Y-110825000D01*
X59280000Y-107875000D02*
X58670000Y-107875000D01*
X59280000Y-105925000D02*
X59280000Y-107875000D01*
X62780000Y-105925000D02*
X59280000Y-105925000D01*
X62780000Y-110825000D02*
X62780000Y-105925000D01*
X59280000Y-110825000D02*
X62780000Y-110825000D01*
X59280000Y-108875000D02*
X59280000Y-110825000D01*
X58670000Y-108875000D02*
X59280000Y-108875000D01*
X58570000Y-109675000D02*
X58570000Y-109975000D01*
X58470000Y-109975000D02*
X58670000Y-109975000D01*
X58470000Y-109675000D02*
X58470000Y-109975000D01*
X58670000Y-109675000D02*
X58470000Y-109675000D01*
X58670000Y-105315000D02*
X58670000Y-111435000D01*
X63390000Y-105315000D02*
X58670000Y-105315000D01*
X63390000Y-111435000D02*
X63390000Y-105315000D01*
X58670000Y-111435000D02*
X63390000Y-111435000D01*
X147050000Y-73130000D02*
X147050000Y-76730000D01*
X147061522Y-76768478D02*
G75*
G03*
X151500000Y-74930000I1838478J1838478D01*
G01*
X147061522Y-73091522D02*
G75*
G02*
X151500000Y-74930000I1838478J-1838478D01*
G01*
X169275000Y-73130000D02*
X169275000Y-76730000D01*
X169286522Y-76768478D02*
G75*
G03*
X173725000Y-74930000I1838478J1838478D01*
G01*
X169286522Y-73091522D02*
G75*
G02*
X173725000Y-74930000I1838478J-1838478D01*
G01*
X174355000Y-73130000D02*
X174355000Y-76730000D01*
X174366522Y-73091522D02*
G75*
G02*
X178805000Y-74930000I1838478J-1838478D01*
G01*
X174366522Y-76768478D02*
G75*
G03*
X178805000Y-74930000I1838478J1838478D01*
G01*
X152130000Y-73130000D02*
X152130000Y-76730000D01*
X152141522Y-73091522D02*
G75*
G02*
X156580000Y-74930000I1838478J-1838478D01*
G01*
X152141522Y-76768478D02*
G75*
G03*
X156580000Y-74930000I1838478J1838478D01*
G01*
X157845000Y-73130000D02*
X157845000Y-76730000D01*
X157856522Y-76768478D02*
G75*
G03*
X162295000Y-74930000I1838478J1838478D01*
G01*
X157856522Y-73091522D02*
G75*
G02*
X162295000Y-74930000I1838478J-1838478D01*
G01*
X163560000Y-73130000D02*
X163560000Y-76730000D01*
X163571522Y-73091522D02*
G75*
G02*
X168010000Y-74930000I1838478J-1838478D01*
G01*
X163571522Y-76768478D02*
G75*
G03*
X168010000Y-74930000I1838478J1838478D01*
G01*
X57940000Y-46915000D02*
X57940000Y-47685000D01*
X57940000Y-54995000D02*
X57940000Y-54225000D01*
X56570000Y-47685000D02*
X56570000Y-54225000D01*
X59310000Y-47685000D02*
X56570000Y-47685000D01*
X59310000Y-54225000D02*
X59310000Y-47685000D01*
X56570000Y-54225000D02*
X59310000Y-54225000D01*
X56135000Y-47685000D02*
X53395000Y-47685000D01*
X53395000Y-47685000D02*
X53395000Y-54225000D01*
X53395000Y-54225000D02*
X56135000Y-54225000D01*
X56135000Y-54225000D02*
X56135000Y-47685000D01*
X54765000Y-46915000D02*
X54765000Y-47685000D01*
X54765000Y-54995000D02*
X54765000Y-54225000D01*
X59745000Y-54225000D02*
X62485000Y-54225000D01*
X62485000Y-54225000D02*
X62485000Y-47685000D01*
X62485000Y-47685000D02*
X59745000Y-47685000D01*
X59745000Y-47685000D02*
X59745000Y-54225000D01*
X61115000Y-54995000D02*
X61115000Y-54225000D01*
X61115000Y-46915000D02*
X61115000Y-47685000D01*
X52960000Y-47685000D02*
X50220000Y-47685000D01*
X50220000Y-47685000D02*
X50220000Y-54225000D01*
X50220000Y-54225000D02*
X52960000Y-54225000D01*
X52960000Y-54225000D02*
X52960000Y-47685000D01*
X51590000Y-46915000D02*
X51590000Y-47685000D01*
X51590000Y-54995000D02*
X51590000Y-54225000D01*
X64290000Y-46915000D02*
X64290000Y-47685000D01*
X64290000Y-54995000D02*
X64290000Y-54225000D01*
X62920000Y-47685000D02*
X62920000Y-54225000D01*
X65660000Y-47685000D02*
X62920000Y-47685000D01*
X65660000Y-54225000D02*
X65660000Y-47685000D01*
X62920000Y-54225000D02*
X65660000Y-54225000D01*
X48415000Y-54995000D02*
X48415000Y-54225000D01*
X48415000Y-46915000D02*
X48415000Y-47685000D01*
X49785000Y-54225000D02*
X49785000Y-47685000D01*
X47045000Y-54225000D02*
X49785000Y-54225000D01*
X47045000Y-47685000D02*
X47045000Y-54225000D01*
X49785000Y-47685000D02*
X47045000Y-47685000D01*
X66095000Y-54225000D02*
X68835000Y-54225000D01*
X68835000Y-54225000D02*
X68835000Y-47685000D01*
X68835000Y-47685000D02*
X66095000Y-47685000D01*
X66095000Y-47685000D02*
X66095000Y-54225000D01*
X67465000Y-54995000D02*
X67465000Y-54225000D01*
X67465000Y-46915000D02*
X67465000Y-47685000D01*
X46610000Y-47685000D02*
X43870000Y-47685000D01*
X43870000Y-47685000D02*
X43870000Y-54225000D01*
X43870000Y-54225000D02*
X46610000Y-54225000D01*
X46610000Y-54225000D02*
X46610000Y-47685000D01*
X45240000Y-46915000D02*
X45240000Y-47685000D01*
X45240000Y-54995000D02*
X45240000Y-54225000D01*
X70640000Y-46915000D02*
X70640000Y-47685000D01*
X70640000Y-54995000D02*
X70640000Y-54225000D01*
X69270000Y-47685000D02*
X69270000Y-54225000D01*
X72010000Y-47685000D02*
X69270000Y-47685000D01*
X72010000Y-54225000D02*
X72010000Y-47685000D01*
X69270000Y-54225000D02*
X72010000Y-54225000D01*
X42065000Y-54995000D02*
X42065000Y-54225000D01*
X42065000Y-46915000D02*
X42065000Y-47685000D01*
X43435000Y-54225000D02*
X43435000Y-47685000D01*
X40695000Y-54225000D02*
X43435000Y-54225000D01*
X40695000Y-47685000D02*
X40695000Y-54225000D01*
X43435000Y-47685000D02*
X40695000Y-47685000D01*
X72445000Y-54225000D02*
X75185000Y-54225000D01*
X75185000Y-54225000D02*
X75185000Y-47685000D01*
X75185000Y-47685000D02*
X72445000Y-47685000D01*
X72445000Y-47685000D02*
X72445000Y-54225000D01*
X73815000Y-54995000D02*
X73815000Y-54225000D01*
X73815000Y-46915000D02*
X73815000Y-47685000D01*
X40260000Y-47685000D02*
X37520000Y-47685000D01*
X37520000Y-47685000D02*
X37520000Y-54225000D01*
X37520000Y-54225000D02*
X40260000Y-54225000D01*
X40260000Y-54225000D02*
X40260000Y-47685000D01*
X38890000Y-46915000D02*
X38890000Y-47685000D01*
X38890000Y-54995000D02*
X38890000Y-54225000D01*
X85475000Y-96675000D02*
X84705000Y-96675000D01*
X77395000Y-96675000D02*
X78165000Y-96675000D01*
X84705000Y-95305000D02*
X78165000Y-95305000D01*
X84705000Y-98045000D02*
X84705000Y-95305000D01*
X78165000Y-98045000D02*
X84705000Y-98045000D01*
X78165000Y-95305000D02*
X78165000Y-98045000D01*
X67560000Y-98045000D02*
X67560000Y-95305000D01*
X67560000Y-95305000D02*
X61020000Y-95305000D01*
X61020000Y-95305000D02*
X61020000Y-98045000D01*
X61020000Y-98045000D02*
X67560000Y-98045000D01*
X68330000Y-96675000D02*
X67560000Y-96675000D01*
X60250000Y-96675000D02*
X61020000Y-96675000D01*
X76990000Y-46915000D02*
X76990000Y-47685000D01*
X76990000Y-54995000D02*
X76990000Y-54225000D01*
X75620000Y-47685000D02*
X75620000Y-54225000D01*
X78360000Y-47685000D02*
X75620000Y-47685000D01*
X78360000Y-54225000D02*
X78360000Y-47685000D01*
X75620000Y-54225000D02*
X78360000Y-54225000D01*
X35715000Y-54995000D02*
X35715000Y-54225000D01*
X35715000Y-46915000D02*
X35715000Y-47685000D01*
X37085000Y-54225000D02*
X37085000Y-47685000D01*
X34345000Y-54225000D02*
X37085000Y-54225000D01*
X34345000Y-47685000D02*
X34345000Y-54225000D01*
X37085000Y-47685000D02*
X34345000Y-47685000D01*
X78795000Y-54225000D02*
X81535000Y-54225000D01*
X81535000Y-54225000D02*
X81535000Y-47685000D01*
X81535000Y-47685000D02*
X78795000Y-47685000D01*
X78795000Y-47685000D02*
X78795000Y-54225000D01*
X80165000Y-54995000D02*
X80165000Y-54225000D01*
X80165000Y-46915000D02*
X80165000Y-47685000D01*
X33910000Y-47685000D02*
X31170000Y-47685000D01*
X31170000Y-47685000D02*
X31170000Y-54225000D01*
X31170000Y-54225000D02*
X33910000Y-54225000D01*
X33910000Y-54225000D02*
X33910000Y-47685000D01*
X32540000Y-46915000D02*
X32540000Y-47685000D01*
X32540000Y-54995000D02*
X32540000Y-54225000D01*
X54535000Y-119535000D02*
X55305000Y-119535000D01*
X62615000Y-119535000D02*
X61845000Y-119535000D01*
X55305000Y-120905000D02*
X61845000Y-120905000D01*
X55305000Y-118165000D02*
X55305000Y-120905000D01*
X61845000Y-118165000D02*
X55305000Y-118165000D01*
X61845000Y-120905000D02*
X61845000Y-118165000D01*
X104195000Y-54225000D02*
X106935000Y-54225000D01*
X106935000Y-54225000D02*
X106935000Y-47685000D01*
X106935000Y-47685000D02*
X104195000Y-47685000D01*
X104195000Y-47685000D02*
X104195000Y-54225000D01*
X105565000Y-54995000D02*
X105565000Y-54225000D01*
X105565000Y-46915000D02*
X105565000Y-47685000D01*
X102390000Y-54995000D02*
X102390000Y-54225000D01*
X102390000Y-46915000D02*
X102390000Y-47685000D01*
X103760000Y-54225000D02*
X103760000Y-47685000D01*
X101020000Y-54225000D02*
X103760000Y-54225000D01*
X101020000Y-47685000D02*
X101020000Y-54225000D01*
X103760000Y-47685000D02*
X101020000Y-47685000D01*
X108740000Y-46915000D02*
X108740000Y-47685000D01*
X108740000Y-54995000D02*
X108740000Y-54225000D01*
X107370000Y-47685000D02*
X107370000Y-54225000D01*
X110110000Y-47685000D02*
X107370000Y-47685000D01*
X110110000Y-54225000D02*
X110110000Y-47685000D01*
X107370000Y-54225000D02*
X110110000Y-54225000D01*
X99215000Y-54995000D02*
X99215000Y-54225000D01*
X99215000Y-46915000D02*
X99215000Y-47685000D01*
X100585000Y-54225000D02*
X100585000Y-47685000D01*
X97845000Y-54225000D02*
X100585000Y-54225000D01*
X97845000Y-47685000D02*
X97845000Y-54225000D01*
X100585000Y-47685000D02*
X97845000Y-47685000D01*
X111915000Y-46915000D02*
X111915000Y-47685000D01*
X111915000Y-54995000D02*
X111915000Y-54225000D01*
X110545000Y-47685000D02*
X110545000Y-54225000D01*
X113285000Y-47685000D02*
X110545000Y-47685000D01*
X113285000Y-54225000D02*
X113285000Y-47685000D01*
X110545000Y-54225000D02*
X113285000Y-54225000D01*
X96040000Y-54995000D02*
X96040000Y-54225000D01*
X96040000Y-46915000D02*
X96040000Y-47685000D01*
X97410000Y-54225000D02*
X97410000Y-47685000D01*
X94670000Y-54225000D02*
X97410000Y-54225000D01*
X94670000Y-47685000D02*
X94670000Y-54225000D01*
X97410000Y-47685000D02*
X94670000Y-47685000D01*
X113720000Y-54225000D02*
X116460000Y-54225000D01*
X116460000Y-54225000D02*
X116460000Y-47685000D01*
X116460000Y-47685000D02*
X113720000Y-47685000D01*
X113720000Y-47685000D02*
X113720000Y-54225000D01*
X115090000Y-54995000D02*
X115090000Y-54225000D01*
X115090000Y-46915000D02*
X115090000Y-47685000D01*
X94235000Y-47685000D02*
X91495000Y-47685000D01*
X91495000Y-47685000D02*
X91495000Y-54225000D01*
X91495000Y-54225000D02*
X94235000Y-54225000D01*
X94235000Y-54225000D02*
X94235000Y-47685000D01*
X92865000Y-46915000D02*
X92865000Y-47685000D01*
X92865000Y-54995000D02*
X92865000Y-54225000D01*
X116895000Y-54225000D02*
X119635000Y-54225000D01*
X119635000Y-54225000D02*
X119635000Y-47685000D01*
X119635000Y-47685000D02*
X116895000Y-47685000D01*
X116895000Y-47685000D02*
X116895000Y-54225000D01*
X118265000Y-54995000D02*
X118265000Y-54225000D01*
X118265000Y-46915000D02*
X118265000Y-47685000D01*
X91060000Y-47685000D02*
X88320000Y-47685000D01*
X88320000Y-47685000D02*
X88320000Y-54225000D01*
X88320000Y-54225000D02*
X91060000Y-54225000D01*
X91060000Y-54225000D02*
X91060000Y-47685000D01*
X89690000Y-46915000D02*
X89690000Y-47685000D01*
X89690000Y-54995000D02*
X89690000Y-54225000D01*
X121440000Y-46915000D02*
X121440000Y-47685000D01*
X121440000Y-54995000D02*
X121440000Y-54225000D01*
X120070000Y-47685000D02*
X120070000Y-54225000D01*
X122810000Y-47685000D02*
X120070000Y-47685000D01*
X122810000Y-54225000D02*
X122810000Y-47685000D01*
X120070000Y-54225000D02*
X122810000Y-54225000D01*
X87885000Y-47685000D02*
X85145000Y-47685000D01*
X85145000Y-47685000D02*
X85145000Y-54225000D01*
X85145000Y-54225000D02*
X87885000Y-54225000D01*
X87885000Y-54225000D02*
X87885000Y-47685000D01*
X86515000Y-46915000D02*
X86515000Y-47685000D01*
X86515000Y-54995000D02*
X86515000Y-54225000D01*
X123245000Y-54225000D02*
X125985000Y-54225000D01*
X125985000Y-54225000D02*
X125985000Y-47685000D01*
X125985000Y-47685000D02*
X123245000Y-47685000D01*
X123245000Y-47685000D02*
X123245000Y-54225000D01*
X124615000Y-54995000D02*
X124615000Y-54225000D01*
X124615000Y-46915000D02*
X124615000Y-47685000D01*
X83340000Y-54995000D02*
X83340000Y-54225000D01*
X83340000Y-46915000D02*
X83340000Y-47685000D01*
X84710000Y-54225000D02*
X84710000Y-47685000D01*
X81970000Y-54225000D02*
X84710000Y-54225000D01*
X81970000Y-47685000D02*
X81970000Y-54225000D01*
X84710000Y-47685000D02*
X81970000Y-47685000D01*
X129595000Y-54225000D02*
X132335000Y-54225000D01*
X132335000Y-54225000D02*
X132335000Y-47685000D01*
X132335000Y-47685000D02*
X129595000Y-47685000D01*
X129595000Y-47685000D02*
X129595000Y-54225000D01*
X130965000Y-54995000D02*
X130965000Y-54225000D01*
X130965000Y-46915000D02*
X130965000Y-47685000D01*
X129160000Y-47685000D02*
X126420000Y-47685000D01*
X126420000Y-47685000D02*
X126420000Y-54225000D01*
X126420000Y-54225000D02*
X129160000Y-54225000D01*
X129160000Y-54225000D02*
X129160000Y-47685000D01*
X127790000Y-46915000D02*
X127790000Y-47685000D01*
X127790000Y-54995000D02*
X127790000Y-54225000D01*
X134140000Y-46915000D02*
X134140000Y-47685000D01*
X134140000Y-54995000D02*
X134140000Y-54225000D01*
X132770000Y-47685000D02*
X132770000Y-54225000D01*
X135510000Y-47685000D02*
X132770000Y-47685000D01*
X135510000Y-54225000D02*
X135510000Y-47685000D01*
X132770000Y-54225000D02*
X135510000Y-54225000D01*
X137315000Y-54995000D02*
X137315000Y-54225000D01*
X137315000Y-46915000D02*
X137315000Y-47685000D01*
X138685000Y-54225000D02*
X138685000Y-47685000D01*
X135945000Y-54225000D02*
X138685000Y-54225000D01*
X135945000Y-47685000D02*
X135945000Y-54225000D01*
X138685000Y-47685000D02*
X135945000Y-47685000D01*
X139120000Y-54225000D02*
X141860000Y-54225000D01*
X141860000Y-54225000D02*
X141860000Y-47685000D01*
X141860000Y-47685000D02*
X139120000Y-47685000D01*
X139120000Y-47685000D02*
X139120000Y-54225000D01*
X140490000Y-54995000D02*
X140490000Y-54225000D01*
X140490000Y-46915000D02*
X140490000Y-47685000D01*
X145035000Y-47685000D02*
X142295000Y-47685000D01*
X142295000Y-47685000D02*
X142295000Y-54225000D01*
X142295000Y-54225000D02*
X145035000Y-54225000D01*
X145035000Y-54225000D02*
X145035000Y-47685000D01*
X143665000Y-46915000D02*
X143665000Y-47685000D01*
X143665000Y-54995000D02*
X143665000Y-54225000D01*
X149535000Y-87860000D02*
X149535000Y-87090000D01*
X149535000Y-79780000D02*
X149535000Y-80550000D01*
X150905000Y-87090000D02*
X150905000Y-80550000D01*
X148165000Y-87090000D02*
X150905000Y-87090000D01*
X148165000Y-80550000D02*
X148165000Y-87090000D01*
X150905000Y-80550000D02*
X148165000Y-80550000D01*
X173130000Y-80550000D02*
X170390000Y-80550000D01*
X170390000Y-80550000D02*
X170390000Y-87090000D01*
X170390000Y-87090000D02*
X173130000Y-87090000D01*
X173130000Y-87090000D02*
X173130000Y-80550000D01*
X171760000Y-79780000D02*
X171760000Y-80550000D01*
X171760000Y-87860000D02*
X171760000Y-87090000D01*
X176840000Y-87860000D02*
X176840000Y-87090000D01*
X176840000Y-79780000D02*
X176840000Y-80550000D01*
X178210000Y-87090000D02*
X178210000Y-80550000D01*
X175470000Y-87090000D02*
X178210000Y-87090000D01*
X175470000Y-80550000D02*
X175470000Y-87090000D01*
X178210000Y-80550000D02*
X175470000Y-80550000D01*
X154615000Y-87860000D02*
X154615000Y-87090000D01*
X154615000Y-79780000D02*
X154615000Y-80550000D01*
X155985000Y-87090000D02*
X155985000Y-80550000D01*
X153245000Y-87090000D02*
X155985000Y-87090000D01*
X153245000Y-80550000D02*
X153245000Y-87090000D01*
X155985000Y-80550000D02*
X153245000Y-80550000D01*
X161700000Y-80550000D02*
X158960000Y-80550000D01*
X158960000Y-80550000D02*
X158960000Y-87090000D01*
X158960000Y-87090000D02*
X161700000Y-87090000D01*
X161700000Y-87090000D02*
X161700000Y-80550000D01*
X160330000Y-79780000D02*
X160330000Y-80550000D01*
X160330000Y-87860000D02*
X160330000Y-87090000D01*
X166045000Y-87860000D02*
X166045000Y-87090000D01*
X166045000Y-79780000D02*
X166045000Y-80550000D01*
X167415000Y-87090000D02*
X167415000Y-80550000D01*
X164675000Y-87090000D02*
X167415000Y-87090000D01*
X164675000Y-80550000D02*
X164675000Y-87090000D01*
X167415000Y-80550000D02*
X164675000Y-80550000D01*
X47614900Y-74919900D02*
X30088900Y-74919900D01*
X47614900Y-85079900D02*
X47614900Y-74919900D01*
X30088900Y-85079900D02*
X47614900Y-85079900D01*
X168176000Y-113058000D02*
X167922000Y-113058000D01*
X167922000Y-104422000D02*
X168176000Y-104422000D01*
X167922000Y-113058000D02*
X167922000Y-104422000D01*
X168176000Y-104422000D02*
X179606000Y-104422000D01*
X179606000Y-113058000D02*
X168176000Y-113058000D01*
X85499000Y-89055000D02*
X83975000Y-89055000D01*
X85499000Y-83975000D02*
X83975000Y-83975000D01*
X83975000Y-89055000D02*
X83213000Y-89055000D01*
X83975000Y-83975000D02*
X83213000Y-83975000D01*
X77371000Y-83975000D02*
X78895000Y-83975000D01*
X77371000Y-89055000D02*
X78895000Y-89055000D01*
X78895000Y-89055000D02*
X79657000Y-89055000D01*
X78895000Y-83975000D02*
X79657000Y-83975000D01*
X81943000Y-89055000D02*
X81943000Y-83975000D01*
X80927000Y-89055000D02*
X80927000Y-83975000D01*
X83213000Y-89055000D02*
G75*
G02*
X83213000Y-88039000I0J508000D01*
G01*
X83213000Y-87023000D02*
G75*
G03*
X83213000Y-88039000I0J-508000D01*
G01*
X83213000Y-86007000D02*
G75*
G03*
X83213000Y-87023000I0J-508000D01*
G01*
X83213000Y-84991000D02*
G75*
G03*
X83213000Y-86007000I0J-508000D01*
G01*
X83213000Y-83975000D02*
G75*
G03*
X83213000Y-84991000I0J-508000D01*
G01*
X79657000Y-87023000D02*
G75*
G03*
X79657000Y-86007000I0J508000D01*
G01*
X79657000Y-83975000D02*
G75*
G02*
X79657000Y-84991000I0J-508000D01*
G01*
X79657000Y-86007000D02*
G75*
G03*
X79657000Y-84991000I0J508000D01*
G01*
X79657000Y-88039000D02*
G75*
G03*
X79657000Y-87023000I0J508000D01*
G01*
X79657000Y-89055000D02*
G75*
G03*
X79657000Y-88039000I0J508000D01*
G01*
X77110000Y-68795000D02*
X77110000Y-58515000D01*
X56550000Y-68795000D02*
X77110000Y-68795000D01*
X56550000Y-58515000D02*
X56550000Y-68795000D01*
X77110000Y-58515000D02*
X56550000Y-58515000D01*
X77050000Y-66305000D02*
X77050000Y-64655000D01*
X56610000Y-66305000D02*
X77050000Y-66305000D01*
X56610000Y-61005000D02*
X56610000Y-66305000D01*
X77050000Y-61005000D02*
X56610000Y-61005000D01*
X77050000Y-62655000D02*
X77050000Y-61005000D01*
X77050000Y-64655000D02*
G75*
G02*
X77050000Y-62655000I0J1000000D01*
G01*
X54190000Y-62655000D02*
X54190000Y-61005000D01*
X54190000Y-61005000D02*
X33750000Y-61005000D01*
X33750000Y-61005000D02*
X33750000Y-66305000D01*
X33750000Y-66305000D02*
X54190000Y-66305000D01*
X54190000Y-66305000D02*
X54190000Y-64655000D01*
X54250000Y-58515000D02*
X33690000Y-58515000D01*
X33690000Y-58515000D02*
X33690000Y-68795000D01*
X33690000Y-68795000D02*
X54250000Y-68795000D01*
X54250000Y-68795000D02*
X54250000Y-58515000D01*
X54190000Y-64655000D02*
G75*
G02*
X54190000Y-62655000I0J1000000D01*
G01*
X38675000Y-114095000D02*
X48955000Y-114095000D01*
X38675000Y-103695000D02*
X38675000Y-114095000D01*
X48955000Y-103695000D02*
X38675000Y-103695000D01*
X48955000Y-114095000D02*
X48955000Y-103695000D01*
X41165000Y-114035000D02*
X42815000Y-114035000D01*
X41165000Y-103755000D02*
X41165000Y-114035000D01*
X46465000Y-103755000D02*
X41165000Y-103755000D01*
X46465000Y-114035000D02*
X46465000Y-103755000D01*
X44815000Y-114035000D02*
X46465000Y-114035000D01*
X42815000Y-114035000D02*
G75*
G02*
X44815000Y-114035000I1000000J0D01*
G01*
X99970000Y-68795000D02*
X99970000Y-58515000D01*
X79410000Y-68795000D02*
X99970000Y-68795000D01*
X79410000Y-58515000D02*
X79410000Y-68795000D01*
X99970000Y-58515000D02*
X79410000Y-58515000D01*
X99910000Y-66305000D02*
X99910000Y-64655000D01*
X79470000Y-66305000D02*
X99910000Y-66305000D01*
X79470000Y-61005000D02*
X79470000Y-66305000D01*
X99910000Y-61005000D02*
X79470000Y-61005000D01*
X99910000Y-62655000D02*
X99910000Y-61005000D01*
X99910000Y-64655000D02*
G75*
G02*
X99910000Y-62655000I0J1000000D01*
G01*
X146325000Y-68795000D02*
X146325000Y-58515000D01*
X125765000Y-68795000D02*
X146325000Y-68795000D01*
X125765000Y-58515000D02*
X125765000Y-68795000D01*
X146325000Y-58515000D02*
X125765000Y-58515000D01*
X146265000Y-66305000D02*
X146265000Y-64655000D01*
X125825000Y-66305000D02*
X146265000Y-66305000D01*
X125825000Y-61005000D02*
X125825000Y-66305000D01*
X146265000Y-61005000D02*
X125825000Y-61005000D01*
X146265000Y-62655000D02*
X146265000Y-61005000D01*
X146265000Y-64655000D02*
G75*
G02*
X146265000Y-62655000I0J1000000D01*
G01*
D10*
X168096666Y-126607380D02*
X168096666Y-127321666D01*
X168049047Y-127464523D01*
X167953809Y-127559761D01*
X167810952Y-127607380D01*
X167715714Y-127607380D01*
X169049047Y-126607380D02*
X168572857Y-126607380D01*
X168525238Y-127083571D01*
X168572857Y-127035952D01*
X168668095Y-126988333D01*
X168906190Y-126988333D01*
X169001428Y-127035952D01*
X169049047Y-127083571D01*
X169096666Y-127178809D01*
X169096666Y-127416904D01*
X169049047Y-127512142D01*
X169001428Y-127559761D01*
X168906190Y-127607380D01*
X168668095Y-127607380D01*
X168572857Y-127559761D01*
X168525238Y-127512142D01*
X121313095Y-69457380D02*
X121313095Y-70266904D01*
X121360714Y-70362142D01*
X121408333Y-70409761D01*
X121503571Y-70457380D01*
X121694047Y-70457380D01*
X121789285Y-70409761D01*
X121836904Y-70362142D01*
X121884523Y-70266904D01*
X121884523Y-69457380D01*
X122265476Y-69457380D02*
X122884523Y-69457380D01*
X122551190Y-69838333D01*
X122694047Y-69838333D01*
X122789285Y-69885952D01*
X122836904Y-69933571D01*
X122884523Y-70028809D01*
X122884523Y-70266904D01*
X122836904Y-70362142D01*
X122789285Y-70409761D01*
X122694047Y-70457380D01*
X122408333Y-70457380D01*
X122313095Y-70409761D01*
X122265476Y-70362142D01*
X43962142Y-119987380D02*
X43628809Y-119511190D01*
X43390714Y-119987380D02*
X43390714Y-118987380D01*
X43771666Y-118987380D01*
X43866904Y-119035000D01*
X43914523Y-119082619D01*
X43962142Y-119177857D01*
X43962142Y-119320714D01*
X43914523Y-119415952D01*
X43866904Y-119463571D01*
X43771666Y-119511190D01*
X43390714Y-119511190D01*
X44343095Y-119082619D02*
X44390714Y-119035000D01*
X44485952Y-118987380D01*
X44724047Y-118987380D01*
X44819285Y-119035000D01*
X44866904Y-119082619D01*
X44914523Y-119177857D01*
X44914523Y-119273095D01*
X44866904Y-119415952D01*
X44295476Y-119987380D01*
X44914523Y-119987380D01*
X45533571Y-118987380D02*
X45628809Y-118987380D01*
X45724047Y-119035000D01*
X45771666Y-119082619D01*
X45819285Y-119177857D01*
X45866904Y-119368333D01*
X45866904Y-119606428D01*
X45819285Y-119796904D01*
X45771666Y-119892142D01*
X45724047Y-119939761D01*
X45628809Y-119987380D01*
X45533571Y-119987380D01*
X45438333Y-119939761D01*
X45390714Y-119892142D01*
X45343095Y-119796904D01*
X45295476Y-119606428D01*
X45295476Y-119368333D01*
X45343095Y-119177857D01*
X45390714Y-119082619D01*
X45438333Y-119035000D01*
X45533571Y-118987380D01*
X63528095Y-80252380D02*
X64099523Y-80252380D01*
X63813809Y-81252380D02*
X63813809Y-80252380D01*
X64385238Y-80347619D02*
X64432857Y-80300000D01*
X64528095Y-80252380D01*
X64766190Y-80252380D01*
X64861428Y-80300000D01*
X64909047Y-80347619D01*
X64956666Y-80442857D01*
X64956666Y-80538095D01*
X64909047Y-80680952D01*
X64337619Y-81252380D01*
X64956666Y-81252380D01*
X111200714Y-97476666D02*
X111676904Y-97476666D01*
X111105476Y-97762380D02*
X111438809Y-96762380D01*
X111772142Y-97762380D01*
X112629285Y-97762380D02*
X112057857Y-97762380D01*
X112343571Y-97762380D02*
X112343571Y-96762380D01*
X112248333Y-96905238D01*
X112153095Y-97000476D01*
X112057857Y-97048095D01*
X35413333Y-102747142D02*
X35365714Y-102794761D01*
X35222857Y-102842380D01*
X35127619Y-102842380D01*
X34984761Y-102794761D01*
X34889523Y-102699523D01*
X34841904Y-102604285D01*
X34794285Y-102413809D01*
X34794285Y-102270952D01*
X34841904Y-102080476D01*
X34889523Y-101985238D01*
X34984761Y-101890000D01*
X35127619Y-101842380D01*
X35222857Y-101842380D01*
X35365714Y-101890000D01*
X35413333Y-101937619D01*
X36365714Y-102842380D02*
X35794285Y-102842380D01*
X36080000Y-102842380D02*
X36080000Y-101842380D01*
X35984761Y-101985238D01*
X35889523Y-102080476D01*
X35794285Y-102128095D01*
X37453333Y-116082142D02*
X37405714Y-116129761D01*
X37262857Y-116177380D01*
X37167619Y-116177380D01*
X37024761Y-116129761D01*
X36929523Y-116034523D01*
X36881904Y-115939285D01*
X36834285Y-115748809D01*
X36834285Y-115605952D01*
X36881904Y-115415476D01*
X36929523Y-115320238D01*
X37024761Y-115225000D01*
X37167619Y-115177380D01*
X37262857Y-115177380D01*
X37405714Y-115225000D01*
X37453333Y-115272619D01*
X37834285Y-115272619D02*
X37881904Y-115225000D01*
X37977142Y-115177380D01*
X38215238Y-115177380D01*
X38310476Y-115225000D01*
X38358095Y-115272619D01*
X38405714Y-115367857D01*
X38405714Y-115463095D01*
X38358095Y-115605952D01*
X37786666Y-116177380D01*
X38405714Y-116177380D01*
X51423333Y-107827142D02*
X51375714Y-107874761D01*
X51232857Y-107922380D01*
X51137619Y-107922380D01*
X50994761Y-107874761D01*
X50899523Y-107779523D01*
X50851904Y-107684285D01*
X50804285Y-107493809D01*
X50804285Y-107350952D01*
X50851904Y-107160476D01*
X50899523Y-107065238D01*
X50994761Y-106970000D01*
X51137619Y-106922380D01*
X51232857Y-106922380D01*
X51375714Y-106970000D01*
X51423333Y-107017619D01*
X51756666Y-106922380D02*
X52375714Y-106922380D01*
X52042380Y-107303333D01*
X52185238Y-107303333D01*
X52280476Y-107350952D01*
X52328095Y-107398571D01*
X52375714Y-107493809D01*
X52375714Y-107731904D01*
X52328095Y-107827142D01*
X52280476Y-107874761D01*
X52185238Y-107922380D01*
X51899523Y-107922380D01*
X51804285Y-107874761D01*
X51756666Y-107827142D01*
X35413333Y-110962142D02*
X35365714Y-111009761D01*
X35222857Y-111057380D01*
X35127619Y-111057380D01*
X34984761Y-111009761D01*
X34889523Y-110914523D01*
X34841904Y-110819285D01*
X34794285Y-110628809D01*
X34794285Y-110485952D01*
X34841904Y-110295476D01*
X34889523Y-110200238D01*
X34984761Y-110105000D01*
X35127619Y-110057380D01*
X35222857Y-110057380D01*
X35365714Y-110105000D01*
X35413333Y-110152619D01*
X36270476Y-110390714D02*
X36270476Y-111057380D01*
X36032380Y-110009761D02*
X35794285Y-110724047D01*
X36413333Y-110724047D01*
X166191666Y-37707380D02*
X166191666Y-38421666D01*
X166144047Y-38564523D01*
X166048809Y-38659761D01*
X165905952Y-38707380D01*
X165810714Y-38707380D01*
X167191666Y-38707380D02*
X166620238Y-38707380D01*
X166905952Y-38707380D02*
X166905952Y-37707380D01*
X166810714Y-37850238D01*
X166715476Y-37945476D01*
X166620238Y-37993095D01*
X166191666Y-52312380D02*
X166191666Y-53026666D01*
X166144047Y-53169523D01*
X166048809Y-53264761D01*
X165905952Y-53312380D01*
X165810714Y-53312380D01*
X166620238Y-52407619D02*
X166667857Y-52360000D01*
X166763095Y-52312380D01*
X167001190Y-52312380D01*
X167096428Y-52360000D01*
X167144047Y-52407619D01*
X167191666Y-52502857D01*
X167191666Y-52598095D01*
X167144047Y-52740952D01*
X166572619Y-53312380D01*
X167191666Y-53312380D01*
X86636580Y-39336380D02*
X86636580Y-40050666D01*
X86588961Y-40193523D01*
X86493723Y-40288761D01*
X86350866Y-40336380D01*
X86255628Y-40336380D01*
X87017533Y-39336380D02*
X87636580Y-39336380D01*
X87303247Y-39717333D01*
X87446104Y-39717333D01*
X87541342Y-39764952D01*
X87588961Y-39812571D01*
X87636580Y-39907809D01*
X87636580Y-40145904D01*
X87588961Y-40241142D01*
X87541342Y-40288761D01*
X87446104Y-40336380D01*
X87160390Y-40336380D01*
X87065152Y-40288761D01*
X87017533Y-40241142D01*
X118636666Y-39336380D02*
X118636666Y-40050666D01*
X118589047Y-40193523D01*
X118493809Y-40288761D01*
X118350952Y-40336380D01*
X118255714Y-40336380D01*
X119541428Y-39669714D02*
X119541428Y-40336380D01*
X119303333Y-39288761D02*
X119065238Y-40003047D01*
X119684285Y-40003047D01*
X150636752Y-39336380D02*
X150636752Y-40050666D01*
X150589133Y-40193523D01*
X150493895Y-40288761D01*
X150351038Y-40336380D01*
X150255800Y-40336380D01*
X151541514Y-39336380D02*
X151351038Y-39336380D01*
X151255800Y-39384000D01*
X151208181Y-39431619D01*
X151112943Y-39574476D01*
X151065324Y-39764952D01*
X151065324Y-40145904D01*
X151112943Y-40241142D01*
X151160562Y-40288761D01*
X151255800Y-40336380D01*
X151446276Y-40336380D01*
X151541514Y-40288761D01*
X151589133Y-40241142D01*
X151636752Y-40145904D01*
X151636752Y-39907809D01*
X151589133Y-39812571D01*
X151541514Y-39764952D01*
X151446276Y-39717333D01*
X151255800Y-39717333D01*
X151160562Y-39764952D01*
X151112943Y-39812571D01*
X151065324Y-39907809D01*
X60781666Y-112637380D02*
X60781666Y-113351666D01*
X60734047Y-113494523D01*
X60638809Y-113589761D01*
X60495952Y-113637380D01*
X60400714Y-113637380D01*
X61162619Y-112637380D02*
X61829285Y-112637380D01*
X61400714Y-113637380D01*
X148649761Y-71822619D02*
X148554523Y-71775000D01*
X148459285Y-71679761D01*
X148316428Y-71536904D01*
X148221190Y-71489285D01*
X148125952Y-71489285D01*
X148173571Y-71727380D02*
X148078333Y-71679761D01*
X147983095Y-71584523D01*
X147935476Y-71394047D01*
X147935476Y-71060714D01*
X147983095Y-70870238D01*
X148078333Y-70775000D01*
X148173571Y-70727380D01*
X148364047Y-70727380D01*
X148459285Y-70775000D01*
X148554523Y-70870238D01*
X148602142Y-71060714D01*
X148602142Y-71394047D01*
X148554523Y-71584523D01*
X148459285Y-71679761D01*
X148364047Y-71727380D01*
X148173571Y-71727380D01*
X149554523Y-71727380D02*
X148983095Y-71727380D01*
X149268809Y-71727380D02*
X149268809Y-70727380D01*
X149173571Y-70870238D01*
X149078333Y-70965476D01*
X148983095Y-71013095D01*
X170874761Y-71822619D02*
X170779523Y-71775000D01*
X170684285Y-71679761D01*
X170541428Y-71536904D01*
X170446190Y-71489285D01*
X170350952Y-71489285D01*
X170398571Y-71727380D02*
X170303333Y-71679761D01*
X170208095Y-71584523D01*
X170160476Y-71394047D01*
X170160476Y-71060714D01*
X170208095Y-70870238D01*
X170303333Y-70775000D01*
X170398571Y-70727380D01*
X170589047Y-70727380D01*
X170684285Y-70775000D01*
X170779523Y-70870238D01*
X170827142Y-71060714D01*
X170827142Y-71394047D01*
X170779523Y-71584523D01*
X170684285Y-71679761D01*
X170589047Y-71727380D01*
X170398571Y-71727380D01*
X171208095Y-70822619D02*
X171255714Y-70775000D01*
X171350952Y-70727380D01*
X171589047Y-70727380D01*
X171684285Y-70775000D01*
X171731904Y-70822619D01*
X171779523Y-70917857D01*
X171779523Y-71013095D01*
X171731904Y-71155952D01*
X171160476Y-71727380D01*
X171779523Y-71727380D01*
X175954761Y-71822619D02*
X175859523Y-71775000D01*
X175764285Y-71679761D01*
X175621428Y-71536904D01*
X175526190Y-71489285D01*
X175430952Y-71489285D01*
X175478571Y-71727380D02*
X175383333Y-71679761D01*
X175288095Y-71584523D01*
X175240476Y-71394047D01*
X175240476Y-71060714D01*
X175288095Y-70870238D01*
X175383333Y-70775000D01*
X175478571Y-70727380D01*
X175669047Y-70727380D01*
X175764285Y-70775000D01*
X175859523Y-70870238D01*
X175907142Y-71060714D01*
X175907142Y-71394047D01*
X175859523Y-71584523D01*
X175764285Y-71679761D01*
X175669047Y-71727380D01*
X175478571Y-71727380D01*
X176240476Y-70727380D02*
X176859523Y-70727380D01*
X176526190Y-71108333D01*
X176669047Y-71108333D01*
X176764285Y-71155952D01*
X176811904Y-71203571D01*
X176859523Y-71298809D01*
X176859523Y-71536904D01*
X176811904Y-71632142D01*
X176764285Y-71679761D01*
X176669047Y-71727380D01*
X176383333Y-71727380D01*
X176288095Y-71679761D01*
X176240476Y-71632142D01*
X153729761Y-71822619D02*
X153634523Y-71775000D01*
X153539285Y-71679761D01*
X153396428Y-71536904D01*
X153301190Y-71489285D01*
X153205952Y-71489285D01*
X153253571Y-71727380D02*
X153158333Y-71679761D01*
X153063095Y-71584523D01*
X153015476Y-71394047D01*
X153015476Y-71060714D01*
X153063095Y-70870238D01*
X153158333Y-70775000D01*
X153253571Y-70727380D01*
X153444047Y-70727380D01*
X153539285Y-70775000D01*
X153634523Y-70870238D01*
X153682142Y-71060714D01*
X153682142Y-71394047D01*
X153634523Y-71584523D01*
X153539285Y-71679761D01*
X153444047Y-71727380D01*
X153253571Y-71727380D01*
X154539285Y-71060714D02*
X154539285Y-71727380D01*
X154301190Y-70679761D02*
X154063095Y-71394047D01*
X154682142Y-71394047D01*
X159444761Y-71822619D02*
X159349523Y-71775000D01*
X159254285Y-71679761D01*
X159111428Y-71536904D01*
X159016190Y-71489285D01*
X158920952Y-71489285D01*
X158968571Y-71727380D02*
X158873333Y-71679761D01*
X158778095Y-71584523D01*
X158730476Y-71394047D01*
X158730476Y-71060714D01*
X158778095Y-70870238D01*
X158873333Y-70775000D01*
X158968571Y-70727380D01*
X159159047Y-70727380D01*
X159254285Y-70775000D01*
X159349523Y-70870238D01*
X159397142Y-71060714D01*
X159397142Y-71394047D01*
X159349523Y-71584523D01*
X159254285Y-71679761D01*
X159159047Y-71727380D01*
X158968571Y-71727380D01*
X160301904Y-70727380D02*
X159825714Y-70727380D01*
X159778095Y-71203571D01*
X159825714Y-71155952D01*
X159920952Y-71108333D01*
X160159047Y-71108333D01*
X160254285Y-71155952D01*
X160301904Y-71203571D01*
X160349523Y-71298809D01*
X160349523Y-71536904D01*
X160301904Y-71632142D01*
X160254285Y-71679761D01*
X160159047Y-71727380D01*
X159920952Y-71727380D01*
X159825714Y-71679761D01*
X159778095Y-71632142D01*
X165159761Y-71822619D02*
X165064523Y-71775000D01*
X164969285Y-71679761D01*
X164826428Y-71536904D01*
X164731190Y-71489285D01*
X164635952Y-71489285D01*
X164683571Y-71727380D02*
X164588333Y-71679761D01*
X164493095Y-71584523D01*
X164445476Y-71394047D01*
X164445476Y-71060714D01*
X164493095Y-70870238D01*
X164588333Y-70775000D01*
X164683571Y-70727380D01*
X164874047Y-70727380D01*
X164969285Y-70775000D01*
X165064523Y-70870238D01*
X165112142Y-71060714D01*
X165112142Y-71394047D01*
X165064523Y-71584523D01*
X164969285Y-71679761D01*
X164874047Y-71727380D01*
X164683571Y-71727380D01*
X165969285Y-70727380D02*
X165778809Y-70727380D01*
X165683571Y-70775000D01*
X165635952Y-70822619D01*
X165540714Y-70965476D01*
X165493095Y-71155952D01*
X165493095Y-71536904D01*
X165540714Y-71632142D01*
X165588333Y-71679761D01*
X165683571Y-71727380D01*
X165874047Y-71727380D01*
X165969285Y-71679761D01*
X166016904Y-71632142D01*
X166064523Y-71536904D01*
X166064523Y-71298809D01*
X166016904Y-71203571D01*
X165969285Y-71155952D01*
X165874047Y-71108333D01*
X165683571Y-71108333D01*
X165588333Y-71155952D01*
X165540714Y-71203571D01*
X165493095Y-71298809D01*
X58392380Y-51121666D02*
X57916190Y-51455000D01*
X58392380Y-51693095D02*
X57392380Y-51693095D01*
X57392380Y-51312142D01*
X57440000Y-51216904D01*
X57487619Y-51169285D01*
X57582857Y-51121666D01*
X57725714Y-51121666D01*
X57820952Y-51169285D01*
X57868571Y-51216904D01*
X57916190Y-51312142D01*
X57916190Y-51693095D01*
X58392380Y-50169285D02*
X58392380Y-50740714D01*
X58392380Y-50455000D02*
X57392380Y-50455000D01*
X57535238Y-50550238D01*
X57630476Y-50645476D01*
X57678095Y-50740714D01*
X55217380Y-51121666D02*
X54741190Y-51455000D01*
X55217380Y-51693095D02*
X54217380Y-51693095D01*
X54217380Y-51312142D01*
X54265000Y-51216904D01*
X54312619Y-51169285D01*
X54407857Y-51121666D01*
X54550714Y-51121666D01*
X54645952Y-51169285D01*
X54693571Y-51216904D01*
X54741190Y-51312142D01*
X54741190Y-51693095D01*
X54312619Y-50740714D02*
X54265000Y-50693095D01*
X54217380Y-50597857D01*
X54217380Y-50359761D01*
X54265000Y-50264523D01*
X54312619Y-50216904D01*
X54407857Y-50169285D01*
X54503095Y-50169285D01*
X54645952Y-50216904D01*
X55217380Y-50788333D01*
X55217380Y-50169285D01*
X61567380Y-51121666D02*
X61091190Y-51455000D01*
X61567380Y-51693095D02*
X60567380Y-51693095D01*
X60567380Y-51312142D01*
X60615000Y-51216904D01*
X60662619Y-51169285D01*
X60757857Y-51121666D01*
X60900714Y-51121666D01*
X60995952Y-51169285D01*
X61043571Y-51216904D01*
X61091190Y-51312142D01*
X61091190Y-51693095D01*
X60567380Y-50788333D02*
X60567380Y-50169285D01*
X60948333Y-50502619D01*
X60948333Y-50359761D01*
X60995952Y-50264523D01*
X61043571Y-50216904D01*
X61138809Y-50169285D01*
X61376904Y-50169285D01*
X61472142Y-50216904D01*
X61519761Y-50264523D01*
X61567380Y-50359761D01*
X61567380Y-50645476D01*
X61519761Y-50740714D01*
X61472142Y-50788333D01*
X52042380Y-51121666D02*
X51566190Y-51455000D01*
X52042380Y-51693095D02*
X51042380Y-51693095D01*
X51042380Y-51312142D01*
X51090000Y-51216904D01*
X51137619Y-51169285D01*
X51232857Y-51121666D01*
X51375714Y-51121666D01*
X51470952Y-51169285D01*
X51518571Y-51216904D01*
X51566190Y-51312142D01*
X51566190Y-51693095D01*
X51375714Y-50264523D02*
X52042380Y-50264523D01*
X50994761Y-50502619D02*
X51709047Y-50740714D01*
X51709047Y-50121666D01*
X64742380Y-51121666D02*
X64266190Y-51455000D01*
X64742380Y-51693095D02*
X63742380Y-51693095D01*
X63742380Y-51312142D01*
X63790000Y-51216904D01*
X63837619Y-51169285D01*
X63932857Y-51121666D01*
X64075714Y-51121666D01*
X64170952Y-51169285D01*
X64218571Y-51216904D01*
X64266190Y-51312142D01*
X64266190Y-51693095D01*
X63742380Y-50216904D02*
X63742380Y-50693095D01*
X64218571Y-50740714D01*
X64170952Y-50693095D01*
X64123333Y-50597857D01*
X64123333Y-50359761D01*
X64170952Y-50264523D01*
X64218571Y-50216904D01*
X64313809Y-50169285D01*
X64551904Y-50169285D01*
X64647142Y-50216904D01*
X64694761Y-50264523D01*
X64742380Y-50359761D01*
X64742380Y-50597857D01*
X64694761Y-50693095D01*
X64647142Y-50740714D01*
X48867380Y-51121666D02*
X48391190Y-51455000D01*
X48867380Y-51693095D02*
X47867380Y-51693095D01*
X47867380Y-51312142D01*
X47915000Y-51216904D01*
X47962619Y-51169285D01*
X48057857Y-51121666D01*
X48200714Y-51121666D01*
X48295952Y-51169285D01*
X48343571Y-51216904D01*
X48391190Y-51312142D01*
X48391190Y-51693095D01*
X47867380Y-50264523D02*
X47867380Y-50455000D01*
X47915000Y-50550238D01*
X47962619Y-50597857D01*
X48105476Y-50693095D01*
X48295952Y-50740714D01*
X48676904Y-50740714D01*
X48772142Y-50693095D01*
X48819761Y-50645476D01*
X48867380Y-50550238D01*
X48867380Y-50359761D01*
X48819761Y-50264523D01*
X48772142Y-50216904D01*
X48676904Y-50169285D01*
X48438809Y-50169285D01*
X48343571Y-50216904D01*
X48295952Y-50264523D01*
X48248333Y-50359761D01*
X48248333Y-50550238D01*
X48295952Y-50645476D01*
X48343571Y-50693095D01*
X48438809Y-50740714D01*
X67917380Y-51121666D02*
X67441190Y-51455000D01*
X67917380Y-51693095D02*
X66917380Y-51693095D01*
X66917380Y-51312142D01*
X66965000Y-51216904D01*
X67012619Y-51169285D01*
X67107857Y-51121666D01*
X67250714Y-51121666D01*
X67345952Y-51169285D01*
X67393571Y-51216904D01*
X67441190Y-51312142D01*
X67441190Y-51693095D01*
X66917380Y-50788333D02*
X66917380Y-50121666D01*
X67917380Y-50550238D01*
X45692380Y-51121666D02*
X45216190Y-51455000D01*
X45692380Y-51693095D02*
X44692380Y-51693095D01*
X44692380Y-51312142D01*
X44740000Y-51216904D01*
X44787619Y-51169285D01*
X44882857Y-51121666D01*
X45025714Y-51121666D01*
X45120952Y-51169285D01*
X45168571Y-51216904D01*
X45216190Y-51312142D01*
X45216190Y-51693095D01*
X45120952Y-50550238D02*
X45073333Y-50645476D01*
X45025714Y-50693095D01*
X44930476Y-50740714D01*
X44882857Y-50740714D01*
X44787619Y-50693095D01*
X44740000Y-50645476D01*
X44692380Y-50550238D01*
X44692380Y-50359761D01*
X44740000Y-50264523D01*
X44787619Y-50216904D01*
X44882857Y-50169285D01*
X44930476Y-50169285D01*
X45025714Y-50216904D01*
X45073333Y-50264523D01*
X45120952Y-50359761D01*
X45120952Y-50550238D01*
X45168571Y-50645476D01*
X45216190Y-50693095D01*
X45311428Y-50740714D01*
X45501904Y-50740714D01*
X45597142Y-50693095D01*
X45644761Y-50645476D01*
X45692380Y-50550238D01*
X45692380Y-50359761D01*
X45644761Y-50264523D01*
X45597142Y-50216904D01*
X45501904Y-50169285D01*
X45311428Y-50169285D01*
X45216190Y-50216904D01*
X45168571Y-50264523D01*
X45120952Y-50359761D01*
X71092380Y-51121666D02*
X70616190Y-51455000D01*
X71092380Y-51693095D02*
X70092380Y-51693095D01*
X70092380Y-51312142D01*
X70140000Y-51216904D01*
X70187619Y-51169285D01*
X70282857Y-51121666D01*
X70425714Y-51121666D01*
X70520952Y-51169285D01*
X70568571Y-51216904D01*
X70616190Y-51312142D01*
X70616190Y-51693095D01*
X71092380Y-50645476D02*
X71092380Y-50455000D01*
X71044761Y-50359761D01*
X70997142Y-50312142D01*
X70854285Y-50216904D01*
X70663809Y-50169285D01*
X70282857Y-50169285D01*
X70187619Y-50216904D01*
X70140000Y-50264523D01*
X70092380Y-50359761D01*
X70092380Y-50550238D01*
X70140000Y-50645476D01*
X70187619Y-50693095D01*
X70282857Y-50740714D01*
X70520952Y-50740714D01*
X70616190Y-50693095D01*
X70663809Y-50645476D01*
X70711428Y-50550238D01*
X70711428Y-50359761D01*
X70663809Y-50264523D01*
X70616190Y-50216904D01*
X70520952Y-50169285D01*
X42517380Y-51597857D02*
X42041190Y-51931190D01*
X42517380Y-52169285D02*
X41517380Y-52169285D01*
X41517380Y-51788333D01*
X41565000Y-51693095D01*
X41612619Y-51645476D01*
X41707857Y-51597857D01*
X41850714Y-51597857D01*
X41945952Y-51645476D01*
X41993571Y-51693095D01*
X42041190Y-51788333D01*
X42041190Y-52169285D01*
X42517380Y-50645476D02*
X42517380Y-51216904D01*
X42517380Y-50931190D02*
X41517380Y-50931190D01*
X41660238Y-51026428D01*
X41755476Y-51121666D01*
X41803095Y-51216904D01*
X41517380Y-50026428D02*
X41517380Y-49931190D01*
X41565000Y-49835952D01*
X41612619Y-49788333D01*
X41707857Y-49740714D01*
X41898333Y-49693095D01*
X42136428Y-49693095D01*
X42326904Y-49740714D01*
X42422142Y-49788333D01*
X42469761Y-49835952D01*
X42517380Y-49931190D01*
X42517380Y-50026428D01*
X42469761Y-50121666D01*
X42422142Y-50169285D01*
X42326904Y-50216904D01*
X42136428Y-50264523D01*
X41898333Y-50264523D01*
X41707857Y-50216904D01*
X41612619Y-50169285D01*
X41565000Y-50121666D01*
X41517380Y-50026428D01*
X74267380Y-51597857D02*
X73791190Y-51931190D01*
X74267380Y-52169285D02*
X73267380Y-52169285D01*
X73267380Y-51788333D01*
X73315000Y-51693095D01*
X73362619Y-51645476D01*
X73457857Y-51597857D01*
X73600714Y-51597857D01*
X73695952Y-51645476D01*
X73743571Y-51693095D01*
X73791190Y-51788333D01*
X73791190Y-52169285D01*
X74267380Y-50645476D02*
X74267380Y-51216904D01*
X74267380Y-50931190D02*
X73267380Y-50931190D01*
X73410238Y-51026428D01*
X73505476Y-51121666D01*
X73553095Y-51216904D01*
X74267380Y-49693095D02*
X74267380Y-50264523D01*
X74267380Y-49978809D02*
X73267380Y-49978809D01*
X73410238Y-50074047D01*
X73505476Y-50169285D01*
X73553095Y-50264523D01*
X39342380Y-51597857D02*
X38866190Y-51931190D01*
X39342380Y-52169285D02*
X38342380Y-52169285D01*
X38342380Y-51788333D01*
X38390000Y-51693095D01*
X38437619Y-51645476D01*
X38532857Y-51597857D01*
X38675714Y-51597857D01*
X38770952Y-51645476D01*
X38818571Y-51693095D01*
X38866190Y-51788333D01*
X38866190Y-52169285D01*
X39342380Y-50645476D02*
X39342380Y-51216904D01*
X39342380Y-50931190D02*
X38342380Y-50931190D01*
X38485238Y-51026428D01*
X38580476Y-51121666D01*
X38628095Y-51216904D01*
X38437619Y-50264523D02*
X38390000Y-50216904D01*
X38342380Y-50121666D01*
X38342380Y-49883571D01*
X38390000Y-49788333D01*
X38437619Y-49740714D01*
X38532857Y-49693095D01*
X38628095Y-49693095D01*
X38770952Y-49740714D01*
X39342380Y-50312142D01*
X39342380Y-49693095D01*
X80792142Y-97127380D02*
X80458809Y-96651190D01*
X80220714Y-97127380D02*
X80220714Y-96127380D01*
X80601666Y-96127380D01*
X80696904Y-96175000D01*
X80744523Y-96222619D01*
X80792142Y-96317857D01*
X80792142Y-96460714D01*
X80744523Y-96555952D01*
X80696904Y-96603571D01*
X80601666Y-96651190D01*
X80220714Y-96651190D01*
X81744523Y-97127380D02*
X81173095Y-97127380D01*
X81458809Y-97127380D02*
X81458809Y-96127380D01*
X81363571Y-96270238D01*
X81268333Y-96365476D01*
X81173095Y-96413095D01*
X82077857Y-96127380D02*
X82696904Y-96127380D01*
X82363571Y-96508333D01*
X82506428Y-96508333D01*
X82601666Y-96555952D01*
X82649285Y-96603571D01*
X82696904Y-96698809D01*
X82696904Y-96936904D01*
X82649285Y-97032142D01*
X82601666Y-97079761D01*
X82506428Y-97127380D01*
X82220714Y-97127380D01*
X82125476Y-97079761D01*
X82077857Y-97032142D01*
X63647142Y-97127380D02*
X63313809Y-96651190D01*
X63075714Y-97127380D02*
X63075714Y-96127380D01*
X63456666Y-96127380D01*
X63551904Y-96175000D01*
X63599523Y-96222619D01*
X63647142Y-96317857D01*
X63647142Y-96460714D01*
X63599523Y-96555952D01*
X63551904Y-96603571D01*
X63456666Y-96651190D01*
X63075714Y-96651190D01*
X64599523Y-97127380D02*
X64028095Y-97127380D01*
X64313809Y-97127380D02*
X64313809Y-96127380D01*
X64218571Y-96270238D01*
X64123333Y-96365476D01*
X64028095Y-96413095D01*
X65456666Y-96460714D02*
X65456666Y-97127380D01*
X65218571Y-96079761D02*
X64980476Y-96794047D01*
X65599523Y-96794047D01*
X77442380Y-51597857D02*
X76966190Y-51931190D01*
X77442380Y-52169285D02*
X76442380Y-52169285D01*
X76442380Y-51788333D01*
X76490000Y-51693095D01*
X76537619Y-51645476D01*
X76632857Y-51597857D01*
X76775714Y-51597857D01*
X76870952Y-51645476D01*
X76918571Y-51693095D01*
X76966190Y-51788333D01*
X76966190Y-52169285D01*
X77442380Y-50645476D02*
X77442380Y-51216904D01*
X77442380Y-50931190D02*
X76442380Y-50931190D01*
X76585238Y-51026428D01*
X76680476Y-51121666D01*
X76728095Y-51216904D01*
X76442380Y-49740714D02*
X76442380Y-50216904D01*
X76918571Y-50264523D01*
X76870952Y-50216904D01*
X76823333Y-50121666D01*
X76823333Y-49883571D01*
X76870952Y-49788333D01*
X76918571Y-49740714D01*
X77013809Y-49693095D01*
X77251904Y-49693095D01*
X77347142Y-49740714D01*
X77394761Y-49788333D01*
X77442380Y-49883571D01*
X77442380Y-50121666D01*
X77394761Y-50216904D01*
X77347142Y-50264523D01*
X36167380Y-51597857D02*
X35691190Y-51931190D01*
X36167380Y-52169285D02*
X35167380Y-52169285D01*
X35167380Y-51788333D01*
X35215000Y-51693095D01*
X35262619Y-51645476D01*
X35357857Y-51597857D01*
X35500714Y-51597857D01*
X35595952Y-51645476D01*
X35643571Y-51693095D01*
X35691190Y-51788333D01*
X35691190Y-52169285D01*
X36167380Y-50645476D02*
X36167380Y-51216904D01*
X36167380Y-50931190D02*
X35167380Y-50931190D01*
X35310238Y-51026428D01*
X35405476Y-51121666D01*
X35453095Y-51216904D01*
X35167380Y-49788333D02*
X35167380Y-49978809D01*
X35215000Y-50074047D01*
X35262619Y-50121666D01*
X35405476Y-50216904D01*
X35595952Y-50264523D01*
X35976904Y-50264523D01*
X36072142Y-50216904D01*
X36119761Y-50169285D01*
X36167380Y-50074047D01*
X36167380Y-49883571D01*
X36119761Y-49788333D01*
X36072142Y-49740714D01*
X35976904Y-49693095D01*
X35738809Y-49693095D01*
X35643571Y-49740714D01*
X35595952Y-49788333D01*
X35548333Y-49883571D01*
X35548333Y-50074047D01*
X35595952Y-50169285D01*
X35643571Y-50216904D01*
X35738809Y-50264523D01*
X80617380Y-51597857D02*
X80141190Y-51931190D01*
X80617380Y-52169285D02*
X79617380Y-52169285D01*
X79617380Y-51788333D01*
X79665000Y-51693095D01*
X79712619Y-51645476D01*
X79807857Y-51597857D01*
X79950714Y-51597857D01*
X80045952Y-51645476D01*
X80093571Y-51693095D01*
X80141190Y-51788333D01*
X80141190Y-52169285D01*
X80617380Y-50645476D02*
X80617380Y-51216904D01*
X80617380Y-50931190D02*
X79617380Y-50931190D01*
X79760238Y-51026428D01*
X79855476Y-51121666D01*
X79903095Y-51216904D01*
X79617380Y-50312142D02*
X79617380Y-49645476D01*
X80617380Y-50074047D01*
X32992380Y-51597857D02*
X32516190Y-51931190D01*
X32992380Y-52169285D02*
X31992380Y-52169285D01*
X31992380Y-51788333D01*
X32040000Y-51693095D01*
X32087619Y-51645476D01*
X32182857Y-51597857D01*
X32325714Y-51597857D01*
X32420952Y-51645476D01*
X32468571Y-51693095D01*
X32516190Y-51788333D01*
X32516190Y-52169285D01*
X32992380Y-50645476D02*
X32992380Y-51216904D01*
X32992380Y-50931190D02*
X31992380Y-50931190D01*
X32135238Y-51026428D01*
X32230476Y-51121666D01*
X32278095Y-51216904D01*
X32420952Y-50074047D02*
X32373333Y-50169285D01*
X32325714Y-50216904D01*
X32230476Y-50264523D01*
X32182857Y-50264523D01*
X32087619Y-50216904D01*
X32040000Y-50169285D01*
X31992380Y-50074047D01*
X31992380Y-49883571D01*
X32040000Y-49788333D01*
X32087619Y-49740714D01*
X32182857Y-49693095D01*
X32230476Y-49693095D01*
X32325714Y-49740714D01*
X32373333Y-49788333D01*
X32420952Y-49883571D01*
X32420952Y-50074047D01*
X32468571Y-50169285D01*
X32516190Y-50216904D01*
X32611428Y-50264523D01*
X32801904Y-50264523D01*
X32897142Y-50216904D01*
X32944761Y-50169285D01*
X32992380Y-50074047D01*
X32992380Y-49883571D01*
X32944761Y-49788333D01*
X32897142Y-49740714D01*
X32801904Y-49693095D01*
X32611428Y-49693095D01*
X32516190Y-49740714D01*
X32468571Y-49788333D01*
X32420952Y-49883571D01*
X57932142Y-119987380D02*
X57598809Y-119511190D01*
X57360714Y-119987380D02*
X57360714Y-118987380D01*
X57741666Y-118987380D01*
X57836904Y-119035000D01*
X57884523Y-119082619D01*
X57932142Y-119177857D01*
X57932142Y-119320714D01*
X57884523Y-119415952D01*
X57836904Y-119463571D01*
X57741666Y-119511190D01*
X57360714Y-119511190D01*
X58884523Y-119987380D02*
X58313095Y-119987380D01*
X58598809Y-119987380D02*
X58598809Y-118987380D01*
X58503571Y-119130238D01*
X58408333Y-119225476D01*
X58313095Y-119273095D01*
X59360714Y-119987380D02*
X59551190Y-119987380D01*
X59646428Y-119939761D01*
X59694047Y-119892142D01*
X59789285Y-119749285D01*
X59836904Y-119558809D01*
X59836904Y-119177857D01*
X59789285Y-119082619D01*
X59741666Y-119035000D01*
X59646428Y-118987380D01*
X59455952Y-118987380D01*
X59360714Y-119035000D01*
X59313095Y-119082619D01*
X59265476Y-119177857D01*
X59265476Y-119415952D01*
X59313095Y-119511190D01*
X59360714Y-119558809D01*
X59455952Y-119606428D01*
X59646428Y-119606428D01*
X59741666Y-119558809D01*
X59789285Y-119511190D01*
X59836904Y-119415952D01*
X106017380Y-51597857D02*
X105541190Y-51931190D01*
X106017380Y-52169285D02*
X105017380Y-52169285D01*
X105017380Y-51788333D01*
X105065000Y-51693095D01*
X105112619Y-51645476D01*
X105207857Y-51597857D01*
X105350714Y-51597857D01*
X105445952Y-51645476D01*
X105493571Y-51693095D01*
X105541190Y-51788333D01*
X105541190Y-52169285D01*
X105112619Y-51216904D02*
X105065000Y-51169285D01*
X105017380Y-51074047D01*
X105017380Y-50835952D01*
X105065000Y-50740714D01*
X105112619Y-50693095D01*
X105207857Y-50645476D01*
X105303095Y-50645476D01*
X105445952Y-50693095D01*
X106017380Y-51264523D01*
X106017380Y-50645476D01*
X106017380Y-49693095D02*
X106017380Y-50264523D01*
X106017380Y-49978809D02*
X105017380Y-49978809D01*
X105160238Y-50074047D01*
X105255476Y-50169285D01*
X105303095Y-50264523D01*
X102842380Y-51597857D02*
X102366190Y-51931190D01*
X102842380Y-52169285D02*
X101842380Y-52169285D01*
X101842380Y-51788333D01*
X101890000Y-51693095D01*
X101937619Y-51645476D01*
X102032857Y-51597857D01*
X102175714Y-51597857D01*
X102270952Y-51645476D01*
X102318571Y-51693095D01*
X102366190Y-51788333D01*
X102366190Y-52169285D01*
X101937619Y-51216904D02*
X101890000Y-51169285D01*
X101842380Y-51074047D01*
X101842380Y-50835952D01*
X101890000Y-50740714D01*
X101937619Y-50693095D01*
X102032857Y-50645476D01*
X102128095Y-50645476D01*
X102270952Y-50693095D01*
X102842380Y-51264523D01*
X102842380Y-50645476D01*
X101937619Y-50264523D02*
X101890000Y-50216904D01*
X101842380Y-50121666D01*
X101842380Y-49883571D01*
X101890000Y-49788333D01*
X101937619Y-49740714D01*
X102032857Y-49693095D01*
X102128095Y-49693095D01*
X102270952Y-49740714D01*
X102842380Y-50312142D01*
X102842380Y-49693095D01*
X109192380Y-51597857D02*
X108716190Y-51931190D01*
X109192380Y-52169285D02*
X108192380Y-52169285D01*
X108192380Y-51788333D01*
X108240000Y-51693095D01*
X108287619Y-51645476D01*
X108382857Y-51597857D01*
X108525714Y-51597857D01*
X108620952Y-51645476D01*
X108668571Y-51693095D01*
X108716190Y-51788333D01*
X108716190Y-52169285D01*
X108287619Y-51216904D02*
X108240000Y-51169285D01*
X108192380Y-51074047D01*
X108192380Y-50835952D01*
X108240000Y-50740714D01*
X108287619Y-50693095D01*
X108382857Y-50645476D01*
X108478095Y-50645476D01*
X108620952Y-50693095D01*
X109192380Y-51264523D01*
X109192380Y-50645476D01*
X108192380Y-50312142D02*
X108192380Y-49693095D01*
X108573333Y-50026428D01*
X108573333Y-49883571D01*
X108620952Y-49788333D01*
X108668571Y-49740714D01*
X108763809Y-49693095D01*
X109001904Y-49693095D01*
X109097142Y-49740714D01*
X109144761Y-49788333D01*
X109192380Y-49883571D01*
X109192380Y-50169285D01*
X109144761Y-50264523D01*
X109097142Y-50312142D01*
X99667380Y-51597857D02*
X99191190Y-51931190D01*
X99667380Y-52169285D02*
X98667380Y-52169285D01*
X98667380Y-51788333D01*
X98715000Y-51693095D01*
X98762619Y-51645476D01*
X98857857Y-51597857D01*
X99000714Y-51597857D01*
X99095952Y-51645476D01*
X99143571Y-51693095D01*
X99191190Y-51788333D01*
X99191190Y-52169285D01*
X98762619Y-51216904D02*
X98715000Y-51169285D01*
X98667380Y-51074047D01*
X98667380Y-50835952D01*
X98715000Y-50740714D01*
X98762619Y-50693095D01*
X98857857Y-50645476D01*
X98953095Y-50645476D01*
X99095952Y-50693095D01*
X99667380Y-51264523D01*
X99667380Y-50645476D01*
X99000714Y-49788333D02*
X99667380Y-49788333D01*
X98619761Y-50026428D02*
X99334047Y-50264523D01*
X99334047Y-49645476D01*
X112367380Y-51597857D02*
X111891190Y-51931190D01*
X112367380Y-52169285D02*
X111367380Y-52169285D01*
X111367380Y-51788333D01*
X111415000Y-51693095D01*
X111462619Y-51645476D01*
X111557857Y-51597857D01*
X111700714Y-51597857D01*
X111795952Y-51645476D01*
X111843571Y-51693095D01*
X111891190Y-51788333D01*
X111891190Y-52169285D01*
X111462619Y-51216904D02*
X111415000Y-51169285D01*
X111367380Y-51074047D01*
X111367380Y-50835952D01*
X111415000Y-50740714D01*
X111462619Y-50693095D01*
X111557857Y-50645476D01*
X111653095Y-50645476D01*
X111795952Y-50693095D01*
X112367380Y-51264523D01*
X112367380Y-50645476D01*
X111367380Y-49740714D02*
X111367380Y-50216904D01*
X111843571Y-50264523D01*
X111795952Y-50216904D01*
X111748333Y-50121666D01*
X111748333Y-49883571D01*
X111795952Y-49788333D01*
X111843571Y-49740714D01*
X111938809Y-49693095D01*
X112176904Y-49693095D01*
X112272142Y-49740714D01*
X112319761Y-49788333D01*
X112367380Y-49883571D01*
X112367380Y-50121666D01*
X112319761Y-50216904D01*
X112272142Y-50264523D01*
X96492380Y-51597857D02*
X96016190Y-51931190D01*
X96492380Y-52169285D02*
X95492380Y-52169285D01*
X95492380Y-51788333D01*
X95540000Y-51693095D01*
X95587619Y-51645476D01*
X95682857Y-51597857D01*
X95825714Y-51597857D01*
X95920952Y-51645476D01*
X95968571Y-51693095D01*
X96016190Y-51788333D01*
X96016190Y-52169285D01*
X95587619Y-51216904D02*
X95540000Y-51169285D01*
X95492380Y-51074047D01*
X95492380Y-50835952D01*
X95540000Y-50740714D01*
X95587619Y-50693095D01*
X95682857Y-50645476D01*
X95778095Y-50645476D01*
X95920952Y-50693095D01*
X96492380Y-51264523D01*
X96492380Y-50645476D01*
X95492380Y-49788333D02*
X95492380Y-49978809D01*
X95540000Y-50074047D01*
X95587619Y-50121666D01*
X95730476Y-50216904D01*
X95920952Y-50264523D01*
X96301904Y-50264523D01*
X96397142Y-50216904D01*
X96444761Y-50169285D01*
X96492380Y-50074047D01*
X96492380Y-49883571D01*
X96444761Y-49788333D01*
X96397142Y-49740714D01*
X96301904Y-49693095D01*
X96063809Y-49693095D01*
X95968571Y-49740714D01*
X95920952Y-49788333D01*
X95873333Y-49883571D01*
X95873333Y-50074047D01*
X95920952Y-50169285D01*
X95968571Y-50216904D01*
X96063809Y-50264523D01*
X115542380Y-51597857D02*
X115066190Y-51931190D01*
X115542380Y-52169285D02*
X114542380Y-52169285D01*
X114542380Y-51788333D01*
X114590000Y-51693095D01*
X114637619Y-51645476D01*
X114732857Y-51597857D01*
X114875714Y-51597857D01*
X114970952Y-51645476D01*
X115018571Y-51693095D01*
X115066190Y-51788333D01*
X115066190Y-52169285D01*
X114637619Y-51216904D02*
X114590000Y-51169285D01*
X114542380Y-51074047D01*
X114542380Y-50835952D01*
X114590000Y-50740714D01*
X114637619Y-50693095D01*
X114732857Y-50645476D01*
X114828095Y-50645476D01*
X114970952Y-50693095D01*
X115542380Y-51264523D01*
X115542380Y-50645476D01*
X114542380Y-50312142D02*
X114542380Y-49645476D01*
X115542380Y-50074047D01*
X93317380Y-51597857D02*
X92841190Y-51931190D01*
X93317380Y-52169285D02*
X92317380Y-52169285D01*
X92317380Y-51788333D01*
X92365000Y-51693095D01*
X92412619Y-51645476D01*
X92507857Y-51597857D01*
X92650714Y-51597857D01*
X92745952Y-51645476D01*
X92793571Y-51693095D01*
X92841190Y-51788333D01*
X92841190Y-52169285D01*
X92412619Y-51216904D02*
X92365000Y-51169285D01*
X92317380Y-51074047D01*
X92317380Y-50835952D01*
X92365000Y-50740714D01*
X92412619Y-50693095D01*
X92507857Y-50645476D01*
X92603095Y-50645476D01*
X92745952Y-50693095D01*
X93317380Y-51264523D01*
X93317380Y-50645476D01*
X92745952Y-50074047D02*
X92698333Y-50169285D01*
X92650714Y-50216904D01*
X92555476Y-50264523D01*
X92507857Y-50264523D01*
X92412619Y-50216904D01*
X92365000Y-50169285D01*
X92317380Y-50074047D01*
X92317380Y-49883571D01*
X92365000Y-49788333D01*
X92412619Y-49740714D01*
X92507857Y-49693095D01*
X92555476Y-49693095D01*
X92650714Y-49740714D01*
X92698333Y-49788333D01*
X92745952Y-49883571D01*
X92745952Y-50074047D01*
X92793571Y-50169285D01*
X92841190Y-50216904D01*
X92936428Y-50264523D01*
X93126904Y-50264523D01*
X93222142Y-50216904D01*
X93269761Y-50169285D01*
X93317380Y-50074047D01*
X93317380Y-49883571D01*
X93269761Y-49788333D01*
X93222142Y-49740714D01*
X93126904Y-49693095D01*
X92936428Y-49693095D01*
X92841190Y-49740714D01*
X92793571Y-49788333D01*
X92745952Y-49883571D01*
X118717380Y-51597857D02*
X118241190Y-51931190D01*
X118717380Y-52169285D02*
X117717380Y-52169285D01*
X117717380Y-51788333D01*
X117765000Y-51693095D01*
X117812619Y-51645476D01*
X117907857Y-51597857D01*
X118050714Y-51597857D01*
X118145952Y-51645476D01*
X118193571Y-51693095D01*
X118241190Y-51788333D01*
X118241190Y-52169285D01*
X117812619Y-51216904D02*
X117765000Y-51169285D01*
X117717380Y-51074047D01*
X117717380Y-50835952D01*
X117765000Y-50740714D01*
X117812619Y-50693095D01*
X117907857Y-50645476D01*
X118003095Y-50645476D01*
X118145952Y-50693095D01*
X118717380Y-51264523D01*
X118717380Y-50645476D01*
X118717380Y-50169285D02*
X118717380Y-49978809D01*
X118669761Y-49883571D01*
X118622142Y-49835952D01*
X118479285Y-49740714D01*
X118288809Y-49693095D01*
X117907857Y-49693095D01*
X117812619Y-49740714D01*
X117765000Y-49788333D01*
X117717380Y-49883571D01*
X117717380Y-50074047D01*
X117765000Y-50169285D01*
X117812619Y-50216904D01*
X117907857Y-50264523D01*
X118145952Y-50264523D01*
X118241190Y-50216904D01*
X118288809Y-50169285D01*
X118336428Y-50074047D01*
X118336428Y-49883571D01*
X118288809Y-49788333D01*
X118241190Y-49740714D01*
X118145952Y-49693095D01*
X90142380Y-51597857D02*
X89666190Y-51931190D01*
X90142380Y-52169285D02*
X89142380Y-52169285D01*
X89142380Y-51788333D01*
X89190000Y-51693095D01*
X89237619Y-51645476D01*
X89332857Y-51597857D01*
X89475714Y-51597857D01*
X89570952Y-51645476D01*
X89618571Y-51693095D01*
X89666190Y-51788333D01*
X89666190Y-52169285D01*
X89142380Y-51264523D02*
X89142380Y-50645476D01*
X89523333Y-50978809D01*
X89523333Y-50835952D01*
X89570952Y-50740714D01*
X89618571Y-50693095D01*
X89713809Y-50645476D01*
X89951904Y-50645476D01*
X90047142Y-50693095D01*
X90094761Y-50740714D01*
X90142380Y-50835952D01*
X90142380Y-51121666D01*
X90094761Y-51216904D01*
X90047142Y-51264523D01*
X89142380Y-50026428D02*
X89142380Y-49931190D01*
X89190000Y-49835952D01*
X89237619Y-49788333D01*
X89332857Y-49740714D01*
X89523333Y-49693095D01*
X89761428Y-49693095D01*
X89951904Y-49740714D01*
X90047142Y-49788333D01*
X90094761Y-49835952D01*
X90142380Y-49931190D01*
X90142380Y-50026428D01*
X90094761Y-50121666D01*
X90047142Y-50169285D01*
X89951904Y-50216904D01*
X89761428Y-50264523D01*
X89523333Y-50264523D01*
X89332857Y-50216904D01*
X89237619Y-50169285D01*
X89190000Y-50121666D01*
X89142380Y-50026428D01*
X121892380Y-51597857D02*
X121416190Y-51931190D01*
X121892380Y-52169285D02*
X120892380Y-52169285D01*
X120892380Y-51788333D01*
X120940000Y-51693095D01*
X120987619Y-51645476D01*
X121082857Y-51597857D01*
X121225714Y-51597857D01*
X121320952Y-51645476D01*
X121368571Y-51693095D01*
X121416190Y-51788333D01*
X121416190Y-52169285D01*
X120892380Y-51264523D02*
X120892380Y-50645476D01*
X121273333Y-50978809D01*
X121273333Y-50835952D01*
X121320952Y-50740714D01*
X121368571Y-50693095D01*
X121463809Y-50645476D01*
X121701904Y-50645476D01*
X121797142Y-50693095D01*
X121844761Y-50740714D01*
X121892380Y-50835952D01*
X121892380Y-51121666D01*
X121844761Y-51216904D01*
X121797142Y-51264523D01*
X121892380Y-49693095D02*
X121892380Y-50264523D01*
X121892380Y-49978809D02*
X120892380Y-49978809D01*
X121035238Y-50074047D01*
X121130476Y-50169285D01*
X121178095Y-50264523D01*
X86967380Y-51597857D02*
X86491190Y-51931190D01*
X86967380Y-52169285D02*
X85967380Y-52169285D01*
X85967380Y-51788333D01*
X86015000Y-51693095D01*
X86062619Y-51645476D01*
X86157857Y-51597857D01*
X86300714Y-51597857D01*
X86395952Y-51645476D01*
X86443571Y-51693095D01*
X86491190Y-51788333D01*
X86491190Y-52169285D01*
X85967380Y-51264523D02*
X85967380Y-50645476D01*
X86348333Y-50978809D01*
X86348333Y-50835952D01*
X86395952Y-50740714D01*
X86443571Y-50693095D01*
X86538809Y-50645476D01*
X86776904Y-50645476D01*
X86872142Y-50693095D01*
X86919761Y-50740714D01*
X86967380Y-50835952D01*
X86967380Y-51121666D01*
X86919761Y-51216904D01*
X86872142Y-51264523D01*
X86062619Y-50264523D02*
X86015000Y-50216904D01*
X85967380Y-50121666D01*
X85967380Y-49883571D01*
X86015000Y-49788333D01*
X86062619Y-49740714D01*
X86157857Y-49693095D01*
X86253095Y-49693095D01*
X86395952Y-49740714D01*
X86967380Y-50312142D01*
X86967380Y-49693095D01*
X125067380Y-51597857D02*
X124591190Y-51931190D01*
X125067380Y-52169285D02*
X124067380Y-52169285D01*
X124067380Y-51788333D01*
X124115000Y-51693095D01*
X124162619Y-51645476D01*
X124257857Y-51597857D01*
X124400714Y-51597857D01*
X124495952Y-51645476D01*
X124543571Y-51693095D01*
X124591190Y-51788333D01*
X124591190Y-52169285D01*
X124067380Y-51264523D02*
X124067380Y-50645476D01*
X124448333Y-50978809D01*
X124448333Y-50835952D01*
X124495952Y-50740714D01*
X124543571Y-50693095D01*
X124638809Y-50645476D01*
X124876904Y-50645476D01*
X124972142Y-50693095D01*
X125019761Y-50740714D01*
X125067380Y-50835952D01*
X125067380Y-51121666D01*
X125019761Y-51216904D01*
X124972142Y-51264523D01*
X124067380Y-50312142D02*
X124067380Y-49693095D01*
X124448333Y-50026428D01*
X124448333Y-49883571D01*
X124495952Y-49788333D01*
X124543571Y-49740714D01*
X124638809Y-49693095D01*
X124876904Y-49693095D01*
X124972142Y-49740714D01*
X125019761Y-49788333D01*
X125067380Y-49883571D01*
X125067380Y-50169285D01*
X125019761Y-50264523D01*
X124972142Y-50312142D01*
X83792380Y-51597857D02*
X83316190Y-51931190D01*
X83792380Y-52169285D02*
X82792380Y-52169285D01*
X82792380Y-51788333D01*
X82840000Y-51693095D01*
X82887619Y-51645476D01*
X82982857Y-51597857D01*
X83125714Y-51597857D01*
X83220952Y-51645476D01*
X83268571Y-51693095D01*
X83316190Y-51788333D01*
X83316190Y-52169285D01*
X82792380Y-51264523D02*
X82792380Y-50645476D01*
X83173333Y-50978809D01*
X83173333Y-50835952D01*
X83220952Y-50740714D01*
X83268571Y-50693095D01*
X83363809Y-50645476D01*
X83601904Y-50645476D01*
X83697142Y-50693095D01*
X83744761Y-50740714D01*
X83792380Y-50835952D01*
X83792380Y-51121666D01*
X83744761Y-51216904D01*
X83697142Y-51264523D01*
X83125714Y-49788333D02*
X83792380Y-49788333D01*
X82744761Y-50026428D02*
X83459047Y-50264523D01*
X83459047Y-49645476D01*
X131417380Y-51597857D02*
X130941190Y-51931190D01*
X131417380Y-52169285D02*
X130417380Y-52169285D01*
X130417380Y-51788333D01*
X130465000Y-51693095D01*
X130512619Y-51645476D01*
X130607857Y-51597857D01*
X130750714Y-51597857D01*
X130845952Y-51645476D01*
X130893571Y-51693095D01*
X130941190Y-51788333D01*
X130941190Y-52169285D01*
X130417380Y-51264523D02*
X130417380Y-50645476D01*
X130798333Y-50978809D01*
X130798333Y-50835952D01*
X130845952Y-50740714D01*
X130893571Y-50693095D01*
X130988809Y-50645476D01*
X131226904Y-50645476D01*
X131322142Y-50693095D01*
X131369761Y-50740714D01*
X131417380Y-50835952D01*
X131417380Y-51121666D01*
X131369761Y-51216904D01*
X131322142Y-51264523D01*
X130417380Y-49740714D02*
X130417380Y-50216904D01*
X130893571Y-50264523D01*
X130845952Y-50216904D01*
X130798333Y-50121666D01*
X130798333Y-49883571D01*
X130845952Y-49788333D01*
X130893571Y-49740714D01*
X130988809Y-49693095D01*
X131226904Y-49693095D01*
X131322142Y-49740714D01*
X131369761Y-49788333D01*
X131417380Y-49883571D01*
X131417380Y-50121666D01*
X131369761Y-50216904D01*
X131322142Y-50264523D01*
X128242380Y-51597857D02*
X127766190Y-51931190D01*
X128242380Y-52169285D02*
X127242380Y-52169285D01*
X127242380Y-51788333D01*
X127290000Y-51693095D01*
X127337619Y-51645476D01*
X127432857Y-51597857D01*
X127575714Y-51597857D01*
X127670952Y-51645476D01*
X127718571Y-51693095D01*
X127766190Y-51788333D01*
X127766190Y-52169285D01*
X127242380Y-51264523D02*
X127242380Y-50645476D01*
X127623333Y-50978809D01*
X127623333Y-50835952D01*
X127670952Y-50740714D01*
X127718571Y-50693095D01*
X127813809Y-50645476D01*
X128051904Y-50645476D01*
X128147142Y-50693095D01*
X128194761Y-50740714D01*
X128242380Y-50835952D01*
X128242380Y-51121666D01*
X128194761Y-51216904D01*
X128147142Y-51264523D01*
X127242380Y-49788333D02*
X127242380Y-49978809D01*
X127290000Y-50074047D01*
X127337619Y-50121666D01*
X127480476Y-50216904D01*
X127670952Y-50264523D01*
X128051904Y-50264523D01*
X128147142Y-50216904D01*
X128194761Y-50169285D01*
X128242380Y-50074047D01*
X128242380Y-49883571D01*
X128194761Y-49788333D01*
X128147142Y-49740714D01*
X128051904Y-49693095D01*
X127813809Y-49693095D01*
X127718571Y-49740714D01*
X127670952Y-49788333D01*
X127623333Y-49883571D01*
X127623333Y-50074047D01*
X127670952Y-50169285D01*
X127718571Y-50216904D01*
X127813809Y-50264523D01*
X134592380Y-51597857D02*
X134116190Y-51931190D01*
X134592380Y-52169285D02*
X133592380Y-52169285D01*
X133592380Y-51788333D01*
X133640000Y-51693095D01*
X133687619Y-51645476D01*
X133782857Y-51597857D01*
X133925714Y-51597857D01*
X134020952Y-51645476D01*
X134068571Y-51693095D01*
X134116190Y-51788333D01*
X134116190Y-52169285D01*
X133592380Y-51264523D02*
X133592380Y-50645476D01*
X133973333Y-50978809D01*
X133973333Y-50835952D01*
X134020952Y-50740714D01*
X134068571Y-50693095D01*
X134163809Y-50645476D01*
X134401904Y-50645476D01*
X134497142Y-50693095D01*
X134544761Y-50740714D01*
X134592380Y-50835952D01*
X134592380Y-51121666D01*
X134544761Y-51216904D01*
X134497142Y-51264523D01*
X133592380Y-50312142D02*
X133592380Y-49645476D01*
X134592380Y-50074047D01*
X137767380Y-51597857D02*
X137291190Y-51931190D01*
X137767380Y-52169285D02*
X136767380Y-52169285D01*
X136767380Y-51788333D01*
X136815000Y-51693095D01*
X136862619Y-51645476D01*
X136957857Y-51597857D01*
X137100714Y-51597857D01*
X137195952Y-51645476D01*
X137243571Y-51693095D01*
X137291190Y-51788333D01*
X137291190Y-52169285D01*
X136767380Y-51264523D02*
X136767380Y-50645476D01*
X137148333Y-50978809D01*
X137148333Y-50835952D01*
X137195952Y-50740714D01*
X137243571Y-50693095D01*
X137338809Y-50645476D01*
X137576904Y-50645476D01*
X137672142Y-50693095D01*
X137719761Y-50740714D01*
X137767380Y-50835952D01*
X137767380Y-51121666D01*
X137719761Y-51216904D01*
X137672142Y-51264523D01*
X137195952Y-50074047D02*
X137148333Y-50169285D01*
X137100714Y-50216904D01*
X137005476Y-50264523D01*
X136957857Y-50264523D01*
X136862619Y-50216904D01*
X136815000Y-50169285D01*
X136767380Y-50074047D01*
X136767380Y-49883571D01*
X136815000Y-49788333D01*
X136862619Y-49740714D01*
X136957857Y-49693095D01*
X137005476Y-49693095D01*
X137100714Y-49740714D01*
X137148333Y-49788333D01*
X137195952Y-49883571D01*
X137195952Y-50074047D01*
X137243571Y-50169285D01*
X137291190Y-50216904D01*
X137386428Y-50264523D01*
X137576904Y-50264523D01*
X137672142Y-50216904D01*
X137719761Y-50169285D01*
X137767380Y-50074047D01*
X137767380Y-49883571D01*
X137719761Y-49788333D01*
X137672142Y-49740714D01*
X137576904Y-49693095D01*
X137386428Y-49693095D01*
X137291190Y-49740714D01*
X137243571Y-49788333D01*
X137195952Y-49883571D01*
X140942380Y-51597857D02*
X140466190Y-51931190D01*
X140942380Y-52169285D02*
X139942380Y-52169285D01*
X139942380Y-51788333D01*
X139990000Y-51693095D01*
X140037619Y-51645476D01*
X140132857Y-51597857D01*
X140275714Y-51597857D01*
X140370952Y-51645476D01*
X140418571Y-51693095D01*
X140466190Y-51788333D01*
X140466190Y-52169285D01*
X139942380Y-51264523D02*
X139942380Y-50645476D01*
X140323333Y-50978809D01*
X140323333Y-50835952D01*
X140370952Y-50740714D01*
X140418571Y-50693095D01*
X140513809Y-50645476D01*
X140751904Y-50645476D01*
X140847142Y-50693095D01*
X140894761Y-50740714D01*
X140942380Y-50835952D01*
X140942380Y-51121666D01*
X140894761Y-51216904D01*
X140847142Y-51264523D01*
X140942380Y-50169285D02*
X140942380Y-49978809D01*
X140894761Y-49883571D01*
X140847142Y-49835952D01*
X140704285Y-49740714D01*
X140513809Y-49693095D01*
X140132857Y-49693095D01*
X140037619Y-49740714D01*
X139990000Y-49788333D01*
X139942380Y-49883571D01*
X139942380Y-50074047D01*
X139990000Y-50169285D01*
X140037619Y-50216904D01*
X140132857Y-50264523D01*
X140370952Y-50264523D01*
X140466190Y-50216904D01*
X140513809Y-50169285D01*
X140561428Y-50074047D01*
X140561428Y-49883571D01*
X140513809Y-49788333D01*
X140466190Y-49740714D01*
X140370952Y-49693095D01*
X144117380Y-51597857D02*
X143641190Y-51931190D01*
X144117380Y-52169285D02*
X143117380Y-52169285D01*
X143117380Y-51788333D01*
X143165000Y-51693095D01*
X143212619Y-51645476D01*
X143307857Y-51597857D01*
X143450714Y-51597857D01*
X143545952Y-51645476D01*
X143593571Y-51693095D01*
X143641190Y-51788333D01*
X143641190Y-52169285D01*
X143450714Y-50740714D02*
X144117380Y-50740714D01*
X143069761Y-50978809D02*
X143784047Y-51216904D01*
X143784047Y-50597857D01*
X143117380Y-50026428D02*
X143117380Y-49931190D01*
X143165000Y-49835952D01*
X143212619Y-49788333D01*
X143307857Y-49740714D01*
X143498333Y-49693095D01*
X143736428Y-49693095D01*
X143926904Y-49740714D01*
X144022142Y-49788333D01*
X144069761Y-49835952D01*
X144117380Y-49931190D01*
X144117380Y-50026428D01*
X144069761Y-50121666D01*
X144022142Y-50169285D01*
X143926904Y-50216904D01*
X143736428Y-50264523D01*
X143498333Y-50264523D01*
X143307857Y-50216904D01*
X143212619Y-50169285D01*
X143165000Y-50121666D01*
X143117380Y-50026428D01*
X149832380Y-84462857D02*
X149356190Y-84796190D01*
X149832380Y-85034285D02*
X148832380Y-85034285D01*
X148832380Y-84653333D01*
X148880000Y-84558095D01*
X148927619Y-84510476D01*
X149022857Y-84462857D01*
X149165714Y-84462857D01*
X149260952Y-84510476D01*
X149308571Y-84558095D01*
X149356190Y-84653333D01*
X149356190Y-85034285D01*
X149165714Y-83605714D02*
X149832380Y-83605714D01*
X148784761Y-83843809D02*
X149499047Y-84081904D01*
X149499047Y-83462857D01*
X149832380Y-82558095D02*
X149832380Y-83129523D01*
X149832380Y-82843809D02*
X148832380Y-82843809D01*
X148975238Y-82939047D01*
X149070476Y-83034285D01*
X149118095Y-83129523D01*
X172057380Y-84462857D02*
X171581190Y-84796190D01*
X172057380Y-85034285D02*
X171057380Y-85034285D01*
X171057380Y-84653333D01*
X171105000Y-84558095D01*
X171152619Y-84510476D01*
X171247857Y-84462857D01*
X171390714Y-84462857D01*
X171485952Y-84510476D01*
X171533571Y-84558095D01*
X171581190Y-84653333D01*
X171581190Y-85034285D01*
X171390714Y-83605714D02*
X172057380Y-83605714D01*
X171009761Y-83843809D02*
X171724047Y-84081904D01*
X171724047Y-83462857D01*
X171152619Y-83129523D02*
X171105000Y-83081904D01*
X171057380Y-82986666D01*
X171057380Y-82748571D01*
X171105000Y-82653333D01*
X171152619Y-82605714D01*
X171247857Y-82558095D01*
X171343095Y-82558095D01*
X171485952Y-82605714D01*
X172057380Y-83177142D01*
X172057380Y-82558095D01*
X177137380Y-84462857D02*
X176661190Y-84796190D01*
X177137380Y-85034285D02*
X176137380Y-85034285D01*
X176137380Y-84653333D01*
X176185000Y-84558095D01*
X176232619Y-84510476D01*
X176327857Y-84462857D01*
X176470714Y-84462857D01*
X176565952Y-84510476D01*
X176613571Y-84558095D01*
X176661190Y-84653333D01*
X176661190Y-85034285D01*
X176470714Y-83605714D02*
X177137380Y-83605714D01*
X176089761Y-83843809D02*
X176804047Y-84081904D01*
X176804047Y-83462857D01*
X176137380Y-83177142D02*
X176137380Y-82558095D01*
X176518333Y-82891428D01*
X176518333Y-82748571D01*
X176565952Y-82653333D01*
X176613571Y-82605714D01*
X176708809Y-82558095D01*
X176946904Y-82558095D01*
X177042142Y-82605714D01*
X177089761Y-82653333D01*
X177137380Y-82748571D01*
X177137380Y-83034285D01*
X177089761Y-83129523D01*
X177042142Y-83177142D01*
X154912380Y-84462857D02*
X154436190Y-84796190D01*
X154912380Y-85034285D02*
X153912380Y-85034285D01*
X153912380Y-84653333D01*
X153960000Y-84558095D01*
X154007619Y-84510476D01*
X154102857Y-84462857D01*
X154245714Y-84462857D01*
X154340952Y-84510476D01*
X154388571Y-84558095D01*
X154436190Y-84653333D01*
X154436190Y-85034285D01*
X154245714Y-83605714D02*
X154912380Y-83605714D01*
X153864761Y-83843809D02*
X154579047Y-84081904D01*
X154579047Y-83462857D01*
X154245714Y-82653333D02*
X154912380Y-82653333D01*
X153864761Y-82891428D02*
X154579047Y-83129523D01*
X154579047Y-82510476D01*
X160627380Y-84462857D02*
X160151190Y-84796190D01*
X160627380Y-85034285D02*
X159627380Y-85034285D01*
X159627380Y-84653333D01*
X159675000Y-84558095D01*
X159722619Y-84510476D01*
X159817857Y-84462857D01*
X159960714Y-84462857D01*
X160055952Y-84510476D01*
X160103571Y-84558095D01*
X160151190Y-84653333D01*
X160151190Y-85034285D01*
X159960714Y-83605714D02*
X160627380Y-83605714D01*
X159579761Y-83843809D02*
X160294047Y-84081904D01*
X160294047Y-83462857D01*
X159627380Y-82605714D02*
X159627380Y-83081904D01*
X160103571Y-83129523D01*
X160055952Y-83081904D01*
X160008333Y-82986666D01*
X160008333Y-82748571D01*
X160055952Y-82653333D01*
X160103571Y-82605714D01*
X160198809Y-82558095D01*
X160436904Y-82558095D01*
X160532142Y-82605714D01*
X160579761Y-82653333D01*
X160627380Y-82748571D01*
X160627380Y-82986666D01*
X160579761Y-83081904D01*
X160532142Y-83129523D01*
X166342380Y-84462857D02*
X165866190Y-84796190D01*
X166342380Y-85034285D02*
X165342380Y-85034285D01*
X165342380Y-84653333D01*
X165390000Y-84558095D01*
X165437619Y-84510476D01*
X165532857Y-84462857D01*
X165675714Y-84462857D01*
X165770952Y-84510476D01*
X165818571Y-84558095D01*
X165866190Y-84653333D01*
X165866190Y-85034285D01*
X165675714Y-83605714D02*
X166342380Y-83605714D01*
X165294761Y-83843809D02*
X166009047Y-84081904D01*
X166009047Y-83462857D01*
X165342380Y-82653333D02*
X165342380Y-82843809D01*
X165390000Y-82939047D01*
X165437619Y-82986666D01*
X165580476Y-83081904D01*
X165770952Y-83129523D01*
X166151904Y-83129523D01*
X166247142Y-83081904D01*
X166294761Y-83034285D01*
X166342380Y-82939047D01*
X166342380Y-82748571D01*
X166294761Y-82653333D01*
X166247142Y-82605714D01*
X166151904Y-82558095D01*
X165913809Y-82558095D01*
X165818571Y-82605714D01*
X165770952Y-82653333D01*
X165723333Y-82748571D01*
X165723333Y-82939047D01*
X165770952Y-83034285D01*
X165818571Y-83081904D01*
X165913809Y-83129523D01*
X39399661Y-86294280D02*
X39066328Y-85818090D01*
X38828233Y-86294280D02*
X38828233Y-85294280D01*
X39209185Y-85294280D01*
X39304423Y-85341900D01*
X39352042Y-85389519D01*
X39399661Y-85484757D01*
X39399661Y-85627614D01*
X39352042Y-85722852D01*
X39304423Y-85770471D01*
X39209185Y-85818090D01*
X38828233Y-85818090D01*
X39685376Y-85294280D02*
X40018709Y-86294280D01*
X40352042Y-85294280D01*
X41209185Y-86294280D02*
X40637757Y-86294280D01*
X40923471Y-86294280D02*
X40923471Y-85294280D01*
X40828233Y-85437138D01*
X40732995Y-85532376D01*
X40637757Y-85579995D01*
X172176666Y-102794761D02*
X172319523Y-102842380D01*
X172557619Y-102842380D01*
X172652857Y-102794761D01*
X172700476Y-102747142D01*
X172748095Y-102651904D01*
X172748095Y-102556666D01*
X172700476Y-102461428D01*
X172652857Y-102413809D01*
X172557619Y-102366190D01*
X172367142Y-102318571D01*
X172271904Y-102270952D01*
X172224285Y-102223333D01*
X172176666Y-102128095D01*
X172176666Y-102032857D01*
X172224285Y-101937619D01*
X172271904Y-101890000D01*
X172367142Y-101842380D01*
X172605238Y-101842380D01*
X172748095Y-101890000D01*
X173081428Y-101842380D02*
X173319523Y-102842380D01*
X173510000Y-102128095D01*
X173700476Y-102842380D01*
X173938571Y-101842380D01*
X174843333Y-102842380D02*
X174271904Y-102842380D01*
X174557619Y-102842380D02*
X174557619Y-101842380D01*
X174462380Y-101985238D01*
X174367142Y-102080476D01*
X174271904Y-102128095D01*
X80673095Y-80252380D02*
X81244523Y-80252380D01*
X80958809Y-81252380D02*
X80958809Y-80252380D01*
X82101666Y-81252380D02*
X81530238Y-81252380D01*
X81815952Y-81252380D02*
X81815952Y-80252380D01*
X81720714Y-80395238D01*
X81625476Y-80490476D01*
X81530238Y-80538095D01*
X75593095Y-69457380D02*
X75593095Y-70266904D01*
X75640714Y-70362142D01*
X75688333Y-70409761D01*
X75783571Y-70457380D01*
X75974047Y-70457380D01*
X76069285Y-70409761D01*
X76116904Y-70362142D01*
X76164523Y-70266904D01*
X76164523Y-69457380D01*
X77164523Y-70457380D02*
X76593095Y-70457380D01*
X76878809Y-70457380D02*
X76878809Y-69457380D01*
X76783571Y-69600238D01*
X76688333Y-69695476D01*
X76593095Y-69743095D01*
X52733095Y-69457380D02*
X52733095Y-70266904D01*
X52780714Y-70362142D01*
X52828333Y-70409761D01*
X52923571Y-70457380D01*
X53114047Y-70457380D01*
X53209285Y-70409761D01*
X53256904Y-70362142D01*
X53304523Y-70266904D01*
X53304523Y-69457380D01*
X53733095Y-69552619D02*
X53780714Y-69505000D01*
X53875952Y-69457380D01*
X54114047Y-69457380D01*
X54209285Y-69505000D01*
X54256904Y-69552619D01*
X54304523Y-69647857D01*
X54304523Y-69743095D01*
X54256904Y-69885952D01*
X53685476Y-70457380D01*
X54304523Y-70457380D01*
X43053095Y-101842380D02*
X43053095Y-102651904D01*
X43100714Y-102747142D01*
X43148333Y-102794761D01*
X43243571Y-102842380D01*
X43434047Y-102842380D01*
X43529285Y-102794761D01*
X43576904Y-102747142D01*
X43624523Y-102651904D01*
X43624523Y-101842380D01*
X44529285Y-102175714D02*
X44529285Y-102842380D01*
X44291190Y-101794761D02*
X44053095Y-102509047D01*
X44672142Y-102509047D01*
X98453095Y-69457380D02*
X98453095Y-70266904D01*
X98500714Y-70362142D01*
X98548333Y-70409761D01*
X98643571Y-70457380D01*
X98834047Y-70457380D01*
X98929285Y-70409761D01*
X98976904Y-70362142D01*
X99024523Y-70266904D01*
X99024523Y-69457380D01*
X99976904Y-69457380D02*
X99500714Y-69457380D01*
X99453095Y-69933571D01*
X99500714Y-69885952D01*
X99595952Y-69838333D01*
X99834047Y-69838333D01*
X99929285Y-69885952D01*
X99976904Y-69933571D01*
X100024523Y-70028809D01*
X100024523Y-70266904D01*
X99976904Y-70362142D01*
X99929285Y-70409761D01*
X99834047Y-70457380D01*
X99595952Y-70457380D01*
X99500714Y-70409761D01*
X99453095Y-70362142D01*
X144808095Y-69457380D02*
X144808095Y-70266904D01*
X144855714Y-70362142D01*
X144903333Y-70409761D01*
X144998571Y-70457380D01*
X145189047Y-70457380D01*
X145284285Y-70409761D01*
X145331904Y-70362142D01*
X145379523Y-70266904D01*
X145379523Y-69457380D01*
X146284285Y-69457380D02*
X146093809Y-69457380D01*
X145998571Y-69505000D01*
X145950952Y-69552619D01*
X145855714Y-69695476D01*
X145808095Y-69885952D01*
X145808095Y-70266904D01*
X145855714Y-70362142D01*
X145903333Y-70409761D01*
X145998571Y-70457380D01*
X146189047Y-70457380D01*
X146284285Y-70409761D01*
X146331904Y-70362142D01*
X146379523Y-70266904D01*
X146379523Y-70028809D01*
X146331904Y-69933571D01*
X146284285Y-69885952D01*
X146189047Y-69838333D01*
X145998571Y-69838333D01*
X145903333Y-69885952D01*
X145855714Y-69933571D01*
X145808095Y-70028809D01*
%LPC*%
D14*
X167795000Y-120805000D03*
G36*
G01*
X175295000Y-119805000D02*
X175295000Y-121805000D01*
G75*
G02*
X174545000Y-122555000I-750000J0D01*
G01*
X173045000Y-122555000D01*
G75*
G02*
X172295000Y-121805000I0J750000D01*
G01*
X172295000Y-119805000D01*
G75*
G02*
X173045000Y-119055000I750000J0D01*
G01*
X174545000Y-119055000D01*
G75*
G02*
X175295000Y-119805000I0J-750000D01*
G01*
G37*
G36*
G01*
X172545000Y-115230000D02*
X172545000Y-116980000D01*
G75*
G02*
X171670000Y-117855000I-875000J0D01*
G01*
X169920000Y-117855000D01*
G75*
G02*
X169045000Y-116980000I0J875000D01*
G01*
X169045000Y-115230000D01*
G75*
G02*
X169920000Y-114355000I875000J0D01*
G01*
X171670000Y-114355000D01*
G75*
G02*
X172545000Y-115230000I0J-875000D01*
G01*
G37*
D15*
X121440000Y-67465000D03*
X103660000Y-59845000D03*
X118900000Y-67465000D03*
X106200000Y-59845000D03*
X116360000Y-67465000D03*
X108740000Y-59845000D03*
X113820000Y-67465000D03*
X111280000Y-59845000D03*
X111280000Y-67465000D03*
X113820000Y-59845000D03*
X108740000Y-67465000D03*
X116360000Y-59845000D03*
X106200000Y-67465000D03*
X118900000Y-59845000D03*
X103660000Y-67465000D03*
D16*
X121440000Y-59845000D03*
D17*
X39525000Y-119535000D03*
D15*
X49685000Y-119535000D03*
D18*
X59210000Y-89055000D03*
X59210000Y-83975000D03*
D19*
X69370000Y-89055000D03*
D18*
X69370000Y-83975000D03*
D16*
X150015000Y-100485000D03*
D15*
X116995000Y-115725000D03*
X147475000Y-100485000D03*
X119535000Y-115725000D03*
X144935000Y-100485000D03*
X122075000Y-115725000D03*
X142395000Y-100485000D03*
X124615000Y-115725000D03*
X139855000Y-100485000D03*
X127155000Y-115725000D03*
X137315000Y-100485000D03*
X129695000Y-115725000D03*
X134775000Y-100485000D03*
X132235000Y-115725000D03*
X132235000Y-100485000D03*
X134775000Y-115725000D03*
X129695000Y-100485000D03*
X137315000Y-115725000D03*
X127155000Y-100485000D03*
X139855000Y-115725000D03*
X124615000Y-100485000D03*
X142395000Y-115725000D03*
X122075000Y-100485000D03*
X144935000Y-115725000D03*
X119535000Y-100485000D03*
X147475000Y-115725000D03*
X116995000Y-100485000D03*
X150015000Y-115725000D03*
X114455000Y-100485000D03*
X114455000Y-115725000D03*
D17*
X36830000Y-105085000D03*
X34330000Y-105085000D03*
X40005000Y-115880000D03*
X42505000Y-115880000D03*
X51590000Y-110050000D03*
X51590000Y-112550000D03*
X36830000Y-108105000D03*
X34330000Y-108105000D03*
D20*
X177915000Y-33255000D03*
X175415000Y-33255000D03*
X177915000Y-43255000D03*
X175415000Y-43255000D03*
X170415000Y-38255000D03*
D21*
X170415000Y-33255000D03*
X170415000Y-35755000D03*
X170415000Y-40755000D03*
X170415000Y-43255000D03*
D22*
X175415000Y-38255000D03*
X175415000Y-52860000D03*
D21*
X170415000Y-57860000D03*
X170415000Y-55360000D03*
X170415000Y-50360000D03*
X170415000Y-47860000D03*
D20*
X170415000Y-52860000D03*
X175415000Y-57860000D03*
X177915000Y-57860000D03*
X175415000Y-47860000D03*
X177915000Y-47860000D03*
D18*
X74269914Y-40900000D03*
X71729914Y-40900000D03*
X76809914Y-40900000D03*
X79349914Y-40900000D03*
X81889914Y-40900000D03*
X69189914Y-40900000D03*
X66649914Y-40900000D03*
X64109914Y-40900000D03*
X74269914Y-38360000D03*
X76809914Y-38360000D03*
X71729914Y-38360000D03*
X79349914Y-38360000D03*
X81889914Y-38360000D03*
X69189914Y-38360000D03*
X66649914Y-38360000D03*
D19*
X64109914Y-38360000D03*
D18*
X106270000Y-40900000D03*
X103730000Y-40900000D03*
X108810000Y-40900000D03*
X111350000Y-40900000D03*
X113890000Y-40900000D03*
X101190000Y-40900000D03*
X98650000Y-40900000D03*
X96110000Y-40900000D03*
X106270000Y-38360000D03*
X108810000Y-38360000D03*
X103730000Y-38360000D03*
X111350000Y-38360000D03*
X113890000Y-38360000D03*
X101190000Y-38360000D03*
X98650000Y-38360000D03*
D19*
X96110000Y-38360000D03*
X128110086Y-38360000D03*
D18*
X130650086Y-38360000D03*
X133190086Y-38360000D03*
X145890086Y-38360000D03*
X143350086Y-38360000D03*
X135730086Y-38360000D03*
X140810086Y-38360000D03*
X138270086Y-38360000D03*
X128110086Y-40900000D03*
X130650086Y-40900000D03*
X133190086Y-40900000D03*
X145890086Y-40900000D03*
X143350086Y-40900000D03*
X140810086Y-40900000D03*
X135730086Y-40900000D03*
X138270086Y-40900000D03*
G36*
G01*
X61105001Y-109975000D02*
X59854999Y-109975000D01*
G75*
G02*
X59605000Y-109725001I0J249999D01*
G01*
X59605000Y-109024999D01*
G75*
G02*
X59854999Y-108775000I249999J0D01*
G01*
X61105001Y-108775000D01*
G75*
G02*
X61355000Y-109024999I0J-249999D01*
G01*
X61355000Y-109725001D01*
G75*
G02*
X61105001Y-109975000I-249999J0D01*
G01*
G37*
D23*
X60480000Y-107375000D03*
D24*
X148900000Y-73660000D03*
D25*
X148900000Y-76200000D03*
X148900000Y-74930000D03*
D24*
X171125000Y-73660000D03*
D25*
X171125000Y-76200000D03*
X171125000Y-74930000D03*
X176205000Y-74930000D03*
X176205000Y-76200000D03*
D24*
X176205000Y-73660000D03*
D25*
X153980000Y-74930000D03*
X153980000Y-76200000D03*
D24*
X153980000Y-73660000D03*
X159695000Y-73660000D03*
D25*
X159695000Y-76200000D03*
X159695000Y-74930000D03*
X165410000Y-74930000D03*
X165410000Y-76200000D03*
D24*
X165410000Y-73660000D03*
D17*
X57940000Y-56035000D03*
D15*
X57940000Y-45875000D03*
X54765000Y-56035000D03*
D17*
X54765000Y-45875000D03*
D15*
X61115000Y-45875000D03*
D17*
X61115000Y-56035000D03*
D15*
X51590000Y-56035000D03*
D17*
X51590000Y-45875000D03*
X64290000Y-56035000D03*
D15*
X64290000Y-45875000D03*
D17*
X48415000Y-45875000D03*
D15*
X48415000Y-56035000D03*
X67465000Y-45875000D03*
D17*
X67465000Y-56035000D03*
D15*
X45240000Y-56035000D03*
D17*
X45240000Y-45875000D03*
X70640000Y-56035000D03*
D15*
X70640000Y-45875000D03*
D17*
X42065000Y-45875000D03*
D15*
X42065000Y-56035000D03*
X73815000Y-45875000D03*
D17*
X73815000Y-56035000D03*
D15*
X38890000Y-56035000D03*
D17*
X38890000Y-45875000D03*
X76355000Y-96675000D03*
D15*
X86515000Y-96675000D03*
X59210000Y-96675000D03*
D17*
X69370000Y-96675000D03*
X76990000Y-56035000D03*
D15*
X76990000Y-45875000D03*
D17*
X35715000Y-45875000D03*
D15*
X35715000Y-56035000D03*
X80165000Y-45875000D03*
D17*
X80165000Y-56035000D03*
D15*
X32540000Y-56035000D03*
D17*
X32540000Y-45875000D03*
X63655000Y-119535000D03*
D15*
X53495000Y-119535000D03*
X105565000Y-45875000D03*
D17*
X105565000Y-56035000D03*
X102390000Y-45875000D03*
D15*
X102390000Y-56035000D03*
D17*
X108740000Y-56035000D03*
D15*
X108740000Y-45875000D03*
D17*
X99215000Y-45875000D03*
D15*
X99215000Y-56035000D03*
D17*
X111915000Y-56035000D03*
D15*
X111915000Y-45875000D03*
D17*
X96040000Y-45875000D03*
D15*
X96040000Y-56035000D03*
X115090000Y-45875000D03*
D17*
X115090000Y-56035000D03*
D15*
X92865000Y-56035000D03*
D17*
X92865000Y-45875000D03*
D15*
X118265000Y-45875000D03*
D17*
X118265000Y-56035000D03*
D15*
X89690000Y-56035000D03*
D17*
X89690000Y-45875000D03*
X121440000Y-56035000D03*
D15*
X121440000Y-45875000D03*
X86515000Y-56035000D03*
D17*
X86515000Y-45875000D03*
D15*
X124615000Y-45875000D03*
D17*
X124615000Y-56035000D03*
X83340000Y-45875000D03*
D15*
X83340000Y-56035000D03*
X130965000Y-45875000D03*
D17*
X130965000Y-56035000D03*
D15*
X127790000Y-56035000D03*
D17*
X127790000Y-45875000D03*
X134140000Y-56035000D03*
D15*
X134140000Y-45875000D03*
D17*
X137315000Y-45875000D03*
D15*
X137315000Y-56035000D03*
X140490000Y-45875000D03*
D17*
X140490000Y-56035000D03*
D15*
X143665000Y-56035000D03*
D17*
X143665000Y-45875000D03*
X149535000Y-78740000D03*
D15*
X149535000Y-88900000D03*
X171760000Y-88900000D03*
D17*
X171760000Y-78740000D03*
X176840000Y-78740000D03*
D15*
X176840000Y-88900000D03*
D17*
X154615000Y-78740000D03*
D15*
X154615000Y-88900000D03*
X160330000Y-88900000D03*
D17*
X160330000Y-78740000D03*
X166045000Y-78740000D03*
D15*
X166045000Y-88900000D03*
D26*
X42494900Y-79999900D03*
X42494900Y-77499900D03*
X42494900Y-82499900D03*
X44994900Y-77499900D03*
X44994900Y-79999900D03*
X44994900Y-82499900D03*
X37494900Y-82499900D03*
X34994900Y-77499900D03*
X34994900Y-79999900D03*
X37494900Y-79999900D03*
X34994900Y-82499900D03*
X37494900Y-77499900D03*
D27*
X165890000Y-108740000D03*
X162080000Y-108740000D03*
X158270000Y-108740000D03*
D28*
X178590000Y-111280000D03*
X178590000Y-106200000D03*
D18*
X86515000Y-83975000D03*
D19*
X86515000Y-89055000D03*
D18*
X76355000Y-83975000D03*
X76355000Y-89055000D03*
D16*
X75720000Y-59845000D03*
D15*
X57940000Y-67465000D03*
X73180000Y-59845000D03*
X60480000Y-67465000D03*
X70640000Y-59845000D03*
X63020000Y-67465000D03*
X68100000Y-59845000D03*
X65560000Y-67465000D03*
X65560000Y-59845000D03*
X68100000Y-67465000D03*
X63020000Y-59845000D03*
X70640000Y-67465000D03*
X60480000Y-59845000D03*
X73180000Y-67465000D03*
X57940000Y-59845000D03*
X75720000Y-67465000D03*
X52860000Y-67465000D03*
X35080000Y-59845000D03*
X50320000Y-67465000D03*
X37620000Y-59845000D03*
X47780000Y-67465000D03*
X40160000Y-59845000D03*
X45240000Y-67465000D03*
X42700000Y-59845000D03*
X42700000Y-67465000D03*
X45240000Y-59845000D03*
X40160000Y-67465000D03*
X47780000Y-59845000D03*
X37620000Y-67465000D03*
X50320000Y-59845000D03*
X35080000Y-67465000D03*
D16*
X52860000Y-59845000D03*
X47625000Y-112705000D03*
D15*
X40005000Y-105085000D03*
X47625000Y-110165000D03*
X40005000Y-107625000D03*
X47625000Y-107625000D03*
X40005000Y-110165000D03*
X47625000Y-105085000D03*
X40005000Y-112705000D03*
D16*
X98580000Y-59845000D03*
D15*
X80800000Y-67465000D03*
X96040000Y-59845000D03*
X83340000Y-67465000D03*
X93500000Y-59845000D03*
X85880000Y-67465000D03*
X90960000Y-59845000D03*
X88420000Y-67465000D03*
X88420000Y-59845000D03*
X90960000Y-67465000D03*
X85880000Y-59845000D03*
X93500000Y-67465000D03*
X83340000Y-59845000D03*
X96040000Y-67465000D03*
X80800000Y-59845000D03*
X98580000Y-67465000D03*
D16*
X144935000Y-59845000D03*
D15*
X127155000Y-67465000D03*
X142395000Y-59845000D03*
X129695000Y-67465000D03*
X139855000Y-59845000D03*
X132235000Y-67465000D03*
X137315000Y-59845000D03*
X134775000Y-67465000D03*
X134775000Y-59845000D03*
X137315000Y-67465000D03*
X132235000Y-59845000D03*
X139855000Y-67465000D03*
X129695000Y-59845000D03*
X142395000Y-67465000D03*
X127155000Y-59845000D03*
X144935000Y-67465000D03*
M02*
