%FSLAX45Y45*%
G04 Gerber Fmt 4.5, Leading zero omitted, Abs format (unit mm)*
G04 Created by KiCad (PCBNEW (5.1.9)-1) date 2023-03-31 17:31:45*
%MOMM*%
%LPD*%
G01*
G04 APERTURE LIST*
%TA.AperFunction,Profile*%
%ADD10C,0.025400*%
%TD*%
%TA.AperFunction,Profile*%
%ADD11C,0.025000*%
%TD*%
%ADD12C,0.200000*%
%ADD13C,0.300000*%
G04 APERTURE END LIST*
D10*
X3000000Y-13000000D02*
X18000000Y-13000000D01*
D11*
X3000000Y-3000000D02*
X18000000Y-3000000D01*
D10*
X18000000Y-3000000D02*
X18000000Y-13000000D01*
X3000000Y-3000000D02*
X3000000Y-13000000D01*
D12*
X3932500Y-8949000D02*
X3972500Y-8989000D01*
X3972500Y-8949000D02*
X3932500Y-8989000D01*
X5266000Y-7044000D02*
X5306000Y-7084000D01*
X5306000Y-7044000D02*
X5266000Y-7084000D01*
X7044000Y-7298000D02*
X7084000Y-7338000D01*
X7084000Y-7298000D02*
X7044000Y-7338000D01*
X7552000Y-7044000D02*
X7592000Y-7084000D01*
X7592000Y-7044000D02*
X7552000Y-7084000D01*
X9838000Y-7044000D02*
X9878000Y-7084000D01*
X9878000Y-7044000D02*
X9838000Y-7084000D01*
X11171500Y-7171000D02*
X11211500Y-7211000D01*
X11211500Y-7171000D02*
X11171500Y-7211000D01*
X11171500Y-7615500D02*
X11211500Y-7655500D01*
X11211500Y-7615500D02*
X11171500Y-7655500D01*
X11362000Y-7171000D02*
X11402000Y-7211000D01*
X11402000Y-7171000D02*
X11362000Y-7211000D01*
X11362000Y-7615500D02*
X11402000Y-7655500D01*
X11402000Y-7615500D02*
X11362000Y-7655500D01*
X11552500Y-7171000D02*
X11592500Y-7211000D01*
X11592500Y-7171000D02*
X11552500Y-7211000D01*
X11552500Y-7615500D02*
X11592500Y-7655500D01*
X11592500Y-7615500D02*
X11552500Y-7655500D01*
X12124000Y-7044000D02*
X12164000Y-7084000D01*
X12164000Y-7044000D02*
X12124000Y-7084000D01*
X16188000Y-4758000D02*
X16228000Y-4798000D01*
X16228000Y-4758000D02*
X16188000Y-4798000D01*
X16696000Y-5964500D02*
X16736000Y-6004500D01*
X16736000Y-5964500D02*
X16696000Y-6004500D01*
X17066900Y-3325500D02*
G75*
G03*
X17066900Y-3325500I-25400J0D01*
G01*
X17016100Y-3340900D02*
X17066900Y-3340900D01*
X17016100Y-3310100D02*
X17066900Y-3310100D01*
X17066900Y-3340900D02*
G75*
G03*
X17066900Y-3310100I0J15400D01*
G01*
X17016100Y-3310100D02*
G75*
G03*
X17016100Y-3340900I0J-15400D01*
G01*
X17066900Y-3575500D02*
G75*
G03*
X17066900Y-3575500I-25400J0D01*
G01*
X17016100Y-3590900D02*
X17066900Y-3590900D01*
X17016100Y-3560100D02*
X17066900Y-3560100D01*
X17066900Y-3590900D02*
G75*
G03*
X17066900Y-3560100I0J15400D01*
G01*
X17016100Y-3560100D02*
G75*
G03*
X17016100Y-3590900I0J-15400D01*
G01*
X17066900Y-4075500D02*
G75*
G03*
X17066900Y-4075500I-25400J0D01*
G01*
X17016100Y-4090900D02*
X17066900Y-4090900D01*
X17016100Y-4060100D02*
X17066900Y-4060100D01*
X17066900Y-4090900D02*
G75*
G03*
X17066900Y-4060100I0J15400D01*
G01*
X17016100Y-4060100D02*
G75*
G03*
X17016100Y-4090900I0J-15400D01*
G01*
X17066900Y-4325500D02*
G75*
G03*
X17066900Y-4325500I-25400J0D01*
G01*
X17016100Y-4340900D02*
X17066900Y-4340900D01*
X17016100Y-4310100D02*
X17066900Y-4310100D01*
X17066900Y-4340900D02*
G75*
G03*
X17066900Y-4310100I0J15400D01*
G01*
X17016100Y-4310100D02*
G75*
G03*
X17016100Y-4340900I0J-15400D01*
G01*
X17066900Y-4786000D02*
G75*
G03*
X17066900Y-4786000I-25400J0D01*
G01*
X17016100Y-4801400D02*
X17066900Y-4801400D01*
X17016100Y-4770600D02*
X17066900Y-4770600D01*
X17066900Y-4801400D02*
G75*
G03*
X17066900Y-4770600I0J15400D01*
G01*
X17016100Y-4770600D02*
G75*
G03*
X17016100Y-4801400I0J-15400D01*
G01*
X17066900Y-5036000D02*
G75*
G03*
X17066900Y-5036000I-25400J0D01*
G01*
X17016100Y-5051400D02*
X17066900Y-5051400D01*
X17016100Y-5020600D02*
X17066900Y-5020600D01*
X17066900Y-5051400D02*
G75*
G03*
X17066900Y-5020600I0J15400D01*
G01*
X17016100Y-5020600D02*
G75*
G03*
X17016100Y-5051400I0J-15400D01*
G01*
X17066900Y-5536000D02*
G75*
G03*
X17066900Y-5536000I-25400J0D01*
G01*
X17016100Y-5551400D02*
X17066900Y-5551400D01*
X17016100Y-5520600D02*
X17066900Y-5520600D01*
X17066900Y-5551400D02*
G75*
G03*
X17066900Y-5520600I0J15400D01*
G01*
X17016100Y-5520600D02*
G75*
G03*
X17016100Y-5551400I0J-15400D01*
G01*
X17066900Y-5786000D02*
G75*
G03*
X17066900Y-5786000I-25400J0D01*
G01*
X17016100Y-5801400D02*
X17066900Y-5801400D01*
X17016100Y-5770600D02*
X17066900Y-5770600D01*
X17066900Y-5801400D02*
G75*
G03*
X17066900Y-5770600I0J15400D01*
G01*
X17016100Y-5770600D02*
G75*
G03*
X17016100Y-5801400I0J-15400D01*
G01*
X17566900Y-3825500D02*
G75*
G03*
X17566900Y-3825500I-25400J0D01*
G01*
X17526100Y-3800100D02*
X17526100Y-3850900D01*
X17556900Y-3800100D02*
X17556900Y-3850900D01*
X17526100Y-3850900D02*
G75*
G03*
X17556900Y-3850900I15400J0D01*
G01*
X17556900Y-3800100D02*
G75*
G03*
X17526100Y-3800100I-15400J0D01*
G01*
X17566900Y-5286000D02*
G75*
G03*
X17566900Y-5286000I-25400J0D01*
G01*
X17526100Y-5260600D02*
X17526100Y-5311400D01*
X17556900Y-5260600D02*
X17556900Y-5311400D01*
X17526100Y-5311400D02*
G75*
G03*
X17556900Y-5311400I15400J0D01*
G01*
X17556900Y-5260600D02*
G75*
G03*
X17526100Y-5260600I-15400J0D01*
G01*
X6048000Y-10700000D02*
X6048000Y-10775000D01*
X6010500Y-10737500D02*
X6085500Y-10737500D01*
X6048000Y-10900000D02*
X6048000Y-10975000D01*
X6010500Y-10937500D02*
X6085500Y-10937500D01*
X14890000Y-7328500D02*
X14890000Y-7403500D01*
X14852500Y-7366000D02*
X14927500Y-7366000D01*
X14890000Y-7455500D02*
X14890000Y-7530500D01*
X14852500Y-7493000D02*
X14927500Y-7493000D01*
X14890000Y-7582500D02*
X14890000Y-7657500D01*
X14852500Y-7620000D02*
X14927500Y-7620000D01*
X15398000Y-7328500D02*
X15398000Y-7403500D01*
X15360500Y-7366000D02*
X15435500Y-7366000D01*
X15398000Y-7455500D02*
X15398000Y-7530500D01*
X15360500Y-7493000D02*
X15435500Y-7493000D01*
X15398000Y-7582500D02*
X15398000Y-7657500D01*
X15360500Y-7620000D02*
X15435500Y-7620000D01*
X15969500Y-7328500D02*
X15969500Y-7403500D01*
X15932000Y-7366000D02*
X16007000Y-7366000D01*
X15969500Y-7455500D02*
X15969500Y-7530500D01*
X15932000Y-7493000D02*
X16007000Y-7493000D01*
X15969500Y-7582500D02*
X15969500Y-7657500D01*
X15932000Y-7620000D02*
X16007000Y-7620000D01*
X16541000Y-7328500D02*
X16541000Y-7403500D01*
X16503500Y-7366000D02*
X16578500Y-7366000D01*
X16541000Y-7455500D02*
X16541000Y-7530500D01*
X16503500Y-7493000D02*
X16578500Y-7493000D01*
X16541000Y-7582500D02*
X16541000Y-7657500D01*
X16503500Y-7620000D02*
X16578500Y-7620000D01*
X17112500Y-7328500D02*
X17112500Y-7403500D01*
X17075000Y-7366000D02*
X17150000Y-7366000D01*
X17112500Y-7455500D02*
X17112500Y-7530500D01*
X17075000Y-7493000D02*
X17150000Y-7493000D01*
X17112500Y-7582500D02*
X17112500Y-7657500D01*
X17075000Y-7620000D02*
X17150000Y-7620000D01*
X17620500Y-7328500D02*
X17620500Y-7403500D01*
X17583000Y-7366000D02*
X17658000Y-7366000D01*
X17620500Y-7455500D02*
X17620500Y-7530500D01*
X17583000Y-7493000D02*
X17658000Y-7493000D01*
X17620500Y-7582500D02*
X17620500Y-7657500D01*
X17583000Y-7620000D02*
X17658000Y-7620000D01*
X5947941Y-8424441D02*
X5947941Y-8370559D01*
X5894059Y-8370559D01*
X5894059Y-8424441D01*
X5947941Y-8424441D01*
X5947941Y-8932441D02*
X5947941Y-8878559D01*
X5894059Y-8878559D01*
X5894059Y-8932441D01*
X5947941Y-8932441D01*
X6437932Y-3862941D02*
X6437932Y-3809059D01*
X6384050Y-3809059D01*
X6384050Y-3862941D01*
X6437932Y-3862941D01*
X6437932Y-4116941D02*
X6437932Y-4063059D01*
X6384050Y-4063059D01*
X6384050Y-4116941D01*
X6437932Y-4116941D01*
X6691932Y-3862941D02*
X6691932Y-3809059D01*
X6638050Y-3809059D01*
X6638050Y-3862941D01*
X6691932Y-3862941D01*
X6691932Y-4116941D02*
X6691932Y-4063059D01*
X6638050Y-4063059D01*
X6638050Y-4116941D01*
X6691932Y-4116941D01*
X6945932Y-3862941D02*
X6945932Y-3809059D01*
X6892050Y-3809059D01*
X6892050Y-3862941D01*
X6945932Y-3862941D01*
X6945932Y-4116941D02*
X6945932Y-4063059D01*
X6892050Y-4063059D01*
X6892050Y-4116941D01*
X6945932Y-4116941D01*
X6963941Y-8424441D02*
X6963941Y-8370559D01*
X6910059Y-8370559D01*
X6910059Y-8424441D01*
X6963941Y-8424441D01*
X6963941Y-8932441D02*
X6963941Y-8878559D01*
X6910059Y-8878559D01*
X6910059Y-8932441D01*
X6963941Y-8932441D01*
X7199932Y-3862941D02*
X7199932Y-3809059D01*
X7146050Y-3809059D01*
X7146050Y-3862941D01*
X7199932Y-3862941D01*
X7199932Y-4116941D02*
X7199932Y-4063059D01*
X7146050Y-4063059D01*
X7146050Y-4116941D01*
X7199932Y-4116941D01*
X7453932Y-3862941D02*
X7453932Y-3809059D01*
X7400050Y-3809059D01*
X7400050Y-3862941D01*
X7453932Y-3862941D01*
X7453932Y-4116941D02*
X7453932Y-4063059D01*
X7400050Y-4063059D01*
X7400050Y-4116941D01*
X7453932Y-4116941D01*
X7662441Y-8424441D02*
X7662441Y-8370559D01*
X7608559Y-8370559D01*
X7608559Y-8424441D01*
X7662441Y-8424441D01*
X7662441Y-8932441D02*
X7662441Y-8878559D01*
X7608559Y-8878559D01*
X7608559Y-8932441D01*
X7662441Y-8932441D01*
X7707932Y-3862941D02*
X7707932Y-3809059D01*
X7654050Y-3809059D01*
X7654050Y-3862941D01*
X7707932Y-3862941D01*
X7707932Y-4116941D02*
X7707932Y-4063059D01*
X7654050Y-4063059D01*
X7654050Y-4116941D01*
X7707932Y-4116941D01*
X7961932Y-3862941D02*
X7961932Y-3809059D01*
X7908050Y-3809059D01*
X7908050Y-3862941D01*
X7961932Y-3862941D01*
X7961932Y-4116941D02*
X7961932Y-4063059D01*
X7908050Y-4063059D01*
X7908050Y-4116941D01*
X7961932Y-4116941D01*
X8215932Y-3862941D02*
X8215932Y-3809059D01*
X8162050Y-3809059D01*
X8162050Y-3862941D01*
X8215932Y-3862941D01*
X8215932Y-4116941D02*
X8215932Y-4063059D01*
X8162050Y-4063059D01*
X8162050Y-4116941D01*
X8215932Y-4116941D01*
X8678441Y-8424441D02*
X8678441Y-8370559D01*
X8624559Y-8370559D01*
X8624559Y-8424441D01*
X8678441Y-8424441D01*
X8678441Y-8932441D02*
X8678441Y-8878559D01*
X8624559Y-8878559D01*
X8624559Y-8932441D01*
X8678441Y-8932441D01*
X9637941Y-3862941D02*
X9637941Y-3809059D01*
X9584059Y-3809059D01*
X9584059Y-3862941D01*
X9637941Y-3862941D01*
X9637941Y-4116941D02*
X9637941Y-4063059D01*
X9584059Y-4063059D01*
X9584059Y-4116941D01*
X9637941Y-4116941D01*
X9891941Y-3862941D02*
X9891941Y-3809059D01*
X9838059Y-3809059D01*
X9838059Y-3862941D01*
X9891941Y-3862941D01*
X9891941Y-4116941D02*
X9891941Y-4063059D01*
X9838059Y-4063059D01*
X9838059Y-4116941D01*
X9891941Y-4116941D01*
X10145941Y-3862941D02*
X10145941Y-3809059D01*
X10092059Y-3809059D01*
X10092059Y-3862941D01*
X10145941Y-3862941D01*
X10145941Y-4116941D02*
X10145941Y-4063059D01*
X10092059Y-4063059D01*
X10092059Y-4116941D01*
X10145941Y-4116941D01*
X10399941Y-3862941D02*
X10399941Y-3809059D01*
X10346059Y-3809059D01*
X10346059Y-3862941D01*
X10399941Y-3862941D01*
X10399941Y-4116941D02*
X10399941Y-4063059D01*
X10346059Y-4063059D01*
X10346059Y-4116941D01*
X10399941Y-4116941D01*
X10653941Y-3862941D02*
X10653941Y-3809059D01*
X10600059Y-3809059D01*
X10600059Y-3862941D01*
X10653941Y-3862941D01*
X10653941Y-4116941D02*
X10653941Y-4063059D01*
X10600059Y-4063059D01*
X10600059Y-4116941D01*
X10653941Y-4116941D01*
X10907941Y-3862941D02*
X10907941Y-3809059D01*
X10854059Y-3809059D01*
X10854059Y-3862941D01*
X10907941Y-3862941D01*
X10907941Y-4116941D02*
X10907941Y-4063059D01*
X10854059Y-4063059D01*
X10854059Y-4116941D01*
X10907941Y-4116941D01*
X11161941Y-3862941D02*
X11161941Y-3809059D01*
X11108059Y-3809059D01*
X11108059Y-3862941D01*
X11161941Y-3862941D01*
X11161941Y-4116941D02*
X11161941Y-4063059D01*
X11108059Y-4063059D01*
X11108059Y-4116941D01*
X11161941Y-4116941D01*
X11415941Y-3862941D02*
X11415941Y-3809059D01*
X11362059Y-3809059D01*
X11362059Y-3862941D01*
X11415941Y-3862941D01*
X11415941Y-4116941D02*
X11415941Y-4063059D01*
X11362059Y-4063059D01*
X11362059Y-4116941D01*
X11415941Y-4116941D01*
X12837950Y-3862941D02*
X12837950Y-3809059D01*
X12784068Y-3809059D01*
X12784068Y-3862941D01*
X12837950Y-3862941D01*
X12837950Y-4116941D02*
X12837950Y-4063059D01*
X12784068Y-4063059D01*
X12784068Y-4116941D01*
X12837950Y-4116941D01*
X13091950Y-3862941D02*
X13091950Y-3809059D01*
X13038068Y-3809059D01*
X13038068Y-3862941D01*
X13091950Y-3862941D01*
X13091950Y-4116941D02*
X13091950Y-4063059D01*
X13038068Y-4063059D01*
X13038068Y-4116941D01*
X13091950Y-4116941D01*
X13345950Y-3862941D02*
X13345950Y-3809059D01*
X13292068Y-3809059D01*
X13292068Y-3862941D01*
X13345950Y-3862941D01*
X13345950Y-4116941D02*
X13345950Y-4063059D01*
X13292068Y-4063059D01*
X13292068Y-4116941D01*
X13345950Y-4116941D01*
X13599950Y-3862941D02*
X13599950Y-3809059D01*
X13546068Y-3809059D01*
X13546068Y-3862941D01*
X13599950Y-3862941D01*
X13599950Y-4116941D02*
X13599950Y-4063059D01*
X13546068Y-4063059D01*
X13546068Y-4116941D01*
X13599950Y-4116941D01*
X13853950Y-3862941D02*
X13853950Y-3809059D01*
X13800068Y-3809059D01*
X13800068Y-3862941D01*
X13853950Y-3862941D01*
X13853950Y-4116941D02*
X13853950Y-4063059D01*
X13800068Y-4063059D01*
X13800068Y-4116941D01*
X13853950Y-4116941D01*
X14107950Y-3862941D02*
X14107950Y-3809059D01*
X14054068Y-3809059D01*
X14054068Y-3862941D01*
X14107950Y-3862941D01*
X14107950Y-4116941D02*
X14107950Y-4063059D01*
X14054068Y-4063059D01*
X14054068Y-4116941D01*
X14107950Y-4116941D01*
X14361950Y-3862941D02*
X14361950Y-3809059D01*
X14308068Y-3809059D01*
X14308068Y-3862941D01*
X14361950Y-3862941D01*
X14361950Y-4116941D02*
X14361950Y-4063059D01*
X14308068Y-4063059D01*
X14308068Y-4116941D01*
X14361950Y-4116941D01*
X14615950Y-3862941D02*
X14615950Y-3809059D01*
X14562068Y-3809059D01*
X14562068Y-3862941D01*
X14615950Y-3862941D01*
X14615950Y-4116941D02*
X14615950Y-4063059D01*
X14562068Y-4063059D01*
X14562068Y-4116941D01*
X14615950Y-4116941D01*
X3254000Y-4627500D02*
X3294000Y-4587500D01*
X3254000Y-4547500D01*
X3214000Y-4587500D01*
X3254000Y-4627500D01*
X3254000Y-5643500D02*
X3294000Y-5603500D01*
X3254000Y-5563500D01*
X3214000Y-5603500D01*
X3254000Y-5643500D01*
X3433000Y-10548500D02*
X3473000Y-10508500D01*
X3433000Y-10468500D01*
X3393000Y-10508500D01*
X3433000Y-10548500D01*
X3433000Y-10850500D02*
X3473000Y-10810500D01*
X3433000Y-10770500D01*
X3393000Y-10810500D01*
X3433000Y-10850500D01*
X3508000Y-6024500D02*
X3548000Y-5984500D01*
X3508000Y-5944500D01*
X3468000Y-5984500D01*
X3508000Y-6024500D01*
X3508000Y-6786500D02*
X3548000Y-6746500D01*
X3508000Y-6706500D01*
X3468000Y-6746500D01*
X3508000Y-6786500D01*
X3571500Y-4627500D02*
X3611500Y-4587500D01*
X3571500Y-4547500D01*
X3531500Y-4587500D01*
X3571500Y-4627500D01*
X3571500Y-5643500D02*
X3611500Y-5603500D01*
X3571500Y-5563500D01*
X3531500Y-5603500D01*
X3571500Y-5643500D01*
X3683000Y-10548500D02*
X3723000Y-10508500D01*
X3683000Y-10468500D01*
X3643000Y-10508500D01*
X3683000Y-10548500D01*
X3683000Y-10850500D02*
X3723000Y-10810500D01*
X3683000Y-10770500D01*
X3643000Y-10810500D01*
X3683000Y-10850500D01*
X3762000Y-6024500D02*
X3802000Y-5984500D01*
X3762000Y-5944500D01*
X3722000Y-5984500D01*
X3762000Y-6024500D01*
X3762000Y-6786500D02*
X3802000Y-6746500D01*
X3762000Y-6706500D01*
X3722000Y-6746500D01*
X3762000Y-6786500D01*
X3889000Y-4627500D02*
X3929000Y-4587500D01*
X3889000Y-4547500D01*
X3849000Y-4587500D01*
X3889000Y-4627500D01*
X3889000Y-5643500D02*
X3929000Y-5603500D01*
X3889000Y-5563500D01*
X3849000Y-5603500D01*
X3889000Y-5643500D01*
X3952500Y-11993500D02*
X3992500Y-11953500D01*
X3952500Y-11913500D01*
X3912500Y-11953500D01*
X3952500Y-11993500D01*
X4000500Y-10548500D02*
X4040500Y-10508500D01*
X4000500Y-10468500D01*
X3960500Y-10508500D01*
X4000500Y-10548500D01*
X4000500Y-10802500D02*
X4040500Y-10762500D01*
X4000500Y-10722500D01*
X3960500Y-10762500D01*
X4000500Y-10802500D01*
X4000500Y-11056500D02*
X4040500Y-11016500D01*
X4000500Y-10976500D01*
X3960500Y-11016500D01*
X4000500Y-11056500D01*
X4000500Y-11310500D02*
X4040500Y-11270500D01*
X4000500Y-11230500D01*
X3960500Y-11270500D01*
X4000500Y-11310500D01*
X4000500Y-11628000D02*
X4040500Y-11588000D01*
X4000500Y-11548000D01*
X3960500Y-11588000D01*
X4000500Y-11628000D01*
X4016000Y-6024500D02*
X4056000Y-5984500D01*
X4016000Y-5944500D01*
X3976000Y-5984500D01*
X4016000Y-6024500D01*
X4016000Y-6786500D02*
X4056000Y-6746500D01*
X4016000Y-6706500D01*
X3976000Y-6746500D01*
X4016000Y-6786500D01*
X4206500Y-4627500D02*
X4246500Y-4587500D01*
X4206500Y-4547500D01*
X4166500Y-4587500D01*
X4206500Y-4627500D01*
X4206500Y-5643500D02*
X4246500Y-5603500D01*
X4206500Y-5563500D01*
X4166500Y-5603500D01*
X4206500Y-5643500D01*
X4250500Y-11628000D02*
X4290500Y-11588000D01*
X4250500Y-11548000D01*
X4210500Y-11588000D01*
X4250500Y-11628000D01*
X4270000Y-6024500D02*
X4310000Y-5984500D01*
X4270000Y-5944500D01*
X4230000Y-5984500D01*
X4270000Y-6024500D01*
X4270000Y-6786500D02*
X4310000Y-6746500D01*
X4270000Y-6706500D01*
X4230000Y-6746500D01*
X4270000Y-6786500D01*
X4524000Y-4627500D02*
X4564000Y-4587500D01*
X4524000Y-4547500D01*
X4484000Y-4587500D01*
X4524000Y-4627500D01*
X4524000Y-5643500D02*
X4564000Y-5603500D01*
X4524000Y-5563500D01*
X4484000Y-5603500D01*
X4524000Y-5643500D01*
X4524000Y-6024500D02*
X4564000Y-5984500D01*
X4524000Y-5944500D01*
X4484000Y-5984500D01*
X4524000Y-6024500D01*
X4524000Y-6786500D02*
X4564000Y-6746500D01*
X4524000Y-6706500D01*
X4484000Y-6746500D01*
X4524000Y-6786500D01*
X4762500Y-10548500D02*
X4802500Y-10508500D01*
X4762500Y-10468500D01*
X4722500Y-10508500D01*
X4762500Y-10548500D01*
X4762500Y-10802500D02*
X4802500Y-10762500D01*
X4762500Y-10722500D01*
X4722500Y-10762500D01*
X4762500Y-10802500D01*
X4762500Y-11056500D02*
X4802500Y-11016500D01*
X4762500Y-10976500D01*
X4722500Y-11016500D01*
X4762500Y-11056500D01*
X4762500Y-11310500D02*
X4802500Y-11270500D01*
X4762500Y-11230500D01*
X4722500Y-11270500D01*
X4762500Y-11310500D01*
X4778000Y-6024500D02*
X4818000Y-5984500D01*
X4778000Y-5944500D01*
X4738000Y-5984500D01*
X4778000Y-6024500D01*
X4778000Y-6786500D02*
X4818000Y-6746500D01*
X4778000Y-6706500D01*
X4738000Y-6746500D01*
X4778000Y-6786500D01*
X4841500Y-4627500D02*
X4881500Y-4587500D01*
X4841500Y-4547500D01*
X4801500Y-4587500D01*
X4841500Y-4627500D01*
X4841500Y-5643500D02*
X4881500Y-5603500D01*
X4841500Y-5563500D01*
X4801500Y-5603500D01*
X4841500Y-5643500D01*
X4968500Y-11993500D02*
X5008500Y-11953500D01*
X4968500Y-11913500D01*
X4928500Y-11953500D01*
X4968500Y-11993500D01*
X5032000Y-6024500D02*
X5072000Y-5984500D01*
X5032000Y-5944500D01*
X4992000Y-5984500D01*
X5032000Y-6024500D01*
X5032000Y-6786500D02*
X5072000Y-6746500D01*
X5032000Y-6706500D01*
X4992000Y-6746500D01*
X5032000Y-6786500D01*
X5159000Y-4627500D02*
X5199000Y-4587500D01*
X5159000Y-4547500D01*
X5119000Y-4587500D01*
X5159000Y-4627500D01*
X5159000Y-5643500D02*
X5199000Y-5603500D01*
X5159000Y-5563500D01*
X5119000Y-5603500D01*
X5159000Y-5643500D01*
X5159000Y-11045000D02*
X5199000Y-11005000D01*
X5159000Y-10965000D01*
X5119000Y-11005000D01*
X5159000Y-11045000D01*
X5159000Y-11295000D02*
X5199000Y-11255000D01*
X5159000Y-11215000D01*
X5119000Y-11255000D01*
X5159000Y-11295000D01*
X5286000Y-6024500D02*
X5326000Y-5984500D01*
X5286000Y-5944500D01*
X5246000Y-5984500D01*
X5286000Y-6024500D01*
X5286000Y-6786500D02*
X5326000Y-6746500D01*
X5286000Y-6706500D01*
X5246000Y-6746500D01*
X5286000Y-6786500D01*
X5349500Y-11993500D02*
X5389500Y-11953500D01*
X5349500Y-11913500D01*
X5309500Y-11953500D01*
X5349500Y-11993500D01*
X5476500Y-4627500D02*
X5516500Y-4587500D01*
X5476500Y-4547500D01*
X5436500Y-4587500D01*
X5476500Y-4627500D01*
X5476500Y-5643500D02*
X5516500Y-5603500D01*
X5476500Y-5563500D01*
X5436500Y-5603500D01*
X5476500Y-5643500D01*
X5794000Y-4627500D02*
X5834000Y-4587500D01*
X5794000Y-4547500D01*
X5754000Y-4587500D01*
X5794000Y-4627500D01*
X5794000Y-5643500D02*
X5834000Y-5603500D01*
X5794000Y-5563500D01*
X5754000Y-5603500D01*
X5794000Y-5643500D01*
X5794000Y-6024500D02*
X5834000Y-5984500D01*
X5794000Y-5944500D01*
X5754000Y-5984500D01*
X5794000Y-6024500D01*
X5794000Y-6786500D02*
X5834000Y-6746500D01*
X5794000Y-6706500D01*
X5754000Y-6746500D01*
X5794000Y-6786500D01*
X5921000Y-9707500D02*
X5961000Y-9667500D01*
X5921000Y-9627500D01*
X5881000Y-9667500D01*
X5921000Y-9707500D01*
X6048000Y-6024500D02*
X6088000Y-5984500D01*
X6048000Y-5944500D01*
X6008000Y-5984500D01*
X6048000Y-6024500D01*
X6048000Y-6786500D02*
X6088000Y-6746500D01*
X6048000Y-6706500D01*
X6008000Y-6746500D01*
X6048000Y-6786500D01*
X6111500Y-4627500D02*
X6151500Y-4587500D01*
X6111500Y-4547500D01*
X6071500Y-4587500D01*
X6111500Y-4627500D01*
X6111500Y-5643500D02*
X6151500Y-5603500D01*
X6111500Y-5563500D01*
X6071500Y-5603500D01*
X6111500Y-5643500D01*
X6302000Y-6024500D02*
X6342000Y-5984500D01*
X6302000Y-5944500D01*
X6262000Y-5984500D01*
X6302000Y-6024500D01*
X6302000Y-6786500D02*
X6342000Y-6746500D01*
X6302000Y-6706500D01*
X6262000Y-6746500D01*
X6302000Y-6786500D01*
X6365500Y-11993500D02*
X6405500Y-11953500D01*
X6365500Y-11913500D01*
X6325500Y-11953500D01*
X6365500Y-11993500D01*
X6429000Y-4627500D02*
X6469000Y-4587500D01*
X6429000Y-4547500D01*
X6389000Y-4587500D01*
X6429000Y-4627500D01*
X6429000Y-5643500D02*
X6469000Y-5603500D01*
X6429000Y-5563500D01*
X6389000Y-5603500D01*
X6429000Y-5643500D01*
X6556000Y-6024500D02*
X6596000Y-5984500D01*
X6556000Y-5944500D01*
X6516000Y-5984500D01*
X6556000Y-6024500D01*
X6556000Y-6786500D02*
X6596000Y-6746500D01*
X6556000Y-6706500D01*
X6516000Y-6746500D01*
X6556000Y-6786500D01*
X6746500Y-4627500D02*
X6786500Y-4587500D01*
X6746500Y-4547500D01*
X6706500Y-4587500D01*
X6746500Y-4627500D01*
X6746500Y-5643500D02*
X6786500Y-5603500D01*
X6746500Y-5563500D01*
X6706500Y-5603500D01*
X6746500Y-5643500D01*
X6810000Y-6024500D02*
X6850000Y-5984500D01*
X6810000Y-5944500D01*
X6770000Y-5984500D01*
X6810000Y-6024500D01*
X6810000Y-6786500D02*
X6850000Y-6746500D01*
X6810000Y-6706500D01*
X6770000Y-6746500D01*
X6810000Y-6786500D01*
X6937000Y-9707500D02*
X6977000Y-9667500D01*
X6937000Y-9627500D01*
X6897000Y-9667500D01*
X6937000Y-9707500D01*
X7064000Y-4627500D02*
X7104000Y-4587500D01*
X7064000Y-4547500D01*
X7024000Y-4587500D01*
X7064000Y-4627500D01*
X7064000Y-5643500D02*
X7104000Y-5603500D01*
X7064000Y-5563500D01*
X7024000Y-5603500D01*
X7064000Y-5643500D01*
X7064000Y-6024500D02*
X7104000Y-5984500D01*
X7064000Y-5944500D01*
X7024000Y-5984500D01*
X7064000Y-6024500D01*
X7064000Y-6786500D02*
X7104000Y-6746500D01*
X7064000Y-6706500D01*
X7024000Y-6746500D01*
X7064000Y-6786500D01*
X7318000Y-6024500D02*
X7358000Y-5984500D01*
X7318000Y-5944500D01*
X7278000Y-5984500D01*
X7318000Y-6024500D01*
X7318000Y-6786500D02*
X7358000Y-6746500D01*
X7318000Y-6706500D01*
X7278000Y-6746500D01*
X7318000Y-6786500D01*
X7381500Y-4627500D02*
X7421500Y-4587500D01*
X7381500Y-4547500D01*
X7341500Y-4587500D01*
X7381500Y-4627500D01*
X7381500Y-5643500D02*
X7421500Y-5603500D01*
X7381500Y-5563500D01*
X7341500Y-5603500D01*
X7381500Y-5643500D01*
X7572000Y-6024500D02*
X7612000Y-5984500D01*
X7572000Y-5944500D01*
X7532000Y-5984500D01*
X7572000Y-6024500D01*
X7572000Y-6786500D02*
X7612000Y-6746500D01*
X7572000Y-6706500D01*
X7532000Y-6746500D01*
X7572000Y-6786500D01*
X7635500Y-9707500D02*
X7675500Y-9667500D01*
X7635500Y-9627500D01*
X7595500Y-9667500D01*
X7635500Y-9707500D01*
X7699000Y-4627500D02*
X7739000Y-4587500D01*
X7699000Y-4547500D01*
X7659000Y-4587500D01*
X7699000Y-4627500D01*
X7699000Y-5643500D02*
X7739000Y-5603500D01*
X7699000Y-5563500D01*
X7659000Y-5603500D01*
X7699000Y-5643500D01*
X8016500Y-4627500D02*
X8056500Y-4587500D01*
X8016500Y-4547500D01*
X7976500Y-4587500D01*
X8016500Y-4627500D01*
X8016500Y-5643500D02*
X8056500Y-5603500D01*
X8016500Y-5563500D01*
X7976500Y-5603500D01*
X8016500Y-5643500D01*
X8080000Y-6024500D02*
X8120000Y-5984500D01*
X8080000Y-5944500D01*
X8040000Y-5984500D01*
X8080000Y-6024500D01*
X8080000Y-6786500D02*
X8120000Y-6746500D01*
X8080000Y-6706500D01*
X8040000Y-6746500D01*
X8080000Y-6786500D01*
X8334000Y-4627500D02*
X8374000Y-4587500D01*
X8334000Y-4547500D01*
X8294000Y-4587500D01*
X8334000Y-4627500D01*
X8334000Y-5643500D02*
X8374000Y-5603500D01*
X8334000Y-5563500D01*
X8294000Y-5603500D01*
X8334000Y-5643500D01*
X8334000Y-6024500D02*
X8374000Y-5984500D01*
X8334000Y-5944500D01*
X8294000Y-5984500D01*
X8334000Y-6024500D01*
X8334000Y-6786500D02*
X8374000Y-6746500D01*
X8334000Y-6706500D01*
X8294000Y-6746500D01*
X8334000Y-6786500D01*
X8588000Y-6024500D02*
X8628000Y-5984500D01*
X8588000Y-5944500D01*
X8548000Y-5984500D01*
X8588000Y-6024500D01*
X8588000Y-6786500D02*
X8628000Y-6746500D01*
X8588000Y-6706500D01*
X8548000Y-6746500D01*
X8588000Y-6786500D01*
X8651500Y-4627500D02*
X8691500Y-4587500D01*
X8651500Y-4547500D01*
X8611500Y-4587500D01*
X8651500Y-4627500D01*
X8651500Y-5643500D02*
X8691500Y-5603500D01*
X8651500Y-5563500D01*
X8611500Y-5603500D01*
X8651500Y-5643500D01*
X8651500Y-9707500D02*
X8691500Y-9667500D01*
X8651500Y-9627500D01*
X8611500Y-9667500D01*
X8651500Y-9707500D01*
X8842000Y-6024500D02*
X8882000Y-5984500D01*
X8842000Y-5944500D01*
X8802000Y-5984500D01*
X8842000Y-6024500D01*
X8842000Y-6786500D02*
X8882000Y-6746500D01*
X8842000Y-6706500D01*
X8802000Y-6746500D01*
X8842000Y-6786500D01*
X8969000Y-4627500D02*
X9009000Y-4587500D01*
X8969000Y-4547500D01*
X8929000Y-4587500D01*
X8969000Y-4627500D01*
X8969000Y-5643500D02*
X9009000Y-5603500D01*
X8969000Y-5563500D01*
X8929000Y-5603500D01*
X8969000Y-5643500D01*
X9096000Y-6024500D02*
X9136000Y-5984500D01*
X9096000Y-5944500D01*
X9056000Y-5984500D01*
X9096000Y-6024500D01*
X9096000Y-6786500D02*
X9136000Y-6746500D01*
X9096000Y-6706500D01*
X9056000Y-6746500D01*
X9096000Y-6786500D01*
X9286500Y-4627500D02*
X9326500Y-4587500D01*
X9286500Y-4547500D01*
X9246500Y-4587500D01*
X9286500Y-4627500D01*
X9286500Y-5643500D02*
X9326500Y-5603500D01*
X9286500Y-5563500D01*
X9246500Y-5603500D01*
X9286500Y-5643500D01*
X9350000Y-6024500D02*
X9390000Y-5984500D01*
X9350000Y-5944500D01*
X9310000Y-5984500D01*
X9350000Y-6024500D01*
X9350000Y-6786500D02*
X9390000Y-6746500D01*
X9350000Y-6706500D01*
X9310000Y-6746500D01*
X9350000Y-6786500D01*
X9604000Y-4627500D02*
X9644000Y-4587500D01*
X9604000Y-4547500D01*
X9564000Y-4587500D01*
X9604000Y-4627500D01*
X9604000Y-5643500D02*
X9644000Y-5603500D01*
X9604000Y-5563500D01*
X9564000Y-5603500D01*
X9604000Y-5643500D01*
X9604000Y-6024500D02*
X9644000Y-5984500D01*
X9604000Y-5944500D01*
X9564000Y-5984500D01*
X9604000Y-6024500D01*
X9604000Y-6786500D02*
X9644000Y-6746500D01*
X9604000Y-6706500D01*
X9564000Y-6746500D01*
X9604000Y-6786500D01*
X9858000Y-6024500D02*
X9898000Y-5984500D01*
X9858000Y-5944500D01*
X9818000Y-5984500D01*
X9858000Y-6024500D01*
X9858000Y-6786500D02*
X9898000Y-6746500D01*
X9858000Y-6706500D01*
X9818000Y-6746500D01*
X9858000Y-6786500D01*
X9921500Y-4627500D02*
X9961500Y-4587500D01*
X9921500Y-4547500D01*
X9881500Y-4587500D01*
X9921500Y-4627500D01*
X9921500Y-5643500D02*
X9961500Y-5603500D01*
X9921500Y-5563500D01*
X9881500Y-5603500D01*
X9921500Y-5643500D01*
X10239000Y-4627500D02*
X10279000Y-4587500D01*
X10239000Y-4547500D01*
X10199000Y-4587500D01*
X10239000Y-4627500D01*
X10239000Y-5643500D02*
X10279000Y-5603500D01*
X10239000Y-5563500D01*
X10199000Y-5603500D01*
X10239000Y-5643500D01*
X10366000Y-6024500D02*
X10406000Y-5984500D01*
X10366000Y-5944500D01*
X10326000Y-5984500D01*
X10366000Y-6024500D01*
X10366000Y-6786500D02*
X10406000Y-6746500D01*
X10366000Y-6706500D01*
X10326000Y-6746500D01*
X10366000Y-6786500D01*
X10556500Y-4627500D02*
X10596500Y-4587500D01*
X10556500Y-4547500D01*
X10516500Y-4587500D01*
X10556500Y-4627500D01*
X10556500Y-5643500D02*
X10596500Y-5603500D01*
X10556500Y-5563500D01*
X10516500Y-5603500D01*
X10556500Y-5643500D01*
X10620000Y-6024500D02*
X10660000Y-5984500D01*
X10620000Y-5944500D01*
X10580000Y-5984500D01*
X10620000Y-6024500D01*
X10620000Y-6786500D02*
X10660000Y-6746500D01*
X10620000Y-6706500D01*
X10580000Y-6746500D01*
X10620000Y-6786500D01*
X10874000Y-4627500D02*
X10914000Y-4587500D01*
X10874000Y-4547500D01*
X10834000Y-4587500D01*
X10874000Y-4627500D01*
X10874000Y-5643500D02*
X10914000Y-5603500D01*
X10874000Y-5563500D01*
X10834000Y-5603500D01*
X10874000Y-5643500D01*
X10874000Y-6024500D02*
X10914000Y-5984500D01*
X10874000Y-5944500D01*
X10834000Y-5984500D01*
X10874000Y-6024500D01*
X10874000Y-6786500D02*
X10914000Y-6746500D01*
X10874000Y-6706500D01*
X10834000Y-6746500D01*
X10874000Y-6786500D01*
X11128000Y-6024500D02*
X11168000Y-5984500D01*
X11128000Y-5944500D01*
X11088000Y-5984500D01*
X11128000Y-6024500D01*
X11128000Y-6786500D02*
X11168000Y-6746500D01*
X11128000Y-6706500D01*
X11088000Y-6746500D01*
X11128000Y-6786500D01*
X11191500Y-4627500D02*
X11231500Y-4587500D01*
X11191500Y-4547500D01*
X11151500Y-4587500D01*
X11191500Y-4627500D01*
X11191500Y-5643500D02*
X11231500Y-5603500D01*
X11191500Y-5563500D01*
X11151500Y-5603500D01*
X11191500Y-5643500D01*
X11382000Y-6024500D02*
X11422000Y-5984500D01*
X11382000Y-5944500D01*
X11342000Y-5984500D01*
X11382000Y-6024500D01*
X11382000Y-6786500D02*
X11422000Y-6746500D01*
X11382000Y-6706500D01*
X11342000Y-6746500D01*
X11382000Y-6786500D01*
X11509000Y-4627500D02*
X11549000Y-4587500D01*
X11509000Y-4547500D01*
X11469000Y-4587500D01*
X11509000Y-4627500D01*
X11509000Y-5643500D02*
X11549000Y-5603500D01*
X11509000Y-5563500D01*
X11469000Y-5603500D01*
X11509000Y-5643500D01*
X11636000Y-6024500D02*
X11676000Y-5984500D01*
X11636000Y-5944500D01*
X11596000Y-5984500D01*
X11636000Y-6024500D01*
X11636000Y-6786500D02*
X11676000Y-6746500D01*
X11636000Y-6706500D01*
X11596000Y-6746500D01*
X11636000Y-6786500D01*
X11826500Y-4627500D02*
X11866500Y-4587500D01*
X11826500Y-4547500D01*
X11786500Y-4587500D01*
X11826500Y-4627500D01*
X11826500Y-5643500D02*
X11866500Y-5603500D01*
X11826500Y-5563500D01*
X11786500Y-5603500D01*
X11826500Y-5643500D01*
X11890000Y-6024500D02*
X11930000Y-5984500D01*
X11890000Y-5944500D01*
X11850000Y-5984500D01*
X11890000Y-6024500D01*
X11890000Y-6786500D02*
X11930000Y-6746500D01*
X11890000Y-6706500D01*
X11850000Y-6746500D01*
X11890000Y-6786500D01*
X12144000Y-4627500D02*
X12184000Y-4587500D01*
X12144000Y-4547500D01*
X12104000Y-4587500D01*
X12144000Y-4627500D01*
X12144000Y-5643500D02*
X12184000Y-5603500D01*
X12144000Y-5563500D01*
X12104000Y-5603500D01*
X12144000Y-5643500D01*
X12144000Y-6024500D02*
X12184000Y-5984500D01*
X12144000Y-5944500D01*
X12104000Y-5984500D01*
X12144000Y-6024500D01*
X12144000Y-6786500D02*
X12184000Y-6746500D01*
X12144000Y-6706500D01*
X12104000Y-6746500D01*
X12144000Y-6786500D01*
X12461500Y-4627500D02*
X12501500Y-4587500D01*
X12461500Y-4547500D01*
X12421500Y-4587500D01*
X12461500Y-4627500D01*
X12461500Y-5643500D02*
X12501500Y-5603500D01*
X12461500Y-5563500D01*
X12421500Y-5603500D01*
X12461500Y-5643500D01*
X12715500Y-6024500D02*
X12755500Y-5984500D01*
X12715500Y-5944500D01*
X12675500Y-5984500D01*
X12715500Y-6024500D01*
X12715500Y-6786500D02*
X12755500Y-6746500D01*
X12715500Y-6706500D01*
X12675500Y-6746500D01*
X12715500Y-6786500D01*
X12779000Y-4627500D02*
X12819000Y-4587500D01*
X12779000Y-4547500D01*
X12739000Y-4587500D01*
X12779000Y-4627500D01*
X12779000Y-5643500D02*
X12819000Y-5603500D01*
X12779000Y-5563500D01*
X12739000Y-5603500D01*
X12779000Y-5643500D01*
X12969500Y-6024500D02*
X13009500Y-5984500D01*
X12969500Y-5944500D01*
X12929500Y-5984500D01*
X12969500Y-6024500D01*
X12969500Y-6786500D02*
X13009500Y-6746500D01*
X12969500Y-6706500D01*
X12929500Y-6746500D01*
X12969500Y-6786500D01*
X13096500Y-4627500D02*
X13136500Y-4587500D01*
X13096500Y-4547500D01*
X13056500Y-4587500D01*
X13096500Y-4627500D01*
X13096500Y-5643500D02*
X13136500Y-5603500D01*
X13096500Y-5563500D01*
X13056500Y-5603500D01*
X13096500Y-5643500D01*
X13223500Y-6024500D02*
X13263500Y-5984500D01*
X13223500Y-5944500D01*
X13183500Y-5984500D01*
X13223500Y-6024500D01*
X13223500Y-6786500D02*
X13263500Y-6746500D01*
X13223500Y-6706500D01*
X13183500Y-6746500D01*
X13223500Y-6786500D01*
X13414000Y-4627500D02*
X13454000Y-4587500D01*
X13414000Y-4547500D01*
X13374000Y-4587500D01*
X13414000Y-4627500D01*
X13414000Y-5643500D02*
X13454000Y-5603500D01*
X13414000Y-5563500D01*
X13374000Y-5603500D01*
X13414000Y-5643500D01*
X13477500Y-6024500D02*
X13517500Y-5984500D01*
X13477500Y-5944500D01*
X13437500Y-5984500D01*
X13477500Y-6024500D01*
X13477500Y-6786500D02*
X13517500Y-6746500D01*
X13477500Y-6706500D01*
X13437500Y-6746500D01*
X13477500Y-6786500D01*
X13731500Y-4627500D02*
X13771500Y-4587500D01*
X13731500Y-4547500D01*
X13691500Y-4587500D01*
X13731500Y-4627500D01*
X13731500Y-5643500D02*
X13771500Y-5603500D01*
X13731500Y-5563500D01*
X13691500Y-5603500D01*
X13731500Y-5643500D01*
X13731500Y-6024500D02*
X13771500Y-5984500D01*
X13731500Y-5944500D01*
X13691500Y-5984500D01*
X13731500Y-6024500D01*
X13731500Y-6786500D02*
X13771500Y-6746500D01*
X13731500Y-6706500D01*
X13691500Y-6746500D01*
X13731500Y-6786500D01*
X13985500Y-6024500D02*
X14025500Y-5984500D01*
X13985500Y-5944500D01*
X13945500Y-5984500D01*
X13985500Y-6024500D01*
X13985500Y-6786500D02*
X14025500Y-6746500D01*
X13985500Y-6706500D01*
X13945500Y-6746500D01*
X13985500Y-6786500D01*
X14049000Y-4627500D02*
X14089000Y-4587500D01*
X14049000Y-4547500D01*
X14009000Y-4587500D01*
X14049000Y-4627500D01*
X14049000Y-5643500D02*
X14089000Y-5603500D01*
X14049000Y-5563500D01*
X14009000Y-5603500D01*
X14049000Y-5643500D01*
X14239500Y-6024500D02*
X14279500Y-5984500D01*
X14239500Y-5944500D01*
X14199500Y-5984500D01*
X14239500Y-6024500D01*
X14239500Y-6786500D02*
X14279500Y-6746500D01*
X14239500Y-6706500D01*
X14199500Y-6746500D01*
X14239500Y-6786500D01*
X14366500Y-4627500D02*
X14406500Y-4587500D01*
X14366500Y-4547500D01*
X14326500Y-4587500D01*
X14366500Y-4627500D01*
X14366500Y-5643500D02*
X14406500Y-5603500D01*
X14366500Y-5563500D01*
X14326500Y-5603500D01*
X14366500Y-5643500D01*
X14493500Y-6024500D02*
X14533500Y-5984500D01*
X14493500Y-5944500D01*
X14453500Y-5984500D01*
X14493500Y-6024500D01*
X14493500Y-6786500D02*
X14533500Y-6746500D01*
X14493500Y-6706500D01*
X14453500Y-6746500D01*
X14493500Y-6786500D01*
X14953500Y-7914000D02*
X14993500Y-7874000D01*
X14953500Y-7834000D01*
X14913500Y-7874000D01*
X14953500Y-7914000D01*
X14953500Y-8930000D02*
X14993500Y-8890000D01*
X14953500Y-8850000D01*
X14913500Y-8890000D01*
X14953500Y-8930000D01*
X15461500Y-7914000D02*
X15501500Y-7874000D01*
X15461500Y-7834000D01*
X15421500Y-7874000D01*
X15461500Y-7914000D01*
X15461500Y-8930000D02*
X15501500Y-8890000D01*
X15461500Y-8850000D01*
X15421500Y-8890000D01*
X15461500Y-8930000D01*
X16033000Y-7914000D02*
X16073000Y-7874000D01*
X16033000Y-7834000D01*
X15993000Y-7874000D01*
X16033000Y-7914000D01*
X16033000Y-8930000D02*
X16073000Y-8890000D01*
X16033000Y-8850000D01*
X15993000Y-8890000D01*
X16033000Y-8930000D01*
X16604500Y-7914000D02*
X16644500Y-7874000D01*
X16604500Y-7834000D01*
X16564500Y-7874000D01*
X16604500Y-7914000D01*
X16604500Y-8930000D02*
X16644500Y-8890000D01*
X16604500Y-8850000D01*
X16564500Y-8890000D01*
X16604500Y-8930000D01*
X17176000Y-7914000D02*
X17216000Y-7874000D01*
X17176000Y-7834000D01*
X17136000Y-7874000D01*
X17176000Y-7914000D01*
X17176000Y-8930000D02*
X17216000Y-8890000D01*
X17176000Y-8850000D01*
X17136000Y-8890000D01*
X17176000Y-8930000D01*
X17684000Y-7914000D02*
X17724000Y-7874000D01*
X17684000Y-7834000D01*
X17644000Y-7874000D01*
X17684000Y-7914000D01*
X17684000Y-8930000D02*
X17724000Y-8890000D01*
X17684000Y-8850000D01*
X17644000Y-8890000D01*
X17684000Y-8930000D01*
X17814000Y-10575000D02*
X17904000Y-10665000D01*
X17904000Y-10575000D02*
X17814000Y-10665000D01*
X17904000Y-10620000D02*
G75*
G03*
X17904000Y-10620000I-45000J0D01*
G01*
X17894000Y-10670000D02*
X17894000Y-10570000D01*
X17824000Y-10670000D02*
X17824000Y-10570000D01*
X17894000Y-10570000D02*
G75*
G03*
X17824000Y-10570000I-35000J0D01*
G01*
X17824000Y-10670000D02*
G75*
G03*
X17894000Y-10670000I35000J0D01*
G01*
X17814000Y-11083000D02*
X17904000Y-11173000D01*
X17904000Y-11083000D02*
X17814000Y-11173000D01*
X17904000Y-11128000D02*
G75*
G03*
X17904000Y-11128000I-45000J0D01*
G01*
X17894000Y-11178000D02*
X17894000Y-11078000D01*
X17824000Y-11178000D02*
X17824000Y-11078000D01*
X17894000Y-11078000D02*
G75*
G03*
X17824000Y-11078000I-35000J0D01*
G01*
X17824000Y-11178000D02*
G75*
G03*
X17894000Y-11178000I35000J0D01*
G01*
X3449490Y-7699990D02*
X3549490Y-7799990D01*
X3549490Y-7699990D02*
X3449490Y-7799990D01*
X3499490Y-7699990D02*
X3499490Y-7799990D01*
X3449490Y-7749990D02*
X3549490Y-7749990D01*
X3449490Y-7949990D02*
X3549490Y-8049990D01*
X3549490Y-7949990D02*
X3449490Y-8049990D01*
X3499490Y-7949990D02*
X3499490Y-8049990D01*
X3449490Y-7999990D02*
X3549490Y-7999990D01*
X3449490Y-8199990D02*
X3549490Y-8299990D01*
X3549490Y-8199990D02*
X3449490Y-8299990D01*
X3499490Y-8199990D02*
X3499490Y-8299990D01*
X3449490Y-8249990D02*
X3549490Y-8249990D01*
X3699490Y-7699990D02*
X3799490Y-7799990D01*
X3799490Y-7699990D02*
X3699490Y-7799990D01*
X3749490Y-7699990D02*
X3749490Y-7799990D01*
X3699490Y-7749990D02*
X3799490Y-7749990D01*
X3699490Y-7949990D02*
X3799490Y-8049990D01*
X3799490Y-7949990D02*
X3699490Y-8049990D01*
X3749490Y-7949990D02*
X3749490Y-8049990D01*
X3699490Y-7999990D02*
X3799490Y-7999990D01*
X3699490Y-8199990D02*
X3799490Y-8299990D01*
X3799490Y-8199990D02*
X3699490Y-8299990D01*
X3749490Y-8199990D02*
X3749490Y-8299990D01*
X3699490Y-8249990D02*
X3799490Y-8249990D01*
X4199490Y-7699990D02*
X4299490Y-7799990D01*
X4299490Y-7699990D02*
X4199490Y-7799990D01*
X4249490Y-7699990D02*
X4249490Y-7799990D01*
X4199490Y-7749990D02*
X4299490Y-7749990D01*
X4199490Y-7949990D02*
X4299490Y-8049990D01*
X4299490Y-7949990D02*
X4199490Y-8049990D01*
X4249490Y-7949990D02*
X4249490Y-8049990D01*
X4199490Y-7999990D02*
X4299490Y-7999990D01*
X4199490Y-8199990D02*
X4299490Y-8299990D01*
X4299490Y-8199990D02*
X4199490Y-8299990D01*
X4249490Y-8199990D02*
X4249490Y-8299990D01*
X4199490Y-8249990D02*
X4299490Y-8249990D01*
X4449490Y-7699990D02*
X4549490Y-7799990D01*
X4549490Y-7699990D02*
X4449490Y-7799990D01*
X4499490Y-7699990D02*
X4499490Y-7799990D01*
X4449490Y-7749990D02*
X4549490Y-7749990D01*
X4449490Y-7949990D02*
X4549490Y-8049990D01*
X4549490Y-7949990D02*
X4449490Y-8049990D01*
X4499490Y-7949990D02*
X4499490Y-8049990D01*
X4449490Y-7999990D02*
X4549490Y-7999990D01*
X4449490Y-8199990D02*
X4549490Y-8299990D01*
X4549490Y-8199990D02*
X4449490Y-8299990D01*
X4499490Y-8199990D02*
X4499490Y-8299990D01*
X4449490Y-8249990D02*
X4549490Y-8249990D01*
X11395500Y-9998500D02*
X11495500Y-10098500D01*
X11495500Y-9998500D02*
X11395500Y-10098500D01*
X11445500Y-9998500D02*
X11445500Y-10098500D01*
X11395500Y-10048500D02*
X11495500Y-10048500D01*
X11395500Y-11522500D02*
X11495500Y-11622500D01*
X11495500Y-11522500D02*
X11395500Y-11622500D01*
X11445500Y-11522500D02*
X11445500Y-11622500D01*
X11395500Y-11572500D02*
X11495500Y-11572500D01*
X11649500Y-9998500D02*
X11749500Y-10098500D01*
X11749500Y-9998500D02*
X11649500Y-10098500D01*
X11699500Y-9998500D02*
X11699500Y-10098500D01*
X11649500Y-10048500D02*
X11749500Y-10048500D01*
X11649500Y-11522500D02*
X11749500Y-11622500D01*
X11749500Y-11522500D02*
X11649500Y-11622500D01*
X11699500Y-11522500D02*
X11699500Y-11622500D01*
X11649500Y-11572500D02*
X11749500Y-11572500D01*
X11903500Y-9998500D02*
X12003500Y-10098500D01*
X12003500Y-9998500D02*
X11903500Y-10098500D01*
X11953500Y-9998500D02*
X11953500Y-10098500D01*
X11903500Y-10048500D02*
X12003500Y-10048500D01*
X11903500Y-11522500D02*
X12003500Y-11622500D01*
X12003500Y-11522500D02*
X11903500Y-11622500D01*
X11953500Y-11522500D02*
X11953500Y-11622500D01*
X11903500Y-11572500D02*
X12003500Y-11572500D01*
X12157500Y-9998500D02*
X12257500Y-10098500D01*
X12257500Y-9998500D02*
X12157500Y-10098500D01*
X12207500Y-9998500D02*
X12207500Y-10098500D01*
X12157500Y-10048500D02*
X12257500Y-10048500D01*
X12157500Y-11522500D02*
X12257500Y-11622500D01*
X12257500Y-11522500D02*
X12157500Y-11622500D01*
X12207500Y-11522500D02*
X12207500Y-11622500D01*
X12157500Y-11572500D02*
X12257500Y-11572500D01*
X12411500Y-9998500D02*
X12511500Y-10098500D01*
X12511500Y-9998500D02*
X12411500Y-10098500D01*
X12461500Y-9998500D02*
X12461500Y-10098500D01*
X12411500Y-10048500D02*
X12511500Y-10048500D01*
X12411500Y-11522500D02*
X12511500Y-11622500D01*
X12511500Y-11522500D02*
X12411500Y-11622500D01*
X12461500Y-11522500D02*
X12461500Y-11622500D01*
X12411500Y-11572500D02*
X12511500Y-11572500D01*
X12665500Y-9998500D02*
X12765500Y-10098500D01*
X12765500Y-9998500D02*
X12665500Y-10098500D01*
X12715500Y-9998500D02*
X12715500Y-10098500D01*
X12665500Y-10048500D02*
X12765500Y-10048500D01*
X12665500Y-11522500D02*
X12765500Y-11622500D01*
X12765500Y-11522500D02*
X12665500Y-11622500D01*
X12715500Y-11522500D02*
X12715500Y-11622500D01*
X12665500Y-11572500D02*
X12765500Y-11572500D01*
X12919500Y-9998500D02*
X13019500Y-10098500D01*
X13019500Y-9998500D02*
X12919500Y-10098500D01*
X12969500Y-9998500D02*
X12969500Y-10098500D01*
X12919500Y-10048500D02*
X13019500Y-10048500D01*
X12919500Y-11522500D02*
X13019500Y-11622500D01*
X13019500Y-11522500D02*
X12919500Y-11622500D01*
X12969500Y-11522500D02*
X12969500Y-11622500D01*
X12919500Y-11572500D02*
X13019500Y-11572500D01*
X13173500Y-9998500D02*
X13273500Y-10098500D01*
X13273500Y-9998500D02*
X13173500Y-10098500D01*
X13223500Y-9998500D02*
X13223500Y-10098500D01*
X13173500Y-10048500D02*
X13273500Y-10048500D01*
X13173500Y-11522500D02*
X13273500Y-11622500D01*
X13273500Y-11522500D02*
X13173500Y-11622500D01*
X13223500Y-11522500D02*
X13223500Y-11622500D01*
X13173500Y-11572500D02*
X13273500Y-11572500D01*
X13427500Y-9998500D02*
X13527500Y-10098500D01*
X13527500Y-9998500D02*
X13427500Y-10098500D01*
X13477500Y-9998500D02*
X13477500Y-10098500D01*
X13427500Y-10048500D02*
X13527500Y-10048500D01*
X13427500Y-11522500D02*
X13527500Y-11622500D01*
X13527500Y-11522500D02*
X13427500Y-11622500D01*
X13477500Y-11522500D02*
X13477500Y-11622500D01*
X13427500Y-11572500D02*
X13527500Y-11572500D01*
X13681500Y-9998500D02*
X13781500Y-10098500D01*
X13781500Y-9998500D02*
X13681500Y-10098500D01*
X13731500Y-9998500D02*
X13731500Y-10098500D01*
X13681500Y-10048500D02*
X13781500Y-10048500D01*
X13681500Y-11522500D02*
X13781500Y-11622500D01*
X13781500Y-11522500D02*
X13681500Y-11622500D01*
X13731500Y-11522500D02*
X13731500Y-11622500D01*
X13681500Y-11572500D02*
X13781500Y-11572500D01*
X13935500Y-9998500D02*
X14035500Y-10098500D01*
X14035500Y-9998500D02*
X13935500Y-10098500D01*
X13985500Y-9998500D02*
X13985500Y-10098500D01*
X13935500Y-10048500D02*
X14035500Y-10048500D01*
X13935500Y-11522500D02*
X14035500Y-11622500D01*
X14035500Y-11522500D02*
X13935500Y-11622500D01*
X13985500Y-11522500D02*
X13985500Y-11622500D01*
X13935500Y-11572500D02*
X14035500Y-11572500D01*
X14189500Y-9998500D02*
X14289500Y-10098500D01*
X14289500Y-9998500D02*
X14189500Y-10098500D01*
X14239500Y-9998500D02*
X14239500Y-10098500D01*
X14189500Y-10048500D02*
X14289500Y-10048500D01*
X14189500Y-11522500D02*
X14289500Y-11622500D01*
X14289500Y-11522500D02*
X14189500Y-11622500D01*
X14239500Y-11522500D02*
X14239500Y-11622500D01*
X14189500Y-11572500D02*
X14289500Y-11572500D01*
X14443500Y-9998500D02*
X14543500Y-10098500D01*
X14543500Y-9998500D02*
X14443500Y-10098500D01*
X14493500Y-9998500D02*
X14493500Y-10098500D01*
X14443500Y-10048500D02*
X14543500Y-10048500D01*
X14443500Y-11522500D02*
X14543500Y-11622500D01*
X14543500Y-11522500D02*
X14443500Y-11622500D01*
X14493500Y-11522500D02*
X14493500Y-11622500D01*
X14443500Y-11572500D02*
X14543500Y-11572500D01*
X14697500Y-9998500D02*
X14797500Y-10098500D01*
X14797500Y-9998500D02*
X14697500Y-10098500D01*
X14747500Y-9998500D02*
X14747500Y-10098500D01*
X14697500Y-10048500D02*
X14797500Y-10048500D01*
X14697500Y-11522500D02*
X14797500Y-11622500D01*
X14797500Y-11522500D02*
X14697500Y-11622500D01*
X14747500Y-11522500D02*
X14747500Y-11622500D01*
X14697500Y-11572500D02*
X14797500Y-11572500D01*
X14951500Y-9998500D02*
X15051500Y-10098500D01*
X15051500Y-9998500D02*
X14951500Y-10098500D01*
X15001500Y-9998500D02*
X15001500Y-10098500D01*
X14951500Y-10048500D02*
X15051500Y-10048500D01*
X14951500Y-11522500D02*
X15051500Y-11622500D01*
X15051500Y-11522500D02*
X14951500Y-11622500D01*
X15001500Y-11522500D02*
X15001500Y-11622500D01*
X14951500Y-11572500D02*
X15051500Y-11572500D01*
X16729500Y-12030500D02*
X16829500Y-12130500D01*
X16829500Y-12030500D02*
X16729500Y-12130500D01*
X16779500Y-12030500D02*
X16779500Y-12130500D01*
X16729500Y-12080500D02*
X16829500Y-12080500D01*
X16819500Y-12180500D02*
X16819500Y-11980500D01*
X16739500Y-12180500D02*
X16739500Y-11980500D01*
X16819500Y-11980500D02*
G75*
G03*
X16739500Y-11980500I-40000J0D01*
G01*
X16739500Y-12180500D02*
G75*
G03*
X16819500Y-12180500I40000J0D01*
G01*
X17029500Y-11560500D02*
X17129500Y-11660500D01*
X17129500Y-11560500D02*
X17029500Y-11660500D01*
X17079500Y-11560500D02*
X17079500Y-11660500D01*
X17029500Y-11610500D02*
X17129500Y-11610500D01*
X17179500Y-11570500D02*
X16979500Y-11570500D01*
X17179500Y-11650500D02*
X16979500Y-11650500D01*
X16979500Y-11570500D02*
G75*
G03*
X16979500Y-11650500I0J-40000D01*
G01*
X17179500Y-11650500D02*
G75*
G03*
X17179500Y-11570500I0J40000D01*
G01*
X17329500Y-12030500D02*
X17429500Y-12130500D01*
X17429500Y-12030500D02*
X17329500Y-12130500D01*
X17379500Y-12030500D02*
X17379500Y-12130500D01*
X17329500Y-12080500D02*
X17429500Y-12080500D01*
X17419500Y-12180500D02*
X17419500Y-11980500D01*
X17339500Y-12180500D02*
X17339500Y-11980500D01*
X17419500Y-11980500D02*
G75*
G03*
X17339500Y-11980500I-40000J0D01*
G01*
X17339500Y-12180500D02*
G75*
G03*
X17419500Y-12180500I40000J0D01*
G01*
X15737000Y-10784000D02*
X15917000Y-10964000D01*
X15917000Y-10784000D02*
X15737000Y-10964000D01*
X15890640Y-10937640D02*
X15890640Y-10810360D01*
X15763360Y-10810360D01*
X15763360Y-10937640D01*
X15890640Y-10937640D01*
X16118000Y-10784000D02*
X16298000Y-10964000D01*
X16298000Y-10784000D02*
X16118000Y-10964000D01*
X16271640Y-10937640D02*
X16271640Y-10810360D01*
X16144360Y-10810360D01*
X16144360Y-10937640D01*
X16271640Y-10937640D01*
X16499000Y-10784000D02*
X16679000Y-10964000D01*
X16679000Y-10784000D02*
X16499000Y-10964000D01*
X16652640Y-10937640D02*
X16652640Y-10810360D01*
X16525360Y-10810360D01*
X16525360Y-10937640D01*
X16652640Y-10937640D01*
D13*
X3285158Y-13466984D02*
X3285158Y-13166984D01*
X3356587Y-13166984D01*
X3399444Y-13181270D01*
X3428016Y-13209841D01*
X3442301Y-13238413D01*
X3456587Y-13295556D01*
X3456587Y-13338413D01*
X3442301Y-13395556D01*
X3428016Y-13424127D01*
X3399444Y-13452699D01*
X3356587Y-13466984D01*
X3285158Y-13466984D01*
X3585158Y-13466984D02*
X3585158Y-13266984D01*
X3585158Y-13324127D02*
X3599444Y-13295556D01*
X3613730Y-13281270D01*
X3642301Y-13266984D01*
X3670873Y-13266984D01*
X3770873Y-13466984D02*
X3770873Y-13266984D01*
X3770873Y-13166984D02*
X3756587Y-13181270D01*
X3770873Y-13195556D01*
X3785158Y-13181270D01*
X3770873Y-13166984D01*
X3770873Y-13195556D01*
X3956587Y-13466984D02*
X3928016Y-13452699D01*
X3913730Y-13424127D01*
X3913730Y-13166984D01*
X4113730Y-13466984D02*
X4085158Y-13452699D01*
X4070873Y-13424127D01*
X4070873Y-13166984D01*
X4456587Y-13466984D02*
X4456587Y-13166984D01*
X4556587Y-13381270D01*
X4656587Y-13166984D01*
X4656587Y-13466984D01*
X4928016Y-13466984D02*
X4928016Y-13309841D01*
X4913730Y-13281270D01*
X4885158Y-13266984D01*
X4828016Y-13266984D01*
X4799444Y-13281270D01*
X4928016Y-13452699D02*
X4899444Y-13466984D01*
X4828016Y-13466984D01*
X4799444Y-13452699D01*
X4785158Y-13424127D01*
X4785158Y-13395556D01*
X4799444Y-13366984D01*
X4828016Y-13352699D01*
X4899444Y-13352699D01*
X4928016Y-13338413D01*
X5070873Y-13266984D02*
X5070873Y-13566984D01*
X5070873Y-13281270D02*
X5099444Y-13266984D01*
X5156587Y-13266984D01*
X5185158Y-13281270D01*
X5199444Y-13295556D01*
X5213730Y-13324127D01*
X5213730Y-13409841D01*
X5199444Y-13438413D01*
X5185158Y-13452699D01*
X5156587Y-13466984D01*
X5099444Y-13466984D01*
X5070873Y-13452699D01*
X5342301Y-13438413D02*
X5356587Y-13452699D01*
X5342301Y-13466984D01*
X5328016Y-13452699D01*
X5342301Y-13438413D01*
X5342301Y-13466984D01*
X5342301Y-13281270D02*
X5356587Y-13295556D01*
X5342301Y-13309841D01*
X5328016Y-13295556D01*
X5342301Y-13281270D01*
X5342301Y-13309841D01*
X2958730Y-13941270D02*
X2998730Y-13981270D01*
X2998730Y-13941270D02*
X2958730Y-13981270D01*
X3342301Y-13796984D02*
X3370873Y-13796984D01*
X3399444Y-13811270D01*
X3413730Y-13825556D01*
X3428016Y-13854127D01*
X3442301Y-13911270D01*
X3442301Y-13982699D01*
X3428016Y-14039841D01*
X3413730Y-14068413D01*
X3399444Y-14082699D01*
X3370873Y-14096984D01*
X3342301Y-14096984D01*
X3313730Y-14082699D01*
X3299444Y-14068413D01*
X3285158Y-14039841D01*
X3270873Y-13982699D01*
X3270873Y-13911270D01*
X3285158Y-13854127D01*
X3299444Y-13825556D01*
X3313730Y-13811270D01*
X3342301Y-13796984D01*
X3570873Y-14068413D02*
X3585158Y-14082699D01*
X3570873Y-14096984D01*
X3556587Y-14082699D01*
X3570873Y-14068413D01*
X3570873Y-14096984D01*
X3842301Y-13896984D02*
X3842301Y-14096984D01*
X3770873Y-13782699D02*
X3699444Y-13996984D01*
X3885158Y-13996984D01*
X4056587Y-13796984D02*
X4085158Y-13796984D01*
X4113730Y-13811270D01*
X4128016Y-13825556D01*
X4142301Y-13854127D01*
X4156587Y-13911270D01*
X4156587Y-13982699D01*
X4142301Y-14039841D01*
X4128016Y-14068413D01*
X4113730Y-14082699D01*
X4085158Y-14096984D01*
X4056587Y-14096984D01*
X4028016Y-14082699D01*
X4013730Y-14068413D01*
X3999444Y-14039841D01*
X3985158Y-13982699D01*
X3985158Y-13911270D01*
X3999444Y-13854127D01*
X4013730Y-13825556D01*
X4028016Y-13811270D01*
X4056587Y-13796984D01*
X4285158Y-14096984D02*
X4285158Y-13896984D01*
X4285158Y-13925556D02*
X4299444Y-13911270D01*
X4328016Y-13896984D01*
X4370873Y-13896984D01*
X4399444Y-13911270D01*
X4413730Y-13939841D01*
X4413730Y-14096984D01*
X4413730Y-13939841D02*
X4428016Y-13911270D01*
X4456587Y-13896984D01*
X4499444Y-13896984D01*
X4528016Y-13911270D01*
X4542301Y-13939841D01*
X4542301Y-14096984D01*
X4685158Y-14096984D02*
X4685158Y-13896984D01*
X4685158Y-13925556D02*
X4699444Y-13911270D01*
X4728016Y-13896984D01*
X4770873Y-13896984D01*
X4799444Y-13911270D01*
X4813730Y-13939841D01*
X4813730Y-14096984D01*
X4813730Y-13939841D02*
X4828016Y-13911270D01*
X4856587Y-13896984D01*
X4899444Y-13896984D01*
X4928016Y-13911270D01*
X4942301Y-13939841D01*
X4942301Y-14096984D01*
X5528016Y-13782699D02*
X5270873Y-14168413D01*
X5913730Y-13796984D02*
X5942301Y-13796984D01*
X5970873Y-13811270D01*
X5985158Y-13825556D01*
X5999444Y-13854127D01*
X6013730Y-13911270D01*
X6013730Y-13982699D01*
X5999444Y-14039841D01*
X5985158Y-14068413D01*
X5970873Y-14082699D01*
X5942301Y-14096984D01*
X5913730Y-14096984D01*
X5885158Y-14082699D01*
X5870873Y-14068413D01*
X5856587Y-14039841D01*
X5842301Y-13982699D01*
X5842301Y-13911270D01*
X5856587Y-13854127D01*
X5870873Y-13825556D01*
X5885158Y-13811270D01*
X5913730Y-13796984D01*
X6142301Y-14068413D02*
X6156587Y-14082699D01*
X6142301Y-14096984D01*
X6128016Y-14082699D01*
X6142301Y-14068413D01*
X6142301Y-14096984D01*
X6342301Y-13796984D02*
X6370873Y-13796984D01*
X6399444Y-13811270D01*
X6413730Y-13825556D01*
X6428016Y-13854127D01*
X6442301Y-13911270D01*
X6442301Y-13982699D01*
X6428016Y-14039841D01*
X6413730Y-14068413D01*
X6399444Y-14082699D01*
X6370873Y-14096984D01*
X6342301Y-14096984D01*
X6313730Y-14082699D01*
X6299444Y-14068413D01*
X6285158Y-14039841D01*
X6270873Y-13982699D01*
X6270873Y-13911270D01*
X6285158Y-13854127D01*
X6299444Y-13825556D01*
X6313730Y-13811270D01*
X6342301Y-13796984D01*
X6728016Y-14096984D02*
X6556587Y-14096984D01*
X6642301Y-14096984D02*
X6642301Y-13796984D01*
X6613730Y-13839841D01*
X6585158Y-13868413D01*
X6556587Y-13882699D01*
X6985158Y-13796984D02*
X6928016Y-13796984D01*
X6899444Y-13811270D01*
X6885158Y-13825556D01*
X6856587Y-13868413D01*
X6842301Y-13925556D01*
X6842301Y-14039841D01*
X6856587Y-14068413D01*
X6870873Y-14082699D01*
X6899444Y-14096984D01*
X6956587Y-14096984D01*
X6985158Y-14082699D01*
X6999444Y-14068413D01*
X7013730Y-14039841D01*
X7013730Y-13968413D01*
X6999444Y-13939841D01*
X6985158Y-13925556D01*
X6956587Y-13911270D01*
X6899444Y-13911270D01*
X6870873Y-13925556D01*
X6856587Y-13939841D01*
X6842301Y-13968413D01*
X7128016Y-13796984D02*
X7128016Y-13854127D01*
X7242301Y-13796984D02*
X7242301Y-13854127D01*
X7685158Y-14211270D02*
X7670873Y-14196984D01*
X7642301Y-14154127D01*
X7628016Y-14125556D01*
X7613730Y-14082699D01*
X7599444Y-14011270D01*
X7599444Y-13954127D01*
X7613730Y-13882699D01*
X7628016Y-13839841D01*
X7642301Y-13811270D01*
X7670873Y-13768413D01*
X7685158Y-13754127D01*
X7956587Y-14096984D02*
X7785158Y-14096984D01*
X7870873Y-14096984D02*
X7870873Y-13796984D01*
X7842301Y-13839841D01*
X7813730Y-13868413D01*
X7785158Y-13882699D01*
X8213730Y-13896984D02*
X8213730Y-14096984D01*
X8142301Y-13782699D02*
X8070873Y-13996984D01*
X8256587Y-13996984D01*
X8599444Y-14096984D02*
X8599444Y-13796984D01*
X8728016Y-14096984D02*
X8728016Y-13939841D01*
X8713730Y-13911270D01*
X8685158Y-13896984D01*
X8642301Y-13896984D01*
X8613730Y-13911270D01*
X8599444Y-13925556D01*
X8913730Y-14096984D02*
X8885158Y-14082699D01*
X8870873Y-14068413D01*
X8856587Y-14039841D01*
X8856587Y-13954127D01*
X8870873Y-13925556D01*
X8885158Y-13911270D01*
X8913730Y-13896984D01*
X8956587Y-13896984D01*
X8985158Y-13911270D01*
X8999444Y-13925556D01*
X9013730Y-13954127D01*
X9013730Y-14039841D01*
X8999444Y-14068413D01*
X8985158Y-14082699D01*
X8956587Y-14096984D01*
X8913730Y-14096984D01*
X9185158Y-14096984D02*
X9156587Y-14082699D01*
X9142301Y-14054127D01*
X9142301Y-13796984D01*
X9413730Y-14082699D02*
X9385158Y-14096984D01*
X9328016Y-14096984D01*
X9299444Y-14082699D01*
X9285158Y-14054127D01*
X9285158Y-13939841D01*
X9299444Y-13911270D01*
X9328016Y-13896984D01*
X9385158Y-13896984D01*
X9413730Y-13911270D01*
X9428016Y-13939841D01*
X9428016Y-13968413D01*
X9285158Y-13996984D01*
X9542301Y-14082699D02*
X9570873Y-14096984D01*
X9628016Y-14096984D01*
X9656587Y-14082699D01*
X9670873Y-14054127D01*
X9670873Y-14039841D01*
X9656587Y-14011270D01*
X9628016Y-13996984D01*
X9585158Y-13996984D01*
X9556587Y-13982699D01*
X9542301Y-13954127D01*
X9542301Y-13939841D01*
X9556587Y-13911270D01*
X9585158Y-13896984D01*
X9628016Y-13896984D01*
X9656587Y-13911270D01*
X9770873Y-14211270D02*
X9785158Y-14196984D01*
X9813730Y-14154127D01*
X9828016Y-14125556D01*
X9842301Y-14082699D01*
X9856587Y-14011270D01*
X9856587Y-13954127D01*
X9842301Y-13882699D01*
X9828016Y-13839841D01*
X9813730Y-13811270D01*
X9785158Y-13768413D01*
X9770873Y-13754127D01*
X2998730Y-14357270D02*
G75*
G03*
X2998730Y-14357270I-25400J0D01*
G01*
X3342301Y-14192984D02*
X3370873Y-14192984D01*
X3399444Y-14207270D01*
X3413730Y-14221556D01*
X3428016Y-14250127D01*
X3442301Y-14307270D01*
X3442301Y-14378699D01*
X3428016Y-14435841D01*
X3413730Y-14464413D01*
X3399444Y-14478699D01*
X3370873Y-14492984D01*
X3342301Y-14492984D01*
X3313730Y-14478699D01*
X3299444Y-14464413D01*
X3285158Y-14435841D01*
X3270873Y-14378699D01*
X3270873Y-14307270D01*
X3285158Y-14250127D01*
X3299444Y-14221556D01*
X3313730Y-14207270D01*
X3342301Y-14192984D01*
X3570873Y-14464413D02*
X3585158Y-14478699D01*
X3570873Y-14492984D01*
X3556587Y-14478699D01*
X3570873Y-14464413D01*
X3570873Y-14492984D01*
X3856587Y-14192984D02*
X3713730Y-14192984D01*
X3699444Y-14335841D01*
X3713730Y-14321556D01*
X3742301Y-14307270D01*
X3813730Y-14307270D01*
X3842301Y-14321556D01*
X3856587Y-14335841D01*
X3870873Y-14364413D01*
X3870873Y-14435841D01*
X3856587Y-14464413D01*
X3842301Y-14478699D01*
X3813730Y-14492984D01*
X3742301Y-14492984D01*
X3713730Y-14478699D01*
X3699444Y-14464413D01*
X4156587Y-14492984D02*
X3985158Y-14492984D01*
X4070873Y-14492984D02*
X4070873Y-14192984D01*
X4042301Y-14235841D01*
X4013730Y-14264413D01*
X3985158Y-14278699D01*
X4285158Y-14492984D02*
X4285158Y-14292984D01*
X4285158Y-14321556D02*
X4299444Y-14307270D01*
X4328016Y-14292984D01*
X4370873Y-14292984D01*
X4399444Y-14307270D01*
X4413730Y-14335841D01*
X4413730Y-14492984D01*
X4413730Y-14335841D02*
X4428016Y-14307270D01*
X4456587Y-14292984D01*
X4499444Y-14292984D01*
X4528016Y-14307270D01*
X4542301Y-14335841D01*
X4542301Y-14492984D01*
X4685158Y-14492984D02*
X4685158Y-14292984D01*
X4685158Y-14321556D02*
X4699444Y-14307270D01*
X4728016Y-14292984D01*
X4770873Y-14292984D01*
X4799444Y-14307270D01*
X4813730Y-14335841D01*
X4813730Y-14492984D01*
X4813730Y-14335841D02*
X4828016Y-14307270D01*
X4856587Y-14292984D01*
X4899444Y-14292984D01*
X4928016Y-14307270D01*
X4942301Y-14335841D01*
X4942301Y-14492984D01*
X5528016Y-14178699D02*
X5270873Y-14564413D01*
X5913730Y-14192984D02*
X5942301Y-14192984D01*
X5970873Y-14207270D01*
X5985158Y-14221556D01*
X5999444Y-14250127D01*
X6013730Y-14307270D01*
X6013730Y-14378699D01*
X5999444Y-14435841D01*
X5985158Y-14464413D01*
X5970873Y-14478699D01*
X5942301Y-14492984D01*
X5913730Y-14492984D01*
X5885158Y-14478699D01*
X5870873Y-14464413D01*
X5856587Y-14435841D01*
X5842301Y-14378699D01*
X5842301Y-14307270D01*
X5856587Y-14250127D01*
X5870873Y-14221556D01*
X5885158Y-14207270D01*
X5913730Y-14192984D01*
X6142301Y-14464413D02*
X6156587Y-14478699D01*
X6142301Y-14492984D01*
X6128016Y-14478699D01*
X6142301Y-14464413D01*
X6142301Y-14492984D01*
X6342301Y-14192984D02*
X6370873Y-14192984D01*
X6399444Y-14207270D01*
X6413730Y-14221556D01*
X6428016Y-14250127D01*
X6442301Y-14307270D01*
X6442301Y-14378699D01*
X6428016Y-14435841D01*
X6413730Y-14464413D01*
X6399444Y-14478699D01*
X6370873Y-14492984D01*
X6342301Y-14492984D01*
X6313730Y-14478699D01*
X6299444Y-14464413D01*
X6285158Y-14435841D01*
X6270873Y-14378699D01*
X6270873Y-14307270D01*
X6285158Y-14250127D01*
X6299444Y-14221556D01*
X6313730Y-14207270D01*
X6342301Y-14192984D01*
X6556587Y-14221556D02*
X6570873Y-14207270D01*
X6599444Y-14192984D01*
X6670873Y-14192984D01*
X6699444Y-14207270D01*
X6713730Y-14221556D01*
X6728016Y-14250127D01*
X6728016Y-14278699D01*
X6713730Y-14321556D01*
X6542301Y-14492984D01*
X6728016Y-14492984D01*
X6913730Y-14192984D02*
X6942301Y-14192984D01*
X6970873Y-14207270D01*
X6985158Y-14221556D01*
X6999444Y-14250127D01*
X7013730Y-14307270D01*
X7013730Y-14378699D01*
X6999444Y-14435841D01*
X6985158Y-14464413D01*
X6970873Y-14478699D01*
X6942301Y-14492984D01*
X6913730Y-14492984D01*
X6885158Y-14478699D01*
X6870873Y-14464413D01*
X6856587Y-14435841D01*
X6842301Y-14378699D01*
X6842301Y-14307270D01*
X6856587Y-14250127D01*
X6870873Y-14221556D01*
X6885158Y-14207270D01*
X6913730Y-14192984D01*
X7128016Y-14192984D02*
X7128016Y-14250127D01*
X7242301Y-14192984D02*
X7242301Y-14250127D01*
X7685158Y-14607270D02*
X7670873Y-14592984D01*
X7642301Y-14550127D01*
X7628016Y-14521556D01*
X7613730Y-14478699D01*
X7599444Y-14407270D01*
X7599444Y-14350127D01*
X7613730Y-14278699D01*
X7628016Y-14235841D01*
X7642301Y-14207270D01*
X7670873Y-14164413D01*
X7685158Y-14150127D01*
X7856587Y-14192984D02*
X7885158Y-14192984D01*
X7913730Y-14207270D01*
X7928016Y-14221556D01*
X7942301Y-14250127D01*
X7956587Y-14307270D01*
X7956587Y-14378699D01*
X7942301Y-14435841D01*
X7928016Y-14464413D01*
X7913730Y-14478699D01*
X7885158Y-14492984D01*
X7856587Y-14492984D01*
X7828016Y-14478699D01*
X7813730Y-14464413D01*
X7799444Y-14435841D01*
X7785158Y-14378699D01*
X7785158Y-14307270D01*
X7799444Y-14250127D01*
X7813730Y-14221556D01*
X7828016Y-14207270D01*
X7856587Y-14192984D01*
X8313730Y-14492984D02*
X8313730Y-14192984D01*
X8442301Y-14492984D02*
X8442301Y-14335841D01*
X8428016Y-14307270D01*
X8399444Y-14292984D01*
X8356587Y-14292984D01*
X8328016Y-14307270D01*
X8313730Y-14321556D01*
X8628016Y-14492984D02*
X8599444Y-14478699D01*
X8585158Y-14464413D01*
X8570873Y-14435841D01*
X8570873Y-14350127D01*
X8585158Y-14321556D01*
X8599444Y-14307270D01*
X8628016Y-14292984D01*
X8670873Y-14292984D01*
X8699444Y-14307270D01*
X8713730Y-14321556D01*
X8728016Y-14350127D01*
X8728016Y-14435841D01*
X8713730Y-14464413D01*
X8699444Y-14478699D01*
X8670873Y-14492984D01*
X8628016Y-14492984D01*
X8899444Y-14492984D02*
X8870873Y-14478699D01*
X8856587Y-14450127D01*
X8856587Y-14192984D01*
X9128016Y-14478699D02*
X9099444Y-14492984D01*
X9042301Y-14492984D01*
X9013730Y-14478699D01*
X8999444Y-14450127D01*
X8999444Y-14335841D01*
X9013730Y-14307270D01*
X9042301Y-14292984D01*
X9099444Y-14292984D01*
X9128016Y-14307270D01*
X9142301Y-14335841D01*
X9142301Y-14364413D01*
X8999444Y-14392984D01*
X9256587Y-14478699D02*
X9285158Y-14492984D01*
X9342301Y-14492984D01*
X9370873Y-14478699D01*
X9385158Y-14450127D01*
X9385158Y-14435841D01*
X9370873Y-14407270D01*
X9342301Y-14392984D01*
X9299444Y-14392984D01*
X9270873Y-14378699D01*
X9256587Y-14350127D01*
X9256587Y-14335841D01*
X9270873Y-14307270D01*
X9299444Y-14292984D01*
X9342301Y-14292984D01*
X9370873Y-14307270D01*
X9742301Y-14378699D02*
X9970873Y-14378699D01*
X9856587Y-14492984D02*
X9856587Y-14264413D01*
X10499444Y-14492984D02*
X10328016Y-14492984D01*
X10413730Y-14492984D02*
X10413730Y-14192984D01*
X10385158Y-14235841D01*
X10356587Y-14264413D01*
X10328016Y-14278699D01*
X10685158Y-14192984D02*
X10713730Y-14192984D01*
X10742301Y-14207270D01*
X10756587Y-14221556D01*
X10770873Y-14250127D01*
X10785158Y-14307270D01*
X10785158Y-14378699D01*
X10770873Y-14435841D01*
X10756587Y-14464413D01*
X10742301Y-14478699D01*
X10713730Y-14492984D01*
X10685158Y-14492984D01*
X10656587Y-14478699D01*
X10642301Y-14464413D01*
X10628016Y-14435841D01*
X10613730Y-14378699D01*
X10613730Y-14307270D01*
X10628016Y-14250127D01*
X10642301Y-14221556D01*
X10656587Y-14207270D01*
X10685158Y-14192984D01*
X11128016Y-14478699D02*
X11156587Y-14492984D01*
X11213730Y-14492984D01*
X11242301Y-14478699D01*
X11256587Y-14450127D01*
X11256587Y-14435841D01*
X11242301Y-14407270D01*
X11213730Y-14392984D01*
X11170873Y-14392984D01*
X11142301Y-14378699D01*
X11128016Y-14350127D01*
X11128016Y-14335841D01*
X11142301Y-14307270D01*
X11170873Y-14292984D01*
X11213730Y-14292984D01*
X11242301Y-14307270D01*
X11428016Y-14492984D02*
X11399444Y-14478699D01*
X11385158Y-14450127D01*
X11385158Y-14192984D01*
X11585158Y-14492984D02*
X11556587Y-14478699D01*
X11542301Y-14464413D01*
X11528016Y-14435841D01*
X11528016Y-14350127D01*
X11542301Y-14321556D01*
X11556587Y-14307270D01*
X11585158Y-14292984D01*
X11628016Y-14292984D01*
X11656587Y-14307270D01*
X11670873Y-14321556D01*
X11685158Y-14350127D01*
X11685158Y-14435841D01*
X11670873Y-14464413D01*
X11656587Y-14478699D01*
X11628016Y-14492984D01*
X11585158Y-14492984D01*
X11770873Y-14292984D02*
X11885158Y-14292984D01*
X11813730Y-14192984D02*
X11813730Y-14450127D01*
X11828016Y-14478699D01*
X11856587Y-14492984D01*
X11885158Y-14492984D01*
X11970873Y-14478699D02*
X11999444Y-14492984D01*
X12056587Y-14492984D01*
X12085158Y-14478699D01*
X12099444Y-14450127D01*
X12099444Y-14435841D01*
X12085158Y-14407270D01*
X12056587Y-14392984D01*
X12013730Y-14392984D01*
X11985158Y-14378699D01*
X11970873Y-14350127D01*
X11970873Y-14335841D01*
X11985158Y-14307270D01*
X12013730Y-14292984D01*
X12056587Y-14292984D01*
X12085158Y-14307270D01*
X12199444Y-14607270D02*
X12213730Y-14592984D01*
X12242301Y-14550127D01*
X12256587Y-14521556D01*
X12270873Y-14478699D01*
X12285158Y-14407270D01*
X12285158Y-14350127D01*
X12270873Y-14278699D01*
X12256587Y-14235841D01*
X12242301Y-14207270D01*
X12213730Y-14164413D01*
X12199444Y-14150127D01*
X2961230Y-14715770D02*
X2961230Y-14790770D01*
X2923730Y-14753270D02*
X2998730Y-14753270D01*
X3342301Y-14588984D02*
X3370873Y-14588984D01*
X3399444Y-14603270D01*
X3413730Y-14617556D01*
X3428016Y-14646127D01*
X3442301Y-14703270D01*
X3442301Y-14774699D01*
X3428016Y-14831841D01*
X3413730Y-14860413D01*
X3399444Y-14874699D01*
X3370873Y-14888984D01*
X3342301Y-14888984D01*
X3313730Y-14874699D01*
X3299444Y-14860413D01*
X3285158Y-14831841D01*
X3270873Y-14774699D01*
X3270873Y-14703270D01*
X3285158Y-14646127D01*
X3299444Y-14617556D01*
X3313730Y-14603270D01*
X3342301Y-14588984D01*
X3570873Y-14860413D02*
X3585158Y-14874699D01*
X3570873Y-14888984D01*
X3556587Y-14874699D01*
X3570873Y-14860413D01*
X3570873Y-14888984D01*
X3685158Y-14588984D02*
X3885158Y-14588984D01*
X3756587Y-14888984D01*
X4142301Y-14588984D02*
X3999444Y-14588984D01*
X3985158Y-14731841D01*
X3999444Y-14717556D01*
X4028016Y-14703270D01*
X4099444Y-14703270D01*
X4128016Y-14717556D01*
X4142301Y-14731841D01*
X4156587Y-14760413D01*
X4156587Y-14831841D01*
X4142301Y-14860413D01*
X4128016Y-14874699D01*
X4099444Y-14888984D01*
X4028016Y-14888984D01*
X3999444Y-14874699D01*
X3985158Y-14860413D01*
X4285158Y-14888984D02*
X4285158Y-14688984D01*
X4285158Y-14717556D02*
X4299444Y-14703270D01*
X4328016Y-14688984D01*
X4370873Y-14688984D01*
X4399444Y-14703270D01*
X4413730Y-14731841D01*
X4413730Y-14888984D01*
X4413730Y-14731841D02*
X4428016Y-14703270D01*
X4456587Y-14688984D01*
X4499444Y-14688984D01*
X4528016Y-14703270D01*
X4542301Y-14731841D01*
X4542301Y-14888984D01*
X4685158Y-14888984D02*
X4685158Y-14688984D01*
X4685158Y-14717556D02*
X4699444Y-14703270D01*
X4728016Y-14688984D01*
X4770873Y-14688984D01*
X4799444Y-14703270D01*
X4813730Y-14731841D01*
X4813730Y-14888984D01*
X4813730Y-14731841D02*
X4828016Y-14703270D01*
X4856587Y-14688984D01*
X4899444Y-14688984D01*
X4928016Y-14703270D01*
X4942301Y-14731841D01*
X4942301Y-14888984D01*
X5528016Y-14574699D02*
X5270873Y-14960413D01*
X5913730Y-14588984D02*
X5942301Y-14588984D01*
X5970873Y-14603270D01*
X5985158Y-14617556D01*
X5999444Y-14646127D01*
X6013730Y-14703270D01*
X6013730Y-14774699D01*
X5999444Y-14831841D01*
X5985158Y-14860413D01*
X5970873Y-14874699D01*
X5942301Y-14888984D01*
X5913730Y-14888984D01*
X5885158Y-14874699D01*
X5870873Y-14860413D01*
X5856587Y-14831841D01*
X5842301Y-14774699D01*
X5842301Y-14703270D01*
X5856587Y-14646127D01*
X5870873Y-14617556D01*
X5885158Y-14603270D01*
X5913730Y-14588984D01*
X6142301Y-14860413D02*
X6156587Y-14874699D01*
X6142301Y-14888984D01*
X6128016Y-14874699D01*
X6142301Y-14860413D01*
X6142301Y-14888984D01*
X6342301Y-14588984D02*
X6370873Y-14588984D01*
X6399444Y-14603270D01*
X6413730Y-14617556D01*
X6428016Y-14646127D01*
X6442301Y-14703270D01*
X6442301Y-14774699D01*
X6428016Y-14831841D01*
X6413730Y-14860413D01*
X6399444Y-14874699D01*
X6370873Y-14888984D01*
X6342301Y-14888984D01*
X6313730Y-14874699D01*
X6299444Y-14860413D01*
X6285158Y-14831841D01*
X6270873Y-14774699D01*
X6270873Y-14703270D01*
X6285158Y-14646127D01*
X6299444Y-14617556D01*
X6313730Y-14603270D01*
X6342301Y-14588984D01*
X6542301Y-14588984D02*
X6728016Y-14588984D01*
X6628016Y-14703270D01*
X6670873Y-14703270D01*
X6699444Y-14717556D01*
X6713730Y-14731841D01*
X6728016Y-14760413D01*
X6728016Y-14831841D01*
X6713730Y-14860413D01*
X6699444Y-14874699D01*
X6670873Y-14888984D01*
X6585158Y-14888984D01*
X6556587Y-14874699D01*
X6542301Y-14860413D01*
X6913730Y-14588984D02*
X6942301Y-14588984D01*
X6970873Y-14603270D01*
X6985158Y-14617556D01*
X6999444Y-14646127D01*
X7013730Y-14703270D01*
X7013730Y-14774699D01*
X6999444Y-14831841D01*
X6985158Y-14860413D01*
X6970873Y-14874699D01*
X6942301Y-14888984D01*
X6913730Y-14888984D01*
X6885158Y-14874699D01*
X6870873Y-14860413D01*
X6856587Y-14831841D01*
X6842301Y-14774699D01*
X6842301Y-14703270D01*
X6856587Y-14646127D01*
X6870873Y-14617556D01*
X6885158Y-14603270D01*
X6913730Y-14588984D01*
X7128016Y-14588984D02*
X7128016Y-14646127D01*
X7242301Y-14588984D02*
X7242301Y-14646127D01*
X7685158Y-15003270D02*
X7670873Y-14988984D01*
X7642301Y-14946127D01*
X7628016Y-14917556D01*
X7613730Y-14874699D01*
X7599444Y-14803270D01*
X7599444Y-14746127D01*
X7613730Y-14674699D01*
X7628016Y-14631841D01*
X7642301Y-14603270D01*
X7670873Y-14560413D01*
X7685158Y-14546127D01*
X7785158Y-14617556D02*
X7799444Y-14603270D01*
X7828016Y-14588984D01*
X7899444Y-14588984D01*
X7928016Y-14603270D01*
X7942301Y-14617556D01*
X7956587Y-14646127D01*
X7956587Y-14674699D01*
X7942301Y-14717556D01*
X7770873Y-14888984D01*
X7956587Y-14888984D01*
X8142301Y-14588984D02*
X8170873Y-14588984D01*
X8199444Y-14603270D01*
X8213730Y-14617556D01*
X8228016Y-14646127D01*
X8242301Y-14703270D01*
X8242301Y-14774699D01*
X8228016Y-14831841D01*
X8213730Y-14860413D01*
X8199444Y-14874699D01*
X8170873Y-14888984D01*
X8142301Y-14888984D01*
X8113730Y-14874699D01*
X8099444Y-14860413D01*
X8085158Y-14831841D01*
X8070873Y-14774699D01*
X8070873Y-14703270D01*
X8085158Y-14646127D01*
X8099444Y-14617556D01*
X8113730Y-14603270D01*
X8142301Y-14588984D01*
X8599444Y-14888984D02*
X8599444Y-14588984D01*
X8728016Y-14888984D02*
X8728016Y-14731841D01*
X8713730Y-14703270D01*
X8685158Y-14688984D01*
X8642301Y-14688984D01*
X8613730Y-14703270D01*
X8599444Y-14717556D01*
X8913730Y-14888984D02*
X8885158Y-14874699D01*
X8870873Y-14860413D01*
X8856587Y-14831841D01*
X8856587Y-14746127D01*
X8870873Y-14717556D01*
X8885158Y-14703270D01*
X8913730Y-14688984D01*
X8956587Y-14688984D01*
X8985158Y-14703270D01*
X8999444Y-14717556D01*
X9013730Y-14746127D01*
X9013730Y-14831841D01*
X8999444Y-14860413D01*
X8985158Y-14874699D01*
X8956587Y-14888984D01*
X8913730Y-14888984D01*
X9185158Y-14888984D02*
X9156587Y-14874699D01*
X9142301Y-14846127D01*
X9142301Y-14588984D01*
X9413730Y-14874699D02*
X9385158Y-14888984D01*
X9328016Y-14888984D01*
X9299444Y-14874699D01*
X9285158Y-14846127D01*
X9285158Y-14731841D01*
X9299444Y-14703270D01*
X9328016Y-14688984D01*
X9385158Y-14688984D01*
X9413730Y-14703270D01*
X9428016Y-14731841D01*
X9428016Y-14760413D01*
X9285158Y-14788984D01*
X9542301Y-14874699D02*
X9570873Y-14888984D01*
X9628016Y-14888984D01*
X9656587Y-14874699D01*
X9670873Y-14846127D01*
X9670873Y-14831841D01*
X9656587Y-14803270D01*
X9628016Y-14788984D01*
X9585158Y-14788984D01*
X9556587Y-14774699D01*
X9542301Y-14746127D01*
X9542301Y-14731841D01*
X9556587Y-14703270D01*
X9585158Y-14688984D01*
X9628016Y-14688984D01*
X9656587Y-14703270D01*
X9770873Y-15003270D02*
X9785158Y-14988984D01*
X9813730Y-14946127D01*
X9828016Y-14917556D01*
X9842301Y-14874699D01*
X9856587Y-14803270D01*
X9856587Y-14746127D01*
X9842301Y-14674699D01*
X9828016Y-14631841D01*
X9813730Y-14603270D01*
X9785158Y-14560413D01*
X9770873Y-14546127D01*
X2987571Y-15176211D02*
X2987571Y-15122329D01*
X2933689Y-15122329D01*
X2933689Y-15176211D01*
X2987571Y-15176211D01*
X3342301Y-14984984D02*
X3370873Y-14984984D01*
X3399444Y-14999270D01*
X3413730Y-15013556D01*
X3428016Y-15042127D01*
X3442301Y-15099270D01*
X3442301Y-15170699D01*
X3428016Y-15227841D01*
X3413730Y-15256413D01*
X3399444Y-15270699D01*
X3370873Y-15284984D01*
X3342301Y-15284984D01*
X3313730Y-15270699D01*
X3299444Y-15256413D01*
X3285158Y-15227841D01*
X3270873Y-15170699D01*
X3270873Y-15099270D01*
X3285158Y-15042127D01*
X3299444Y-15013556D01*
X3313730Y-14999270D01*
X3342301Y-14984984D01*
X3570873Y-15256413D02*
X3585158Y-15270699D01*
X3570873Y-15284984D01*
X3556587Y-15270699D01*
X3570873Y-15256413D01*
X3570873Y-15284984D01*
X3685158Y-14984984D02*
X3885158Y-14984984D01*
X3756587Y-15284984D01*
X4128016Y-14984984D02*
X4070873Y-14984984D01*
X4042301Y-14999270D01*
X4028016Y-15013556D01*
X3999444Y-15056413D01*
X3985158Y-15113556D01*
X3985158Y-15227841D01*
X3999444Y-15256413D01*
X4013730Y-15270699D01*
X4042301Y-15284984D01*
X4099444Y-15284984D01*
X4128016Y-15270699D01*
X4142301Y-15256413D01*
X4156587Y-15227841D01*
X4156587Y-15156413D01*
X4142301Y-15127841D01*
X4128016Y-15113556D01*
X4099444Y-15099270D01*
X4042301Y-15099270D01*
X4013730Y-15113556D01*
X3999444Y-15127841D01*
X3985158Y-15156413D01*
X4285158Y-15284984D02*
X4285158Y-15084984D01*
X4285158Y-15113556D02*
X4299444Y-15099270D01*
X4328016Y-15084984D01*
X4370873Y-15084984D01*
X4399444Y-15099270D01*
X4413730Y-15127841D01*
X4413730Y-15284984D01*
X4413730Y-15127841D02*
X4428016Y-15099270D01*
X4456587Y-15084984D01*
X4499444Y-15084984D01*
X4528016Y-15099270D01*
X4542301Y-15127841D01*
X4542301Y-15284984D01*
X4685158Y-15284984D02*
X4685158Y-15084984D01*
X4685158Y-15113556D02*
X4699444Y-15099270D01*
X4728016Y-15084984D01*
X4770873Y-15084984D01*
X4799444Y-15099270D01*
X4813730Y-15127841D01*
X4813730Y-15284984D01*
X4813730Y-15127841D02*
X4828016Y-15099270D01*
X4856587Y-15084984D01*
X4899444Y-15084984D01*
X4928016Y-15099270D01*
X4942301Y-15127841D01*
X4942301Y-15284984D01*
X5528016Y-14970699D02*
X5270873Y-15356413D01*
X5913730Y-14984984D02*
X5942301Y-14984984D01*
X5970873Y-14999270D01*
X5985158Y-15013556D01*
X5999444Y-15042127D01*
X6013730Y-15099270D01*
X6013730Y-15170699D01*
X5999444Y-15227841D01*
X5985158Y-15256413D01*
X5970873Y-15270699D01*
X5942301Y-15284984D01*
X5913730Y-15284984D01*
X5885158Y-15270699D01*
X5870873Y-15256413D01*
X5856587Y-15227841D01*
X5842301Y-15170699D01*
X5842301Y-15099270D01*
X5856587Y-15042127D01*
X5870873Y-15013556D01*
X5885158Y-14999270D01*
X5913730Y-14984984D01*
X6142301Y-15256413D02*
X6156587Y-15270699D01*
X6142301Y-15284984D01*
X6128016Y-15270699D01*
X6142301Y-15256413D01*
X6142301Y-15284984D01*
X6342301Y-14984984D02*
X6370873Y-14984984D01*
X6399444Y-14999270D01*
X6413730Y-15013556D01*
X6428016Y-15042127D01*
X6442301Y-15099270D01*
X6442301Y-15170699D01*
X6428016Y-15227841D01*
X6413730Y-15256413D01*
X6399444Y-15270699D01*
X6370873Y-15284984D01*
X6342301Y-15284984D01*
X6313730Y-15270699D01*
X6299444Y-15256413D01*
X6285158Y-15227841D01*
X6270873Y-15170699D01*
X6270873Y-15099270D01*
X6285158Y-15042127D01*
X6299444Y-15013556D01*
X6313730Y-14999270D01*
X6342301Y-14984984D01*
X6542301Y-14984984D02*
X6728016Y-14984984D01*
X6628016Y-15099270D01*
X6670873Y-15099270D01*
X6699444Y-15113556D01*
X6713730Y-15127841D01*
X6728016Y-15156413D01*
X6728016Y-15227841D01*
X6713730Y-15256413D01*
X6699444Y-15270699D01*
X6670873Y-15284984D01*
X6585158Y-15284984D01*
X6556587Y-15270699D01*
X6542301Y-15256413D01*
X6913730Y-14984984D02*
X6942301Y-14984984D01*
X6970873Y-14999270D01*
X6985158Y-15013556D01*
X6999444Y-15042127D01*
X7013730Y-15099270D01*
X7013730Y-15170699D01*
X6999444Y-15227841D01*
X6985158Y-15256413D01*
X6970873Y-15270699D01*
X6942301Y-15284984D01*
X6913730Y-15284984D01*
X6885158Y-15270699D01*
X6870873Y-15256413D01*
X6856587Y-15227841D01*
X6842301Y-15170699D01*
X6842301Y-15099270D01*
X6856587Y-15042127D01*
X6870873Y-15013556D01*
X6885158Y-14999270D01*
X6913730Y-14984984D01*
X7128016Y-14984984D02*
X7128016Y-15042127D01*
X7242301Y-14984984D02*
X7242301Y-15042127D01*
X7685158Y-15399270D02*
X7670873Y-15384984D01*
X7642301Y-15342127D01*
X7628016Y-15313556D01*
X7613730Y-15270699D01*
X7599444Y-15199270D01*
X7599444Y-15142127D01*
X7613730Y-15070699D01*
X7628016Y-15027841D01*
X7642301Y-14999270D01*
X7670873Y-14956413D01*
X7685158Y-14942127D01*
X7942301Y-14984984D02*
X7799444Y-14984984D01*
X7785158Y-15127841D01*
X7799444Y-15113556D01*
X7828016Y-15099270D01*
X7899444Y-15099270D01*
X7928016Y-15113556D01*
X7942301Y-15127841D01*
X7956587Y-15156413D01*
X7956587Y-15227841D01*
X7942301Y-15256413D01*
X7928016Y-15270699D01*
X7899444Y-15284984D01*
X7828016Y-15284984D01*
X7799444Y-15270699D01*
X7785158Y-15256413D01*
X8213730Y-14984984D02*
X8156587Y-14984984D01*
X8128016Y-14999270D01*
X8113730Y-15013556D01*
X8085158Y-15056413D01*
X8070873Y-15113556D01*
X8070873Y-15227841D01*
X8085158Y-15256413D01*
X8099444Y-15270699D01*
X8128016Y-15284984D01*
X8185158Y-15284984D01*
X8213730Y-15270699D01*
X8228016Y-15256413D01*
X8242301Y-15227841D01*
X8242301Y-15156413D01*
X8228016Y-15127841D01*
X8213730Y-15113556D01*
X8185158Y-15099270D01*
X8128016Y-15099270D01*
X8099444Y-15113556D01*
X8085158Y-15127841D01*
X8070873Y-15156413D01*
X8599444Y-15284984D02*
X8599444Y-14984984D01*
X8728016Y-15284984D02*
X8728016Y-15127841D01*
X8713730Y-15099270D01*
X8685158Y-15084984D01*
X8642301Y-15084984D01*
X8613730Y-15099270D01*
X8599444Y-15113556D01*
X8913730Y-15284984D02*
X8885158Y-15270699D01*
X8870873Y-15256413D01*
X8856587Y-15227841D01*
X8856587Y-15142127D01*
X8870873Y-15113556D01*
X8885158Y-15099270D01*
X8913730Y-15084984D01*
X8956587Y-15084984D01*
X8985158Y-15099270D01*
X8999444Y-15113556D01*
X9013730Y-15142127D01*
X9013730Y-15227841D01*
X8999444Y-15256413D01*
X8985158Y-15270699D01*
X8956587Y-15284984D01*
X8913730Y-15284984D01*
X9185158Y-15284984D02*
X9156587Y-15270699D01*
X9142301Y-15242127D01*
X9142301Y-14984984D01*
X9413730Y-15270699D02*
X9385158Y-15284984D01*
X9328016Y-15284984D01*
X9299444Y-15270699D01*
X9285158Y-15242127D01*
X9285158Y-15127841D01*
X9299444Y-15099270D01*
X9328016Y-15084984D01*
X9385158Y-15084984D01*
X9413730Y-15099270D01*
X9428016Y-15127841D01*
X9428016Y-15156413D01*
X9285158Y-15184984D01*
X9542301Y-15270699D02*
X9570873Y-15284984D01*
X9628016Y-15284984D01*
X9656587Y-15270699D01*
X9670873Y-15242127D01*
X9670873Y-15227841D01*
X9656587Y-15199270D01*
X9628016Y-15184984D01*
X9585158Y-15184984D01*
X9556587Y-15170699D01*
X9542301Y-15142127D01*
X9542301Y-15127841D01*
X9556587Y-15099270D01*
X9585158Y-15084984D01*
X9628016Y-15084984D01*
X9656587Y-15099270D01*
X9770873Y-15399270D02*
X9785158Y-15384984D01*
X9813730Y-15342127D01*
X9828016Y-15313556D01*
X9842301Y-15270699D01*
X9856587Y-15199270D01*
X9856587Y-15142127D01*
X9842301Y-15070699D01*
X9828016Y-15027841D01*
X9813730Y-14999270D01*
X9785158Y-14956413D01*
X9770873Y-14942127D01*
X2958730Y-15585270D02*
X2998730Y-15545270D01*
X2958730Y-15505270D01*
X2918730Y-15545270D01*
X2958730Y-15585270D01*
X3342301Y-15380984D02*
X3370873Y-15380984D01*
X3399444Y-15395270D01*
X3413730Y-15409556D01*
X3428016Y-15438127D01*
X3442301Y-15495270D01*
X3442301Y-15566699D01*
X3428016Y-15623841D01*
X3413730Y-15652413D01*
X3399444Y-15666699D01*
X3370873Y-15680984D01*
X3342301Y-15680984D01*
X3313730Y-15666699D01*
X3299444Y-15652413D01*
X3285158Y-15623841D01*
X3270873Y-15566699D01*
X3270873Y-15495270D01*
X3285158Y-15438127D01*
X3299444Y-15409556D01*
X3313730Y-15395270D01*
X3342301Y-15380984D01*
X3570873Y-15652413D02*
X3585158Y-15666699D01*
X3570873Y-15680984D01*
X3556587Y-15666699D01*
X3570873Y-15652413D01*
X3570873Y-15680984D01*
X3756587Y-15509556D02*
X3728016Y-15495270D01*
X3713730Y-15480984D01*
X3699444Y-15452413D01*
X3699444Y-15438127D01*
X3713730Y-15409556D01*
X3728016Y-15395270D01*
X3756587Y-15380984D01*
X3813730Y-15380984D01*
X3842301Y-15395270D01*
X3856587Y-15409556D01*
X3870873Y-15438127D01*
X3870873Y-15452413D01*
X3856587Y-15480984D01*
X3842301Y-15495270D01*
X3813730Y-15509556D01*
X3756587Y-15509556D01*
X3728016Y-15523841D01*
X3713730Y-15538127D01*
X3699444Y-15566699D01*
X3699444Y-15623841D01*
X3713730Y-15652413D01*
X3728016Y-15666699D01*
X3756587Y-15680984D01*
X3813730Y-15680984D01*
X3842301Y-15666699D01*
X3856587Y-15652413D01*
X3870873Y-15623841D01*
X3870873Y-15566699D01*
X3856587Y-15538127D01*
X3842301Y-15523841D01*
X3813730Y-15509556D01*
X4056587Y-15380984D02*
X4085158Y-15380984D01*
X4113730Y-15395270D01*
X4128016Y-15409556D01*
X4142301Y-15438127D01*
X4156587Y-15495270D01*
X4156587Y-15566699D01*
X4142301Y-15623841D01*
X4128016Y-15652413D01*
X4113730Y-15666699D01*
X4085158Y-15680984D01*
X4056587Y-15680984D01*
X4028016Y-15666699D01*
X4013730Y-15652413D01*
X3999444Y-15623841D01*
X3985158Y-15566699D01*
X3985158Y-15495270D01*
X3999444Y-15438127D01*
X4013730Y-15409556D01*
X4028016Y-15395270D01*
X4056587Y-15380984D01*
X4285158Y-15680984D02*
X4285158Y-15480984D01*
X4285158Y-15509556D02*
X4299444Y-15495270D01*
X4328016Y-15480984D01*
X4370873Y-15480984D01*
X4399444Y-15495270D01*
X4413730Y-15523841D01*
X4413730Y-15680984D01*
X4413730Y-15523841D02*
X4428016Y-15495270D01*
X4456587Y-15480984D01*
X4499444Y-15480984D01*
X4528016Y-15495270D01*
X4542301Y-15523841D01*
X4542301Y-15680984D01*
X4685158Y-15680984D02*
X4685158Y-15480984D01*
X4685158Y-15509556D02*
X4699444Y-15495270D01*
X4728016Y-15480984D01*
X4770873Y-15480984D01*
X4799444Y-15495270D01*
X4813730Y-15523841D01*
X4813730Y-15680984D01*
X4813730Y-15523841D02*
X4828016Y-15495270D01*
X4856587Y-15480984D01*
X4899444Y-15480984D01*
X4928016Y-15495270D01*
X4942301Y-15523841D01*
X4942301Y-15680984D01*
X5528016Y-15366699D02*
X5270873Y-15752413D01*
X5913730Y-15380984D02*
X5942301Y-15380984D01*
X5970873Y-15395270D01*
X5985158Y-15409556D01*
X5999444Y-15438127D01*
X6013730Y-15495270D01*
X6013730Y-15566699D01*
X5999444Y-15623841D01*
X5985158Y-15652413D01*
X5970873Y-15666699D01*
X5942301Y-15680984D01*
X5913730Y-15680984D01*
X5885158Y-15666699D01*
X5870873Y-15652413D01*
X5856587Y-15623841D01*
X5842301Y-15566699D01*
X5842301Y-15495270D01*
X5856587Y-15438127D01*
X5870873Y-15409556D01*
X5885158Y-15395270D01*
X5913730Y-15380984D01*
X6142301Y-15652413D02*
X6156587Y-15666699D01*
X6142301Y-15680984D01*
X6128016Y-15666699D01*
X6142301Y-15652413D01*
X6142301Y-15680984D01*
X6342301Y-15380984D02*
X6370873Y-15380984D01*
X6399444Y-15395270D01*
X6413730Y-15409556D01*
X6428016Y-15438127D01*
X6442301Y-15495270D01*
X6442301Y-15566699D01*
X6428016Y-15623841D01*
X6413730Y-15652413D01*
X6399444Y-15666699D01*
X6370873Y-15680984D01*
X6342301Y-15680984D01*
X6313730Y-15666699D01*
X6299444Y-15652413D01*
X6285158Y-15623841D01*
X6270873Y-15566699D01*
X6270873Y-15495270D01*
X6285158Y-15438127D01*
X6299444Y-15409556D01*
X6313730Y-15395270D01*
X6342301Y-15380984D01*
X6542301Y-15380984D02*
X6728016Y-15380984D01*
X6628016Y-15495270D01*
X6670873Y-15495270D01*
X6699444Y-15509556D01*
X6713730Y-15523841D01*
X6728016Y-15552413D01*
X6728016Y-15623841D01*
X6713730Y-15652413D01*
X6699444Y-15666699D01*
X6670873Y-15680984D01*
X6585158Y-15680984D01*
X6556587Y-15666699D01*
X6542301Y-15652413D01*
X7013730Y-15680984D02*
X6842301Y-15680984D01*
X6928016Y-15680984D02*
X6928016Y-15380984D01*
X6899444Y-15423841D01*
X6870873Y-15452413D01*
X6842301Y-15466699D01*
X7128016Y-15380984D02*
X7128016Y-15438127D01*
X7242301Y-15380984D02*
X7242301Y-15438127D01*
X7685158Y-15795270D02*
X7670873Y-15780984D01*
X7642301Y-15738127D01*
X7628016Y-15709556D01*
X7613730Y-15666699D01*
X7599444Y-15595270D01*
X7599444Y-15538127D01*
X7613730Y-15466699D01*
X7628016Y-15423841D01*
X7642301Y-15395270D01*
X7670873Y-15352413D01*
X7685158Y-15338127D01*
X7956587Y-15680984D02*
X7785158Y-15680984D01*
X7870873Y-15680984D02*
X7870873Y-15380984D01*
X7842301Y-15423841D01*
X7813730Y-15452413D01*
X7785158Y-15466699D01*
X8128016Y-15509556D02*
X8099444Y-15495270D01*
X8085158Y-15480984D01*
X8070873Y-15452413D01*
X8070873Y-15438127D01*
X8085158Y-15409556D01*
X8099444Y-15395270D01*
X8128016Y-15380984D01*
X8185158Y-15380984D01*
X8213730Y-15395270D01*
X8228016Y-15409556D01*
X8242301Y-15438127D01*
X8242301Y-15452413D01*
X8228016Y-15480984D01*
X8213730Y-15495270D01*
X8185158Y-15509556D01*
X8128016Y-15509556D01*
X8099444Y-15523841D01*
X8085158Y-15538127D01*
X8070873Y-15566699D01*
X8070873Y-15623841D01*
X8085158Y-15652413D01*
X8099444Y-15666699D01*
X8128016Y-15680984D01*
X8185158Y-15680984D01*
X8213730Y-15666699D01*
X8228016Y-15652413D01*
X8242301Y-15623841D01*
X8242301Y-15566699D01*
X8228016Y-15538127D01*
X8213730Y-15523841D01*
X8185158Y-15509556D01*
X8413730Y-15509556D02*
X8385158Y-15495270D01*
X8370873Y-15480984D01*
X8356587Y-15452413D01*
X8356587Y-15438127D01*
X8370873Y-15409556D01*
X8385158Y-15395270D01*
X8413730Y-15380984D01*
X8470873Y-15380984D01*
X8499444Y-15395270D01*
X8513730Y-15409556D01*
X8528016Y-15438127D01*
X8528016Y-15452413D01*
X8513730Y-15480984D01*
X8499444Y-15495270D01*
X8470873Y-15509556D01*
X8413730Y-15509556D01*
X8385158Y-15523841D01*
X8370873Y-15538127D01*
X8356587Y-15566699D01*
X8356587Y-15623841D01*
X8370873Y-15652413D01*
X8385158Y-15666699D01*
X8413730Y-15680984D01*
X8470873Y-15680984D01*
X8499444Y-15666699D01*
X8513730Y-15652413D01*
X8528016Y-15623841D01*
X8528016Y-15566699D01*
X8513730Y-15538127D01*
X8499444Y-15523841D01*
X8470873Y-15509556D01*
X8885158Y-15680984D02*
X8885158Y-15380984D01*
X9013730Y-15680984D02*
X9013730Y-15523841D01*
X8999444Y-15495270D01*
X8970873Y-15480984D01*
X8928016Y-15480984D01*
X8899444Y-15495270D01*
X8885158Y-15509556D01*
X9199444Y-15680984D02*
X9170873Y-15666699D01*
X9156587Y-15652413D01*
X9142301Y-15623841D01*
X9142301Y-15538127D01*
X9156587Y-15509556D01*
X9170873Y-15495270D01*
X9199444Y-15480984D01*
X9242301Y-15480984D01*
X9270873Y-15495270D01*
X9285158Y-15509556D01*
X9299444Y-15538127D01*
X9299444Y-15623841D01*
X9285158Y-15652413D01*
X9270873Y-15666699D01*
X9242301Y-15680984D01*
X9199444Y-15680984D01*
X9470873Y-15680984D02*
X9442301Y-15666699D01*
X9428016Y-15638127D01*
X9428016Y-15380984D01*
X9699444Y-15666699D02*
X9670873Y-15680984D01*
X9613730Y-15680984D01*
X9585158Y-15666699D01*
X9570873Y-15638127D01*
X9570873Y-15523841D01*
X9585158Y-15495270D01*
X9613730Y-15480984D01*
X9670873Y-15480984D01*
X9699444Y-15495270D01*
X9713730Y-15523841D01*
X9713730Y-15552413D01*
X9570873Y-15580984D01*
X9828016Y-15666699D02*
X9856587Y-15680984D01*
X9913730Y-15680984D01*
X9942301Y-15666699D01*
X9956587Y-15638127D01*
X9956587Y-15623841D01*
X9942301Y-15595270D01*
X9913730Y-15580984D01*
X9870873Y-15580984D01*
X9842301Y-15566699D01*
X9828016Y-15538127D01*
X9828016Y-15523841D01*
X9842301Y-15495270D01*
X9870873Y-15480984D01*
X9913730Y-15480984D01*
X9942301Y-15495270D01*
X10056587Y-15795270D02*
X10070873Y-15780984D01*
X10099444Y-15738127D01*
X10113730Y-15709556D01*
X10128016Y-15666699D01*
X10142301Y-15595270D01*
X10142301Y-15538127D01*
X10128016Y-15466699D01*
X10113730Y-15423841D01*
X10099444Y-15395270D01*
X10070873Y-15352413D01*
X10056587Y-15338127D01*
X2908730Y-15896270D02*
X2998730Y-15986270D01*
X2998730Y-15896270D02*
X2908730Y-15986270D01*
X2998730Y-15941270D02*
G75*
G03*
X2998730Y-15941270I-45000J0D01*
G01*
X3342301Y-15776984D02*
X3370873Y-15776984D01*
X3399444Y-15791270D01*
X3413730Y-15805556D01*
X3428016Y-15834127D01*
X3442301Y-15891270D01*
X3442301Y-15962699D01*
X3428016Y-16019841D01*
X3413730Y-16048413D01*
X3399444Y-16062699D01*
X3370873Y-16076984D01*
X3342301Y-16076984D01*
X3313730Y-16062699D01*
X3299444Y-16048413D01*
X3285158Y-16019841D01*
X3270873Y-15962699D01*
X3270873Y-15891270D01*
X3285158Y-15834127D01*
X3299444Y-15805556D01*
X3313730Y-15791270D01*
X3342301Y-15776984D01*
X3570873Y-16048413D02*
X3585158Y-16062699D01*
X3570873Y-16076984D01*
X3556587Y-16062699D01*
X3570873Y-16048413D01*
X3570873Y-16076984D01*
X3728016Y-16076984D02*
X3785158Y-16076984D01*
X3813730Y-16062699D01*
X3828016Y-16048413D01*
X3856587Y-16005556D01*
X3870873Y-15948413D01*
X3870873Y-15834127D01*
X3856587Y-15805556D01*
X3842301Y-15791270D01*
X3813730Y-15776984D01*
X3756587Y-15776984D01*
X3728016Y-15791270D01*
X3713730Y-15805556D01*
X3699444Y-15834127D01*
X3699444Y-15905556D01*
X3713730Y-15934127D01*
X3728016Y-15948413D01*
X3756587Y-15962699D01*
X3813730Y-15962699D01*
X3842301Y-15948413D01*
X3856587Y-15934127D01*
X3870873Y-15905556D01*
X4056587Y-15776984D02*
X4085158Y-15776984D01*
X4113730Y-15791270D01*
X4128016Y-15805556D01*
X4142301Y-15834127D01*
X4156587Y-15891270D01*
X4156587Y-15962699D01*
X4142301Y-16019841D01*
X4128016Y-16048413D01*
X4113730Y-16062699D01*
X4085158Y-16076984D01*
X4056587Y-16076984D01*
X4028016Y-16062699D01*
X4013730Y-16048413D01*
X3999444Y-16019841D01*
X3985158Y-15962699D01*
X3985158Y-15891270D01*
X3999444Y-15834127D01*
X4013730Y-15805556D01*
X4028016Y-15791270D01*
X4056587Y-15776984D01*
X4285158Y-16076984D02*
X4285158Y-15876984D01*
X4285158Y-15905556D02*
X4299444Y-15891270D01*
X4328016Y-15876984D01*
X4370873Y-15876984D01*
X4399444Y-15891270D01*
X4413730Y-15919841D01*
X4413730Y-16076984D01*
X4413730Y-15919841D02*
X4428016Y-15891270D01*
X4456587Y-15876984D01*
X4499444Y-15876984D01*
X4528016Y-15891270D01*
X4542301Y-15919841D01*
X4542301Y-16076984D01*
X4685158Y-16076984D02*
X4685158Y-15876984D01*
X4685158Y-15905556D02*
X4699444Y-15891270D01*
X4728016Y-15876984D01*
X4770873Y-15876984D01*
X4799444Y-15891270D01*
X4813730Y-15919841D01*
X4813730Y-16076984D01*
X4813730Y-15919841D02*
X4828016Y-15891270D01*
X4856587Y-15876984D01*
X4899444Y-15876984D01*
X4928016Y-15891270D01*
X4942301Y-15919841D01*
X4942301Y-16076984D01*
X5528016Y-15762699D02*
X5270873Y-16148413D01*
X5913730Y-15776984D02*
X5942301Y-15776984D01*
X5970873Y-15791270D01*
X5985158Y-15805556D01*
X5999444Y-15834127D01*
X6013730Y-15891270D01*
X6013730Y-15962699D01*
X5999444Y-16019841D01*
X5985158Y-16048413D01*
X5970873Y-16062699D01*
X5942301Y-16076984D01*
X5913730Y-16076984D01*
X5885158Y-16062699D01*
X5870873Y-16048413D01*
X5856587Y-16019841D01*
X5842301Y-15962699D01*
X5842301Y-15891270D01*
X5856587Y-15834127D01*
X5870873Y-15805556D01*
X5885158Y-15791270D01*
X5913730Y-15776984D01*
X6142301Y-16048413D02*
X6156587Y-16062699D01*
X6142301Y-16076984D01*
X6128016Y-16062699D01*
X6142301Y-16048413D01*
X6142301Y-16076984D01*
X6342301Y-15776984D02*
X6370873Y-15776984D01*
X6399444Y-15791270D01*
X6413730Y-15805556D01*
X6428016Y-15834127D01*
X6442301Y-15891270D01*
X6442301Y-15962699D01*
X6428016Y-16019841D01*
X6413730Y-16048413D01*
X6399444Y-16062699D01*
X6370873Y-16076984D01*
X6342301Y-16076984D01*
X6313730Y-16062699D01*
X6299444Y-16048413D01*
X6285158Y-16019841D01*
X6270873Y-15962699D01*
X6270873Y-15891270D01*
X6285158Y-15834127D01*
X6299444Y-15805556D01*
X6313730Y-15791270D01*
X6342301Y-15776984D01*
X6542301Y-15776984D02*
X6728016Y-15776984D01*
X6628016Y-15891270D01*
X6670873Y-15891270D01*
X6699444Y-15905556D01*
X6713730Y-15919841D01*
X6728016Y-15948413D01*
X6728016Y-16019841D01*
X6713730Y-16048413D01*
X6699444Y-16062699D01*
X6670873Y-16076984D01*
X6585158Y-16076984D01*
X6556587Y-16062699D01*
X6542301Y-16048413D01*
X6999444Y-15776984D02*
X6856587Y-15776984D01*
X6842301Y-15919841D01*
X6856587Y-15905556D01*
X6885158Y-15891270D01*
X6956587Y-15891270D01*
X6985158Y-15905556D01*
X6999444Y-15919841D01*
X7013730Y-15948413D01*
X7013730Y-16019841D01*
X6999444Y-16048413D01*
X6985158Y-16062699D01*
X6956587Y-16076984D01*
X6885158Y-16076984D01*
X6856587Y-16062699D01*
X6842301Y-16048413D01*
X7128016Y-15776984D02*
X7128016Y-15834127D01*
X7242301Y-15776984D02*
X7242301Y-15834127D01*
X7685158Y-16191270D02*
X7670873Y-16176984D01*
X7642301Y-16134127D01*
X7628016Y-16105556D01*
X7613730Y-16062699D01*
X7599444Y-15991270D01*
X7599444Y-15934127D01*
X7613730Y-15862699D01*
X7628016Y-15819841D01*
X7642301Y-15791270D01*
X7670873Y-15748413D01*
X7685158Y-15734127D01*
X7856587Y-15776984D02*
X7885158Y-15776984D01*
X7913730Y-15791270D01*
X7928016Y-15805556D01*
X7942301Y-15834127D01*
X7956587Y-15891270D01*
X7956587Y-15962699D01*
X7942301Y-16019841D01*
X7928016Y-16048413D01*
X7913730Y-16062699D01*
X7885158Y-16076984D01*
X7856587Y-16076984D01*
X7828016Y-16062699D01*
X7813730Y-16048413D01*
X7799444Y-16019841D01*
X7785158Y-15962699D01*
X7785158Y-15891270D01*
X7799444Y-15834127D01*
X7813730Y-15805556D01*
X7828016Y-15791270D01*
X7856587Y-15776984D01*
X8313730Y-16076984D02*
X8313730Y-15776984D01*
X8442301Y-16076984D02*
X8442301Y-15919841D01*
X8428016Y-15891270D01*
X8399444Y-15876984D01*
X8356587Y-15876984D01*
X8328016Y-15891270D01*
X8313730Y-15905556D01*
X8628016Y-16076984D02*
X8599444Y-16062699D01*
X8585158Y-16048413D01*
X8570873Y-16019841D01*
X8570873Y-15934127D01*
X8585158Y-15905556D01*
X8599444Y-15891270D01*
X8628016Y-15876984D01*
X8670873Y-15876984D01*
X8699444Y-15891270D01*
X8713730Y-15905556D01*
X8728016Y-15934127D01*
X8728016Y-16019841D01*
X8713730Y-16048413D01*
X8699444Y-16062699D01*
X8670873Y-16076984D01*
X8628016Y-16076984D01*
X8899444Y-16076984D02*
X8870873Y-16062699D01*
X8856587Y-16034127D01*
X8856587Y-15776984D01*
X9128016Y-16062699D02*
X9099444Y-16076984D01*
X9042301Y-16076984D01*
X9013730Y-16062699D01*
X8999444Y-16034127D01*
X8999444Y-15919841D01*
X9013730Y-15891270D01*
X9042301Y-15876984D01*
X9099444Y-15876984D01*
X9128016Y-15891270D01*
X9142301Y-15919841D01*
X9142301Y-15948413D01*
X8999444Y-15976984D01*
X9256587Y-16062699D02*
X9285158Y-16076984D01*
X9342301Y-16076984D01*
X9370873Y-16062699D01*
X9385158Y-16034127D01*
X9385158Y-16019841D01*
X9370873Y-15991270D01*
X9342301Y-15976984D01*
X9299444Y-15976984D01*
X9270873Y-15962699D01*
X9256587Y-15934127D01*
X9256587Y-15919841D01*
X9270873Y-15891270D01*
X9299444Y-15876984D01*
X9342301Y-15876984D01*
X9370873Y-15891270D01*
X9742301Y-15962699D02*
X9970873Y-15962699D01*
X9856587Y-16076984D02*
X9856587Y-15848413D01*
X10328016Y-15805556D02*
X10342301Y-15791270D01*
X10370873Y-15776984D01*
X10442301Y-15776984D01*
X10470873Y-15791270D01*
X10485158Y-15805556D01*
X10499444Y-15834127D01*
X10499444Y-15862699D01*
X10485158Y-15905556D01*
X10313730Y-16076984D01*
X10499444Y-16076984D01*
X10842301Y-16062699D02*
X10870873Y-16076984D01*
X10928016Y-16076984D01*
X10956587Y-16062699D01*
X10970873Y-16034127D01*
X10970873Y-16019841D01*
X10956587Y-15991270D01*
X10928016Y-15976984D01*
X10885158Y-15976984D01*
X10856587Y-15962699D01*
X10842301Y-15934127D01*
X10842301Y-15919841D01*
X10856587Y-15891270D01*
X10885158Y-15876984D01*
X10928016Y-15876984D01*
X10956587Y-15891270D01*
X11142301Y-16076984D02*
X11113730Y-16062699D01*
X11099444Y-16034127D01*
X11099444Y-15776984D01*
X11299444Y-16076984D02*
X11270873Y-16062699D01*
X11256587Y-16048413D01*
X11242301Y-16019841D01*
X11242301Y-15934127D01*
X11256587Y-15905556D01*
X11270873Y-15891270D01*
X11299444Y-15876984D01*
X11342301Y-15876984D01*
X11370873Y-15891270D01*
X11385158Y-15905556D01*
X11399444Y-15934127D01*
X11399444Y-16019841D01*
X11385158Y-16048413D01*
X11370873Y-16062699D01*
X11342301Y-16076984D01*
X11299444Y-16076984D01*
X11485158Y-15876984D02*
X11599444Y-15876984D01*
X11528016Y-15776984D02*
X11528016Y-16034127D01*
X11542301Y-16062699D01*
X11570873Y-16076984D01*
X11599444Y-16076984D01*
X11685158Y-16062699D02*
X11713730Y-16076984D01*
X11770873Y-16076984D01*
X11799444Y-16062699D01*
X11813730Y-16034127D01*
X11813730Y-16019841D01*
X11799444Y-15991270D01*
X11770873Y-15976984D01*
X11728016Y-15976984D01*
X11699444Y-15962699D01*
X11685158Y-15934127D01*
X11685158Y-15919841D01*
X11699444Y-15891270D01*
X11728016Y-15876984D01*
X11770873Y-15876984D01*
X11799444Y-15891270D01*
X11913730Y-16191270D02*
X11928016Y-16176984D01*
X11956587Y-16134127D01*
X11970873Y-16105556D01*
X11985158Y-16062699D01*
X11999444Y-15991270D01*
X11999444Y-15934127D01*
X11985158Y-15862699D01*
X11970873Y-15819841D01*
X11956587Y-15791270D01*
X11928016Y-15748413D01*
X11913730Y-15734127D01*
X2898730Y-16287270D02*
X2998730Y-16387270D01*
X2998730Y-16287270D02*
X2898730Y-16387270D01*
X2948730Y-16287270D02*
X2948730Y-16387270D01*
X2898730Y-16337270D02*
X2998730Y-16337270D01*
X3442301Y-16472984D02*
X3270873Y-16472984D01*
X3356587Y-16472984D02*
X3356587Y-16172984D01*
X3328016Y-16215841D01*
X3299444Y-16244413D01*
X3270873Y-16258699D01*
X3570873Y-16444413D02*
X3585158Y-16458699D01*
X3570873Y-16472984D01*
X3556587Y-16458699D01*
X3570873Y-16444413D01*
X3570873Y-16472984D01*
X3770873Y-16172984D02*
X3799444Y-16172984D01*
X3828016Y-16187270D01*
X3842301Y-16201556D01*
X3856587Y-16230127D01*
X3870873Y-16287270D01*
X3870873Y-16358699D01*
X3856587Y-16415841D01*
X3842301Y-16444413D01*
X3828016Y-16458699D01*
X3799444Y-16472984D01*
X3770873Y-16472984D01*
X3742301Y-16458699D01*
X3728016Y-16444413D01*
X3713730Y-16415841D01*
X3699444Y-16358699D01*
X3699444Y-16287270D01*
X3713730Y-16230127D01*
X3728016Y-16201556D01*
X3742301Y-16187270D01*
X3770873Y-16172984D01*
X4056587Y-16172984D02*
X4085158Y-16172984D01*
X4113730Y-16187270D01*
X4128016Y-16201556D01*
X4142301Y-16230127D01*
X4156587Y-16287270D01*
X4156587Y-16358699D01*
X4142301Y-16415841D01*
X4128016Y-16444413D01*
X4113730Y-16458699D01*
X4085158Y-16472984D01*
X4056587Y-16472984D01*
X4028016Y-16458699D01*
X4013730Y-16444413D01*
X3999444Y-16415841D01*
X3985158Y-16358699D01*
X3985158Y-16287270D01*
X3999444Y-16230127D01*
X4013730Y-16201556D01*
X4028016Y-16187270D01*
X4056587Y-16172984D01*
X4285158Y-16472984D02*
X4285158Y-16272984D01*
X4285158Y-16301556D02*
X4299444Y-16287270D01*
X4328016Y-16272984D01*
X4370873Y-16272984D01*
X4399444Y-16287270D01*
X4413730Y-16315841D01*
X4413730Y-16472984D01*
X4413730Y-16315841D02*
X4428016Y-16287270D01*
X4456587Y-16272984D01*
X4499444Y-16272984D01*
X4528016Y-16287270D01*
X4542301Y-16315841D01*
X4542301Y-16472984D01*
X4685158Y-16472984D02*
X4685158Y-16272984D01*
X4685158Y-16301556D02*
X4699444Y-16287270D01*
X4728016Y-16272984D01*
X4770873Y-16272984D01*
X4799444Y-16287270D01*
X4813730Y-16315841D01*
X4813730Y-16472984D01*
X4813730Y-16315841D02*
X4828016Y-16287270D01*
X4856587Y-16272984D01*
X4899444Y-16272984D01*
X4928016Y-16287270D01*
X4942301Y-16315841D01*
X4942301Y-16472984D01*
X5528016Y-16158699D02*
X5270873Y-16544413D01*
X5913730Y-16172984D02*
X5942301Y-16172984D01*
X5970873Y-16187270D01*
X5985158Y-16201556D01*
X5999444Y-16230127D01*
X6013730Y-16287270D01*
X6013730Y-16358699D01*
X5999444Y-16415841D01*
X5985158Y-16444413D01*
X5970873Y-16458699D01*
X5942301Y-16472984D01*
X5913730Y-16472984D01*
X5885158Y-16458699D01*
X5870873Y-16444413D01*
X5856587Y-16415841D01*
X5842301Y-16358699D01*
X5842301Y-16287270D01*
X5856587Y-16230127D01*
X5870873Y-16201556D01*
X5885158Y-16187270D01*
X5913730Y-16172984D01*
X6142301Y-16444413D02*
X6156587Y-16458699D01*
X6142301Y-16472984D01*
X6128016Y-16458699D01*
X6142301Y-16444413D01*
X6142301Y-16472984D01*
X6342301Y-16172984D02*
X6370873Y-16172984D01*
X6399444Y-16187270D01*
X6413730Y-16201556D01*
X6428016Y-16230127D01*
X6442301Y-16287270D01*
X6442301Y-16358699D01*
X6428016Y-16415841D01*
X6413730Y-16444413D01*
X6399444Y-16458699D01*
X6370873Y-16472984D01*
X6342301Y-16472984D01*
X6313730Y-16458699D01*
X6299444Y-16444413D01*
X6285158Y-16415841D01*
X6270873Y-16358699D01*
X6270873Y-16287270D01*
X6285158Y-16230127D01*
X6299444Y-16201556D01*
X6313730Y-16187270D01*
X6342301Y-16172984D01*
X6542301Y-16172984D02*
X6728016Y-16172984D01*
X6628016Y-16287270D01*
X6670873Y-16287270D01*
X6699444Y-16301556D01*
X6713730Y-16315841D01*
X6728016Y-16344413D01*
X6728016Y-16415841D01*
X6713730Y-16444413D01*
X6699444Y-16458699D01*
X6670873Y-16472984D01*
X6585158Y-16472984D01*
X6556587Y-16458699D01*
X6542301Y-16444413D01*
X6870873Y-16472984D02*
X6928016Y-16472984D01*
X6956587Y-16458699D01*
X6970873Y-16444413D01*
X6999444Y-16401556D01*
X7013730Y-16344413D01*
X7013730Y-16230127D01*
X6999444Y-16201556D01*
X6985158Y-16187270D01*
X6956587Y-16172984D01*
X6899444Y-16172984D01*
X6870873Y-16187270D01*
X6856587Y-16201556D01*
X6842301Y-16230127D01*
X6842301Y-16301556D01*
X6856587Y-16330127D01*
X6870873Y-16344413D01*
X6899444Y-16358699D01*
X6956587Y-16358699D01*
X6985158Y-16344413D01*
X6999444Y-16330127D01*
X7013730Y-16301556D01*
X7128016Y-16172984D02*
X7128016Y-16230127D01*
X7242301Y-16172984D02*
X7242301Y-16230127D01*
X7685158Y-16587270D02*
X7670873Y-16572984D01*
X7642301Y-16530127D01*
X7628016Y-16501556D01*
X7613730Y-16458699D01*
X7599444Y-16387270D01*
X7599444Y-16330127D01*
X7613730Y-16258699D01*
X7628016Y-16215841D01*
X7642301Y-16187270D01*
X7670873Y-16144413D01*
X7685158Y-16130127D01*
X7928016Y-16272984D02*
X7928016Y-16472984D01*
X7856587Y-16158699D02*
X7785158Y-16372984D01*
X7970873Y-16372984D01*
X8070873Y-16201556D02*
X8085158Y-16187270D01*
X8113730Y-16172984D01*
X8185158Y-16172984D01*
X8213730Y-16187270D01*
X8228016Y-16201556D01*
X8242301Y-16230127D01*
X8242301Y-16258699D01*
X8228016Y-16301556D01*
X8056587Y-16472984D01*
X8242301Y-16472984D01*
X8599444Y-16472984D02*
X8599444Y-16172984D01*
X8728016Y-16472984D02*
X8728016Y-16315841D01*
X8713730Y-16287270D01*
X8685158Y-16272984D01*
X8642301Y-16272984D01*
X8613730Y-16287270D01*
X8599444Y-16301556D01*
X8913730Y-16472984D02*
X8885158Y-16458699D01*
X8870873Y-16444413D01*
X8856587Y-16415841D01*
X8856587Y-16330127D01*
X8870873Y-16301556D01*
X8885158Y-16287270D01*
X8913730Y-16272984D01*
X8956587Y-16272984D01*
X8985158Y-16287270D01*
X8999444Y-16301556D01*
X9013730Y-16330127D01*
X9013730Y-16415841D01*
X8999444Y-16444413D01*
X8985158Y-16458699D01*
X8956587Y-16472984D01*
X8913730Y-16472984D01*
X9185158Y-16472984D02*
X9156587Y-16458699D01*
X9142301Y-16430127D01*
X9142301Y-16172984D01*
X9413730Y-16458699D02*
X9385158Y-16472984D01*
X9328016Y-16472984D01*
X9299444Y-16458699D01*
X9285158Y-16430127D01*
X9285158Y-16315841D01*
X9299444Y-16287270D01*
X9328016Y-16272984D01*
X9385158Y-16272984D01*
X9413730Y-16287270D01*
X9428016Y-16315841D01*
X9428016Y-16344413D01*
X9285158Y-16372984D01*
X9542301Y-16458699D02*
X9570873Y-16472984D01*
X9628016Y-16472984D01*
X9656587Y-16458699D01*
X9670873Y-16430127D01*
X9670873Y-16415841D01*
X9656587Y-16387270D01*
X9628016Y-16372984D01*
X9585158Y-16372984D01*
X9556587Y-16358699D01*
X9542301Y-16330127D01*
X9542301Y-16315841D01*
X9556587Y-16287270D01*
X9585158Y-16272984D01*
X9628016Y-16272984D01*
X9656587Y-16287270D01*
X10028016Y-16358699D02*
X10256587Y-16358699D01*
X10142301Y-16472984D02*
X10142301Y-16244413D01*
X10599444Y-16172984D02*
X10785158Y-16172984D01*
X10685158Y-16287270D01*
X10728016Y-16287270D01*
X10756587Y-16301556D01*
X10770873Y-16315841D01*
X10785158Y-16344413D01*
X10785158Y-16415841D01*
X10770873Y-16444413D01*
X10756587Y-16458699D01*
X10728016Y-16472984D01*
X10642301Y-16472984D01*
X10613730Y-16458699D01*
X10599444Y-16444413D01*
X11128016Y-16458699D02*
X11156587Y-16472984D01*
X11213730Y-16472984D01*
X11242301Y-16458699D01*
X11256587Y-16430127D01*
X11256587Y-16415841D01*
X11242301Y-16387270D01*
X11213730Y-16372984D01*
X11170873Y-16372984D01*
X11142301Y-16358699D01*
X11128016Y-16330127D01*
X11128016Y-16315841D01*
X11142301Y-16287270D01*
X11170873Y-16272984D01*
X11213730Y-16272984D01*
X11242301Y-16287270D01*
X11428016Y-16472984D02*
X11399444Y-16458699D01*
X11385158Y-16430127D01*
X11385158Y-16172984D01*
X11585158Y-16472984D02*
X11556587Y-16458699D01*
X11542301Y-16444413D01*
X11528016Y-16415841D01*
X11528016Y-16330127D01*
X11542301Y-16301556D01*
X11556587Y-16287270D01*
X11585158Y-16272984D01*
X11628016Y-16272984D01*
X11656587Y-16287270D01*
X11670873Y-16301556D01*
X11685158Y-16330127D01*
X11685158Y-16415841D01*
X11670873Y-16444413D01*
X11656587Y-16458699D01*
X11628016Y-16472984D01*
X11585158Y-16472984D01*
X11770873Y-16272984D02*
X11885158Y-16272984D01*
X11813730Y-16172984D02*
X11813730Y-16430127D01*
X11828016Y-16458699D01*
X11856587Y-16472984D01*
X11885158Y-16472984D01*
X11970873Y-16458699D02*
X11999444Y-16472984D01*
X12056587Y-16472984D01*
X12085158Y-16458699D01*
X12099444Y-16430127D01*
X12099444Y-16415841D01*
X12085158Y-16387270D01*
X12056587Y-16372984D01*
X12013730Y-16372984D01*
X11985158Y-16358699D01*
X11970873Y-16330127D01*
X11970873Y-16315841D01*
X11985158Y-16287270D01*
X12013730Y-16272984D01*
X12056587Y-16272984D01*
X12085158Y-16287270D01*
X12199444Y-16587270D02*
X12213730Y-16572984D01*
X12242301Y-16530127D01*
X12256587Y-16501556D01*
X12270873Y-16458699D01*
X12285158Y-16387270D01*
X12285158Y-16330127D01*
X12270873Y-16258699D01*
X12256587Y-16215841D01*
X12242301Y-16187270D01*
X12213730Y-16144413D01*
X12199444Y-16130127D01*
X2818730Y-16643270D02*
X2998730Y-16823270D01*
X2998730Y-16643270D02*
X2818730Y-16823270D01*
X2972370Y-16796910D02*
X2972370Y-16669630D01*
X2845090Y-16669630D01*
X2845090Y-16796910D01*
X2972370Y-16796910D01*
X3442301Y-16868984D02*
X3270873Y-16868984D01*
X3356587Y-16868984D02*
X3356587Y-16568984D01*
X3328016Y-16611841D01*
X3299444Y-16640413D01*
X3270873Y-16654699D01*
X3570873Y-16840413D02*
X3585158Y-16854699D01*
X3570873Y-16868984D01*
X3556587Y-16854699D01*
X3570873Y-16840413D01*
X3570873Y-16868984D01*
X3756587Y-16697556D02*
X3728016Y-16683270D01*
X3713730Y-16668984D01*
X3699444Y-16640413D01*
X3699444Y-16626127D01*
X3713730Y-16597556D01*
X3728016Y-16583270D01*
X3756587Y-16568984D01*
X3813730Y-16568984D01*
X3842301Y-16583270D01*
X3856587Y-16597556D01*
X3870873Y-16626127D01*
X3870873Y-16640413D01*
X3856587Y-16668984D01*
X3842301Y-16683270D01*
X3813730Y-16697556D01*
X3756587Y-16697556D01*
X3728016Y-16711841D01*
X3713730Y-16726127D01*
X3699444Y-16754699D01*
X3699444Y-16811842D01*
X3713730Y-16840413D01*
X3728016Y-16854699D01*
X3756587Y-16868984D01*
X3813730Y-16868984D01*
X3842301Y-16854699D01*
X3856587Y-16840413D01*
X3870873Y-16811842D01*
X3870873Y-16754699D01*
X3856587Y-16726127D01*
X3842301Y-16711841D01*
X3813730Y-16697556D01*
X4056587Y-16568984D02*
X4085158Y-16568984D01*
X4113730Y-16583270D01*
X4128016Y-16597556D01*
X4142301Y-16626127D01*
X4156587Y-16683270D01*
X4156587Y-16754699D01*
X4142301Y-16811842D01*
X4128016Y-16840413D01*
X4113730Y-16854699D01*
X4085158Y-16868984D01*
X4056587Y-16868984D01*
X4028016Y-16854699D01*
X4013730Y-16840413D01*
X3999444Y-16811842D01*
X3985158Y-16754699D01*
X3985158Y-16683270D01*
X3999444Y-16626127D01*
X4013730Y-16597556D01*
X4028016Y-16583270D01*
X4056587Y-16568984D01*
X4285158Y-16868984D02*
X4285158Y-16668984D01*
X4285158Y-16697556D02*
X4299444Y-16683270D01*
X4328016Y-16668984D01*
X4370873Y-16668984D01*
X4399444Y-16683270D01*
X4413730Y-16711841D01*
X4413730Y-16868984D01*
X4413730Y-16711841D02*
X4428016Y-16683270D01*
X4456587Y-16668984D01*
X4499444Y-16668984D01*
X4528016Y-16683270D01*
X4542301Y-16711841D01*
X4542301Y-16868984D01*
X4685158Y-16868984D02*
X4685158Y-16668984D01*
X4685158Y-16697556D02*
X4699444Y-16683270D01*
X4728016Y-16668984D01*
X4770873Y-16668984D01*
X4799444Y-16683270D01*
X4813730Y-16711841D01*
X4813730Y-16868984D01*
X4813730Y-16711841D02*
X4828016Y-16683270D01*
X4856587Y-16668984D01*
X4899444Y-16668984D01*
X4928016Y-16683270D01*
X4942301Y-16711841D01*
X4942301Y-16868984D01*
X5528016Y-16554699D02*
X5270873Y-16940413D01*
X5913730Y-16568984D02*
X5942301Y-16568984D01*
X5970873Y-16583270D01*
X5985158Y-16597556D01*
X5999444Y-16626127D01*
X6013730Y-16683270D01*
X6013730Y-16754699D01*
X5999444Y-16811842D01*
X5985158Y-16840413D01*
X5970873Y-16854699D01*
X5942301Y-16868984D01*
X5913730Y-16868984D01*
X5885158Y-16854699D01*
X5870873Y-16840413D01*
X5856587Y-16811842D01*
X5842301Y-16754699D01*
X5842301Y-16683270D01*
X5856587Y-16626127D01*
X5870873Y-16597556D01*
X5885158Y-16583270D01*
X5913730Y-16568984D01*
X6142301Y-16840413D02*
X6156587Y-16854699D01*
X6142301Y-16868984D01*
X6128016Y-16854699D01*
X6142301Y-16840413D01*
X6142301Y-16868984D01*
X6342301Y-16568984D02*
X6370873Y-16568984D01*
X6399444Y-16583270D01*
X6413730Y-16597556D01*
X6428016Y-16626127D01*
X6442301Y-16683270D01*
X6442301Y-16754699D01*
X6428016Y-16811842D01*
X6413730Y-16840413D01*
X6399444Y-16854699D01*
X6370873Y-16868984D01*
X6342301Y-16868984D01*
X6313730Y-16854699D01*
X6299444Y-16840413D01*
X6285158Y-16811842D01*
X6270873Y-16754699D01*
X6270873Y-16683270D01*
X6285158Y-16626127D01*
X6299444Y-16597556D01*
X6313730Y-16583270D01*
X6342301Y-16568984D01*
X6542301Y-16568984D02*
X6742301Y-16568984D01*
X6613730Y-16868984D01*
X7013730Y-16868984D02*
X6842301Y-16868984D01*
X6928016Y-16868984D02*
X6928016Y-16568984D01*
X6899444Y-16611841D01*
X6870873Y-16640413D01*
X6842301Y-16654699D01*
X7128016Y-16568984D02*
X7128016Y-16626127D01*
X7242301Y-16568984D02*
X7242301Y-16626127D01*
X7685158Y-16983270D02*
X7670873Y-16968984D01*
X7642301Y-16926127D01*
X7628016Y-16897556D01*
X7613730Y-16854699D01*
X7599444Y-16783270D01*
X7599444Y-16726127D01*
X7613730Y-16654699D01*
X7628016Y-16611841D01*
X7642301Y-16583270D01*
X7670873Y-16540413D01*
X7685158Y-16526127D01*
X7770873Y-16568984D02*
X7956587Y-16568984D01*
X7856587Y-16683270D01*
X7899444Y-16683270D01*
X7928016Y-16697556D01*
X7942301Y-16711841D01*
X7956587Y-16740413D01*
X7956587Y-16811842D01*
X7942301Y-16840413D01*
X7928016Y-16854699D01*
X7899444Y-16868984D01*
X7813730Y-16868984D01*
X7785158Y-16854699D01*
X7770873Y-16840413D01*
X8313730Y-16868984D02*
X8313730Y-16568984D01*
X8442301Y-16868984D02*
X8442301Y-16711841D01*
X8428016Y-16683270D01*
X8399444Y-16668984D01*
X8356587Y-16668984D01*
X8328016Y-16683270D01*
X8313730Y-16697556D01*
X8628016Y-16868984D02*
X8599444Y-16854699D01*
X8585158Y-16840413D01*
X8570873Y-16811842D01*
X8570873Y-16726127D01*
X8585158Y-16697556D01*
X8599444Y-16683270D01*
X8628016Y-16668984D01*
X8670873Y-16668984D01*
X8699444Y-16683270D01*
X8713730Y-16697556D01*
X8728016Y-16726127D01*
X8728016Y-16811842D01*
X8713730Y-16840413D01*
X8699444Y-16854699D01*
X8670873Y-16868984D01*
X8628016Y-16868984D01*
X8899444Y-16868984D02*
X8870873Y-16854699D01*
X8856587Y-16826127D01*
X8856587Y-16568984D01*
X9128016Y-16854699D02*
X9099444Y-16868984D01*
X9042301Y-16868984D01*
X9013730Y-16854699D01*
X8999444Y-16826127D01*
X8999444Y-16711841D01*
X9013730Y-16683270D01*
X9042301Y-16668984D01*
X9099444Y-16668984D01*
X9128016Y-16683270D01*
X9142301Y-16711841D01*
X9142301Y-16740413D01*
X8999444Y-16768984D01*
X9256587Y-16854699D02*
X9285158Y-16868984D01*
X9342301Y-16868984D01*
X9370873Y-16854699D01*
X9385158Y-16826127D01*
X9385158Y-16811842D01*
X9370873Y-16783270D01*
X9342301Y-16768984D01*
X9299444Y-16768984D01*
X9270873Y-16754699D01*
X9256587Y-16726127D01*
X9256587Y-16711841D01*
X9270873Y-16683270D01*
X9299444Y-16668984D01*
X9342301Y-16668984D01*
X9370873Y-16683270D01*
X9485158Y-16983270D02*
X9499444Y-16968984D01*
X9528016Y-16926127D01*
X9542301Y-16897556D01*
X9556587Y-16854699D01*
X9570873Y-16783270D01*
X9570873Y-16726127D01*
X9556587Y-16654699D01*
X9542301Y-16611841D01*
X9528016Y-16583270D01*
X9499444Y-16540413D01*
X9485158Y-16526127D01*
M02*
