%FSLAX45Y45*%
G04 Gerber Fmt 4.5, Leading zero omitted, Abs format (unit mm)*
G04 Created by KiCad (PCBNEW (5.1.9)-1) date 2023-03-31 17:31:45*
%MOMM*%
%LPD*%
G01*
G04 APERTURE LIST*
%TA.AperFunction,Profile*%
%ADD10C,0.025400*%
%TD*%
%TA.AperFunction,Profile*%
%ADD11C,0.025000*%
%TD*%
%ADD12C,0.200000*%
%ADD13C,0.300000*%
G04 APERTURE END LIST*
D10*
X3000000Y-13000000D02*
X18000000Y-13000000D01*
D11*
X3000000Y-3000000D02*
X18000000Y-3000000D01*
D10*
X18000000Y-3000000D02*
X18000000Y-13000000D01*
X3000000Y-3000000D02*
X3000000Y-13000000D01*
D12*
X17001500Y-3785500D02*
X17081500Y-3865500D01*
X17081500Y-3785500D02*
X17001500Y-3865500D01*
X17001500Y-5246000D02*
X17081500Y-5326000D01*
X17081500Y-5246000D02*
X17001500Y-5326000D01*
X17501500Y-3285500D02*
X17581500Y-3365500D01*
X17581500Y-3285500D02*
X17501500Y-3365500D01*
X17501500Y-4285500D02*
X17581500Y-4365500D01*
X17581500Y-4285500D02*
X17501500Y-4365500D01*
X17501500Y-4746000D02*
X17581500Y-4826000D01*
X17581500Y-4746000D02*
X17501500Y-4826000D01*
X17501500Y-5746000D02*
X17581500Y-5826000D01*
X17581500Y-5746000D02*
X17501500Y-5826000D01*
X17751500Y-3285500D02*
X17831500Y-3365500D01*
X17831500Y-3285500D02*
X17751500Y-3365500D01*
X17751500Y-4285500D02*
X17831500Y-4365500D01*
X17831500Y-4285500D02*
X17751500Y-4365500D01*
X17751500Y-4746000D02*
X17831500Y-4826000D01*
X17831500Y-4746000D02*
X17751500Y-4826000D01*
X17751500Y-5746000D02*
X17831500Y-5826000D01*
X17831500Y-5746000D02*
X17751500Y-5826000D01*
D13*
X3285158Y-13466984D02*
X3285158Y-13166984D01*
X3356587Y-13166984D01*
X3399444Y-13181270D01*
X3428016Y-13209841D01*
X3442301Y-13238413D01*
X3456587Y-13295556D01*
X3456587Y-13338413D01*
X3442301Y-13395556D01*
X3428016Y-13424127D01*
X3399444Y-13452699D01*
X3356587Y-13466984D01*
X3285158Y-13466984D01*
X3585158Y-13466984D02*
X3585158Y-13266984D01*
X3585158Y-13324127D02*
X3599444Y-13295556D01*
X3613730Y-13281270D01*
X3642301Y-13266984D01*
X3670873Y-13266984D01*
X3770873Y-13466984D02*
X3770873Y-13266984D01*
X3770873Y-13166984D02*
X3756587Y-13181270D01*
X3770873Y-13195556D01*
X3785158Y-13181270D01*
X3770873Y-13166984D01*
X3770873Y-13195556D01*
X3956587Y-13466984D02*
X3928016Y-13452699D01*
X3913730Y-13424127D01*
X3913730Y-13166984D01*
X4113730Y-13466984D02*
X4085158Y-13452699D01*
X4070873Y-13424127D01*
X4070873Y-13166984D01*
X4456587Y-13466984D02*
X4456587Y-13166984D01*
X4556587Y-13381270D01*
X4656587Y-13166984D01*
X4656587Y-13466984D01*
X4928016Y-13466984D02*
X4928016Y-13309841D01*
X4913730Y-13281270D01*
X4885158Y-13266984D01*
X4828016Y-13266984D01*
X4799444Y-13281270D01*
X4928016Y-13452699D02*
X4899444Y-13466984D01*
X4828016Y-13466984D01*
X4799444Y-13452699D01*
X4785158Y-13424127D01*
X4785158Y-13395556D01*
X4799444Y-13366984D01*
X4828016Y-13352699D01*
X4899444Y-13352699D01*
X4928016Y-13338413D01*
X5070873Y-13266984D02*
X5070873Y-13566984D01*
X5070873Y-13281270D02*
X5099444Y-13266984D01*
X5156587Y-13266984D01*
X5185158Y-13281270D01*
X5199444Y-13295556D01*
X5213730Y-13324127D01*
X5213730Y-13409841D01*
X5199444Y-13438413D01*
X5185158Y-13452699D01*
X5156587Y-13466984D01*
X5099444Y-13466984D01*
X5070873Y-13452699D01*
X5342301Y-13438413D02*
X5356587Y-13452699D01*
X5342301Y-13466984D01*
X5328016Y-13452699D01*
X5342301Y-13438413D01*
X5342301Y-13466984D01*
X5342301Y-13281270D02*
X5356587Y-13295556D01*
X5342301Y-13309841D01*
X5328016Y-13295556D01*
X5342301Y-13281270D01*
X5342301Y-13309841D01*
X2918730Y-13921270D02*
X2998730Y-14001270D01*
X2998730Y-13921270D02*
X2918730Y-14001270D01*
X3342301Y-13796984D02*
X3370873Y-13796984D01*
X3399444Y-13811270D01*
X3413730Y-13825556D01*
X3428016Y-13854127D01*
X3442301Y-13911270D01*
X3442301Y-13982699D01*
X3428016Y-14039841D01*
X3413730Y-14068413D01*
X3399444Y-14082699D01*
X3370873Y-14096984D01*
X3342301Y-14096984D01*
X3313730Y-14082699D01*
X3299444Y-14068413D01*
X3285158Y-14039841D01*
X3270873Y-13982699D01*
X3270873Y-13911270D01*
X3285158Y-13854127D01*
X3299444Y-13825556D01*
X3313730Y-13811270D01*
X3342301Y-13796984D01*
X3570873Y-14068413D02*
X3585158Y-14082699D01*
X3570873Y-14096984D01*
X3556587Y-14082699D01*
X3570873Y-14068413D01*
X3570873Y-14096984D01*
X3756587Y-13925556D02*
X3728016Y-13911270D01*
X3713730Y-13896984D01*
X3699444Y-13868413D01*
X3699444Y-13854127D01*
X3713730Y-13825556D01*
X3728016Y-13811270D01*
X3756587Y-13796984D01*
X3813730Y-13796984D01*
X3842301Y-13811270D01*
X3856587Y-13825556D01*
X3870873Y-13854127D01*
X3870873Y-13868413D01*
X3856587Y-13896984D01*
X3842301Y-13911270D01*
X3813730Y-13925556D01*
X3756587Y-13925556D01*
X3728016Y-13939841D01*
X3713730Y-13954127D01*
X3699444Y-13982699D01*
X3699444Y-14039841D01*
X3713730Y-14068413D01*
X3728016Y-14082699D01*
X3756587Y-14096984D01*
X3813730Y-14096984D01*
X3842301Y-14082699D01*
X3856587Y-14068413D01*
X3870873Y-14039841D01*
X3870873Y-13982699D01*
X3856587Y-13954127D01*
X3842301Y-13939841D01*
X3813730Y-13925556D01*
X4056587Y-13796984D02*
X4085158Y-13796984D01*
X4113730Y-13811270D01*
X4128016Y-13825556D01*
X4142301Y-13854127D01*
X4156587Y-13911270D01*
X4156587Y-13982699D01*
X4142301Y-14039841D01*
X4128016Y-14068413D01*
X4113730Y-14082699D01*
X4085158Y-14096984D01*
X4056587Y-14096984D01*
X4028016Y-14082699D01*
X4013730Y-14068413D01*
X3999444Y-14039841D01*
X3985158Y-13982699D01*
X3985158Y-13911270D01*
X3999444Y-13854127D01*
X4013730Y-13825556D01*
X4028016Y-13811270D01*
X4056587Y-13796984D01*
X4285158Y-14096984D02*
X4285158Y-13896984D01*
X4285158Y-13925556D02*
X4299444Y-13911270D01*
X4328016Y-13896984D01*
X4370873Y-13896984D01*
X4399444Y-13911270D01*
X4413730Y-13939841D01*
X4413730Y-14096984D01*
X4413730Y-13939841D02*
X4428016Y-13911270D01*
X4456587Y-13896984D01*
X4499444Y-13896984D01*
X4528016Y-13911270D01*
X4542301Y-13939841D01*
X4542301Y-14096984D01*
X4685158Y-14096984D02*
X4685158Y-13896984D01*
X4685158Y-13925556D02*
X4699444Y-13911270D01*
X4728016Y-13896984D01*
X4770873Y-13896984D01*
X4799444Y-13911270D01*
X4813730Y-13939841D01*
X4813730Y-14096984D01*
X4813730Y-13939841D02*
X4828016Y-13911270D01*
X4856587Y-13896984D01*
X4899444Y-13896984D01*
X4928016Y-13911270D01*
X4942301Y-13939841D01*
X4942301Y-14096984D01*
X5528016Y-13782699D02*
X5270873Y-14168413D01*
X5913730Y-13796984D02*
X5942301Y-13796984D01*
X5970873Y-13811270D01*
X5985158Y-13825556D01*
X5999444Y-13854127D01*
X6013730Y-13911270D01*
X6013730Y-13982699D01*
X5999444Y-14039841D01*
X5985158Y-14068413D01*
X5970873Y-14082699D01*
X5942301Y-14096984D01*
X5913730Y-14096984D01*
X5885158Y-14082699D01*
X5870873Y-14068413D01*
X5856587Y-14039841D01*
X5842301Y-13982699D01*
X5842301Y-13911270D01*
X5856587Y-13854127D01*
X5870873Y-13825556D01*
X5885158Y-13811270D01*
X5913730Y-13796984D01*
X6142301Y-14068413D02*
X6156587Y-14082699D01*
X6142301Y-14096984D01*
X6128016Y-14082699D01*
X6142301Y-14068413D01*
X6142301Y-14096984D01*
X6342301Y-13796984D02*
X6370873Y-13796984D01*
X6399444Y-13811270D01*
X6413730Y-13825556D01*
X6428016Y-13854127D01*
X6442301Y-13911270D01*
X6442301Y-13982699D01*
X6428016Y-14039841D01*
X6413730Y-14068413D01*
X6399444Y-14082699D01*
X6370873Y-14096984D01*
X6342301Y-14096984D01*
X6313730Y-14082699D01*
X6299444Y-14068413D01*
X6285158Y-14039841D01*
X6270873Y-13982699D01*
X6270873Y-13911270D01*
X6285158Y-13854127D01*
X6299444Y-13825556D01*
X6313730Y-13811270D01*
X6342301Y-13796984D01*
X6542301Y-13796984D02*
X6728016Y-13796984D01*
X6628016Y-13911270D01*
X6670873Y-13911270D01*
X6699444Y-13925556D01*
X6713730Y-13939841D01*
X6728016Y-13968413D01*
X6728016Y-14039841D01*
X6713730Y-14068413D01*
X6699444Y-14082699D01*
X6670873Y-14096984D01*
X6585158Y-14096984D01*
X6556587Y-14082699D01*
X6542301Y-14068413D01*
X7013730Y-14096984D02*
X6842301Y-14096984D01*
X6928016Y-14096984D02*
X6928016Y-13796984D01*
X6899444Y-13839841D01*
X6870873Y-13868413D01*
X6842301Y-13882699D01*
X7128016Y-13796984D02*
X7128016Y-13854127D01*
X7242301Y-13796984D02*
X7242301Y-13854127D01*
X7685158Y-14211270D02*
X7670873Y-14196984D01*
X7642301Y-14154127D01*
X7628016Y-14125556D01*
X7613730Y-14082699D01*
X7599444Y-14011270D01*
X7599444Y-13954127D01*
X7613730Y-13882699D01*
X7628016Y-13839841D01*
X7642301Y-13811270D01*
X7670873Y-13768413D01*
X7685158Y-13754127D01*
X7956587Y-14096984D02*
X7785158Y-14096984D01*
X7870873Y-14096984D02*
X7870873Y-13796984D01*
X7842301Y-13839841D01*
X7813730Y-13868413D01*
X7785158Y-13882699D01*
X8142301Y-13796984D02*
X8170873Y-13796984D01*
X8199444Y-13811270D01*
X8213730Y-13825556D01*
X8228016Y-13854127D01*
X8242301Y-13911270D01*
X8242301Y-13982699D01*
X8228016Y-14039841D01*
X8213730Y-14068413D01*
X8199444Y-14082699D01*
X8170873Y-14096984D01*
X8142301Y-14096984D01*
X8113730Y-14082699D01*
X8099444Y-14068413D01*
X8085158Y-14039841D01*
X8070873Y-13982699D01*
X8070873Y-13911270D01*
X8085158Y-13854127D01*
X8099444Y-13825556D01*
X8113730Y-13811270D01*
X8142301Y-13796984D01*
X8599444Y-14096984D02*
X8599444Y-13796984D01*
X8728016Y-14096984D02*
X8728016Y-13939841D01*
X8713730Y-13911270D01*
X8685158Y-13896984D01*
X8642301Y-13896984D01*
X8613730Y-13911270D01*
X8599444Y-13925556D01*
X8913730Y-14096984D02*
X8885158Y-14082699D01*
X8870873Y-14068413D01*
X8856587Y-14039841D01*
X8856587Y-13954127D01*
X8870873Y-13925556D01*
X8885158Y-13911270D01*
X8913730Y-13896984D01*
X8956587Y-13896984D01*
X8985158Y-13911270D01*
X8999444Y-13925556D01*
X9013730Y-13954127D01*
X9013730Y-14039841D01*
X8999444Y-14068413D01*
X8985158Y-14082699D01*
X8956587Y-14096984D01*
X8913730Y-14096984D01*
X9185158Y-14096984D02*
X9156587Y-14082699D01*
X9142301Y-14054127D01*
X9142301Y-13796984D01*
X9413730Y-14082699D02*
X9385158Y-14096984D01*
X9328016Y-14096984D01*
X9299444Y-14082699D01*
X9285158Y-14054127D01*
X9285158Y-13939841D01*
X9299444Y-13911270D01*
X9328016Y-13896984D01*
X9385158Y-13896984D01*
X9413730Y-13911270D01*
X9428016Y-13939841D01*
X9428016Y-13968413D01*
X9285158Y-13996984D01*
X9542301Y-14082699D02*
X9570873Y-14096984D01*
X9628016Y-14096984D01*
X9656587Y-14082699D01*
X9670873Y-14054127D01*
X9670873Y-14039841D01*
X9656587Y-14011270D01*
X9628016Y-13996984D01*
X9585158Y-13996984D01*
X9556587Y-13982699D01*
X9542301Y-13954127D01*
X9542301Y-13939841D01*
X9556587Y-13911270D01*
X9585158Y-13896984D01*
X9628016Y-13896984D01*
X9656587Y-13911270D01*
X9770873Y-14211270D02*
X9785158Y-14196984D01*
X9813730Y-14154127D01*
X9828016Y-14125556D01*
X9842301Y-14082699D01*
X9856587Y-14011270D01*
X9856587Y-13954127D01*
X9842301Y-13882699D01*
X9828016Y-13839841D01*
X9813730Y-13811270D01*
X9785158Y-13768413D01*
X9770873Y-13754127D01*
X10313730Y-14211270D02*
X10299444Y-14196984D01*
X10270873Y-14154127D01*
X10256587Y-14125556D01*
X10242301Y-14082699D01*
X10228016Y-14011270D01*
X10228016Y-13954127D01*
X10242301Y-13882699D01*
X10256587Y-13839841D01*
X10270873Y-13811270D01*
X10299444Y-13768413D01*
X10313730Y-13754127D01*
X10428016Y-13896984D02*
X10428016Y-14096984D01*
X10428016Y-13925556D02*
X10442301Y-13911270D01*
X10470873Y-13896984D01*
X10513730Y-13896984D01*
X10542301Y-13911270D01*
X10556587Y-13939841D01*
X10556587Y-14096984D01*
X10742301Y-14096984D02*
X10713730Y-14082699D01*
X10699444Y-14068413D01*
X10685158Y-14039841D01*
X10685158Y-13954127D01*
X10699444Y-13925556D01*
X10713730Y-13911270D01*
X10742301Y-13896984D01*
X10785158Y-13896984D01*
X10813730Y-13911270D01*
X10828016Y-13925556D01*
X10842301Y-13954127D01*
X10842301Y-14039841D01*
X10828016Y-14068413D01*
X10813730Y-14082699D01*
X10785158Y-14096984D01*
X10742301Y-14096984D01*
X10928016Y-13896984D02*
X11042301Y-13896984D01*
X10970873Y-13796984D02*
X10970873Y-14054127D01*
X10985158Y-14082699D01*
X11013730Y-14096984D01*
X11042301Y-14096984D01*
X11370873Y-13896984D02*
X11370873Y-14196984D01*
X11370873Y-13911270D02*
X11399444Y-13896984D01*
X11456587Y-13896984D01*
X11485158Y-13911270D01*
X11499444Y-13925556D01*
X11513730Y-13954127D01*
X11513730Y-14039841D01*
X11499444Y-14068413D01*
X11485158Y-14082699D01*
X11456587Y-14096984D01*
X11399444Y-14096984D01*
X11370873Y-14082699D01*
X11685158Y-14096984D02*
X11656587Y-14082699D01*
X11642301Y-14054127D01*
X11642301Y-13796984D01*
X11928016Y-14096984D02*
X11928016Y-13939841D01*
X11913730Y-13911270D01*
X11885158Y-13896984D01*
X11828016Y-13896984D01*
X11799444Y-13911270D01*
X11928016Y-14082699D02*
X11899444Y-14096984D01*
X11828016Y-14096984D01*
X11799444Y-14082699D01*
X11785158Y-14054127D01*
X11785158Y-14025556D01*
X11799444Y-13996984D01*
X11828016Y-13982699D01*
X11899444Y-13982699D01*
X11928016Y-13968413D01*
X12028016Y-13896984D02*
X12142301Y-13896984D01*
X12070873Y-13796984D02*
X12070873Y-14054127D01*
X12085158Y-14082699D01*
X12113730Y-14096984D01*
X12142301Y-14096984D01*
X12356587Y-14082699D02*
X12328016Y-14096984D01*
X12270873Y-14096984D01*
X12242301Y-14082699D01*
X12228016Y-14054127D01*
X12228016Y-13939841D01*
X12242301Y-13911270D01*
X12270873Y-13896984D01*
X12328016Y-13896984D01*
X12356587Y-13911270D01*
X12370873Y-13939841D01*
X12370873Y-13968413D01*
X12228016Y-13996984D01*
X12628016Y-14096984D02*
X12628016Y-13796984D01*
X12628016Y-14082699D02*
X12599444Y-14096984D01*
X12542301Y-14096984D01*
X12513730Y-14082699D01*
X12499444Y-14068413D01*
X12485158Y-14039841D01*
X12485158Y-13954127D01*
X12499444Y-13925556D01*
X12513730Y-13911270D01*
X12542301Y-13896984D01*
X12599444Y-13896984D01*
X12628016Y-13911270D01*
X12742301Y-14211270D02*
X12756587Y-14196984D01*
X12785158Y-14154127D01*
X12799444Y-14125556D01*
X12813730Y-14082699D01*
X12828016Y-14011270D01*
X12828016Y-13954127D01*
X12813730Y-13882699D01*
X12799444Y-13839841D01*
X12785158Y-13811270D01*
X12756587Y-13768413D01*
X12742301Y-13754127D01*
M02*
