G04 #@! TF.GenerationSoftware,KiCad,Pcbnew,(5.1.9)-1*
G04 #@! TF.CreationDate,2023-03-31T17:31:40-07:00*
G04 #@! TF.ProjectId,ECE5 v2,45434535-2076-4322-9e6b-696361645f70,rev?*
G04 #@! TF.SameCoordinates,Original*
G04 #@! TF.FileFunction,Soldermask,Top*
G04 #@! TF.FilePolarity,Negative*
%FSLAX46Y46*%
G04 Gerber Fmt 4.6, Leading zero omitted, Abs format (unit mm)*
G04 Created by KiCad (PCBNEW (5.1.9)-1) date 2023-03-31 17:31:40*
%MOMM*%
%LPD*%
G01*
G04 APERTURE LIST*
%ADD10R,3.500000X3.500000*%
%ADD11O,1.600000X1.600000*%
%ADD12R,1.600000X1.600000*%
%ADD13C,1.600000*%
%ADD14C,1.524000*%
%ADD15R,1.524000X1.524000*%
%ADD16C,0.800000*%
%ADD17O,1.778000X1.270000*%
%ADD18O,1.270000X1.778000*%
%ADD19O,1.750000X1.200000*%
%ADD20R,1.500000X1.050000*%
%ADD21O,1.500000X1.050000*%
%ADD22C,1.762000*%
%ADD23C,3.070000*%
%ADD24O,1.662000X2.662000*%
G04 APERTURE END LIST*
D10*
X167795000Y-120805000D03*
G36*
G01*
X175295000Y-119805000D02*
X175295000Y-121805000D01*
G75*
G02*
X174545000Y-122555000I-750000J0D01*
G01*
X173045000Y-122555000D01*
G75*
G02*
X172295000Y-121805000I0J750000D01*
G01*
X172295000Y-119805000D01*
G75*
G02*
X173045000Y-119055000I750000J0D01*
G01*
X174545000Y-119055000D01*
G75*
G02*
X175295000Y-119805000I0J-750000D01*
G01*
G37*
G36*
G01*
X172545000Y-115230000D02*
X172545000Y-116980000D01*
G75*
G02*
X171670000Y-117855000I-875000J0D01*
G01*
X169920000Y-117855000D01*
G75*
G02*
X169045000Y-116980000I0J875000D01*
G01*
X169045000Y-115230000D01*
G75*
G02*
X169920000Y-114355000I875000J0D01*
G01*
X171670000Y-114355000D01*
G75*
G02*
X172545000Y-115230000I0J-875000D01*
G01*
G37*
D11*
X121440000Y-67465000D03*
X103660000Y-59845000D03*
X118900000Y-67465000D03*
X106200000Y-59845000D03*
X116360000Y-67465000D03*
X108740000Y-59845000D03*
X113820000Y-67465000D03*
X111280000Y-59845000D03*
X111280000Y-67465000D03*
X113820000Y-59845000D03*
X108740000Y-67465000D03*
X116360000Y-59845000D03*
X106200000Y-67465000D03*
X118900000Y-59845000D03*
X103660000Y-67465000D03*
D12*
X121440000Y-59845000D03*
D13*
X39525000Y-119535000D03*
D11*
X49685000Y-119535000D03*
D14*
X59210000Y-89055000D03*
X59210000Y-83975000D03*
D15*
X69370000Y-89055000D03*
D14*
X69370000Y-83975000D03*
D12*
X150015000Y-100485000D03*
D11*
X116995000Y-115725000D03*
X147475000Y-100485000D03*
X119535000Y-115725000D03*
X144935000Y-100485000D03*
X122075000Y-115725000D03*
X142395000Y-100485000D03*
X124615000Y-115725000D03*
X139855000Y-100485000D03*
X127155000Y-115725000D03*
X137315000Y-100485000D03*
X129695000Y-115725000D03*
X134775000Y-100485000D03*
X132235000Y-115725000D03*
X132235000Y-100485000D03*
X134775000Y-115725000D03*
X129695000Y-100485000D03*
X137315000Y-115725000D03*
X127155000Y-100485000D03*
X139855000Y-115725000D03*
X124615000Y-100485000D03*
X142395000Y-115725000D03*
X122075000Y-100485000D03*
X144935000Y-115725000D03*
X119535000Y-100485000D03*
X147475000Y-115725000D03*
X116995000Y-100485000D03*
X150015000Y-115725000D03*
X114455000Y-100485000D03*
X114455000Y-115725000D03*
D13*
X36830000Y-105085000D03*
X34330000Y-105085000D03*
X40005000Y-115880000D03*
X42505000Y-115880000D03*
X51590000Y-110050000D03*
X51590000Y-112550000D03*
X36830000Y-108105000D03*
X34330000Y-108105000D03*
D16*
X177915000Y-33255000D03*
X175415000Y-33255000D03*
X177915000Y-43255000D03*
X175415000Y-43255000D03*
X170415000Y-38255000D03*
D17*
X170415000Y-33255000D03*
X170415000Y-35755000D03*
X170415000Y-40755000D03*
X170415000Y-43255000D03*
D18*
X175415000Y-38255000D03*
X175415000Y-52860000D03*
D17*
X170415000Y-57860000D03*
X170415000Y-55360000D03*
X170415000Y-50360000D03*
X170415000Y-47860000D03*
D16*
X170415000Y-52860000D03*
X175415000Y-57860000D03*
X177915000Y-57860000D03*
X175415000Y-47860000D03*
X177915000Y-47860000D03*
D14*
X74269914Y-40900000D03*
X71729914Y-40900000D03*
X76809914Y-40900000D03*
X79349914Y-40900000D03*
X81889914Y-40900000D03*
X69189914Y-40900000D03*
X66649914Y-40900000D03*
X64109914Y-40900000D03*
X74269914Y-38360000D03*
X76809914Y-38360000D03*
X71729914Y-38360000D03*
X79349914Y-38360000D03*
X81889914Y-38360000D03*
X69189914Y-38360000D03*
X66649914Y-38360000D03*
D15*
X64109914Y-38360000D03*
D14*
X106270000Y-40900000D03*
X103730000Y-40900000D03*
X108810000Y-40900000D03*
X111350000Y-40900000D03*
X113890000Y-40900000D03*
X101190000Y-40900000D03*
X98650000Y-40900000D03*
X96110000Y-40900000D03*
X106270000Y-38360000D03*
X108810000Y-38360000D03*
X103730000Y-38360000D03*
X111350000Y-38360000D03*
X113890000Y-38360000D03*
X101190000Y-38360000D03*
X98650000Y-38360000D03*
D15*
X96110000Y-38360000D03*
X128110086Y-38360000D03*
D14*
X130650086Y-38360000D03*
X133190086Y-38360000D03*
X145890086Y-38360000D03*
X143350086Y-38360000D03*
X135730086Y-38360000D03*
X140810086Y-38360000D03*
X138270086Y-38360000D03*
X128110086Y-40900000D03*
X130650086Y-40900000D03*
X133190086Y-40900000D03*
X145890086Y-40900000D03*
X143350086Y-40900000D03*
X140810086Y-40900000D03*
X135730086Y-40900000D03*
X138270086Y-40900000D03*
G36*
G01*
X61105001Y-109975000D02*
X59854999Y-109975000D01*
G75*
G02*
X59605000Y-109725001I0J249999D01*
G01*
X59605000Y-109024999D01*
G75*
G02*
X59854999Y-108775000I249999J0D01*
G01*
X61105001Y-108775000D01*
G75*
G02*
X61355000Y-109024999I0J-249999D01*
G01*
X61355000Y-109725001D01*
G75*
G02*
X61105001Y-109975000I-249999J0D01*
G01*
G37*
D19*
X60480000Y-107375000D03*
D20*
X148900000Y-73660000D03*
D21*
X148900000Y-76200000D03*
X148900000Y-74930000D03*
D20*
X171125000Y-73660000D03*
D21*
X171125000Y-76200000D03*
X171125000Y-74930000D03*
X176205000Y-74930000D03*
X176205000Y-76200000D03*
D20*
X176205000Y-73660000D03*
D21*
X153980000Y-74930000D03*
X153980000Y-76200000D03*
D20*
X153980000Y-73660000D03*
X159695000Y-73660000D03*
D21*
X159695000Y-76200000D03*
X159695000Y-74930000D03*
X165410000Y-74930000D03*
X165410000Y-76200000D03*
D20*
X165410000Y-73660000D03*
D13*
X57940000Y-56035000D03*
D11*
X57940000Y-45875000D03*
X54765000Y-56035000D03*
D13*
X54765000Y-45875000D03*
D11*
X61115000Y-45875000D03*
D13*
X61115000Y-56035000D03*
D11*
X51590000Y-56035000D03*
D13*
X51590000Y-45875000D03*
X64290000Y-56035000D03*
D11*
X64290000Y-45875000D03*
D13*
X48415000Y-45875000D03*
D11*
X48415000Y-56035000D03*
X67465000Y-45875000D03*
D13*
X67465000Y-56035000D03*
D11*
X45240000Y-56035000D03*
D13*
X45240000Y-45875000D03*
X70640000Y-56035000D03*
D11*
X70640000Y-45875000D03*
D13*
X42065000Y-45875000D03*
D11*
X42065000Y-56035000D03*
X73815000Y-45875000D03*
D13*
X73815000Y-56035000D03*
D11*
X38890000Y-56035000D03*
D13*
X38890000Y-45875000D03*
X76355000Y-96675000D03*
D11*
X86515000Y-96675000D03*
X59210000Y-96675000D03*
D13*
X69370000Y-96675000D03*
X76990000Y-56035000D03*
D11*
X76990000Y-45875000D03*
D13*
X35715000Y-45875000D03*
D11*
X35715000Y-56035000D03*
X80165000Y-45875000D03*
D13*
X80165000Y-56035000D03*
D11*
X32540000Y-56035000D03*
D13*
X32540000Y-45875000D03*
X63655000Y-119535000D03*
D11*
X53495000Y-119535000D03*
X105565000Y-45875000D03*
D13*
X105565000Y-56035000D03*
X102390000Y-45875000D03*
D11*
X102390000Y-56035000D03*
D13*
X108740000Y-56035000D03*
D11*
X108740000Y-45875000D03*
D13*
X99215000Y-45875000D03*
D11*
X99215000Y-56035000D03*
D13*
X111915000Y-56035000D03*
D11*
X111915000Y-45875000D03*
D13*
X96040000Y-45875000D03*
D11*
X96040000Y-56035000D03*
X115090000Y-45875000D03*
D13*
X115090000Y-56035000D03*
D11*
X92865000Y-56035000D03*
D13*
X92865000Y-45875000D03*
D11*
X118265000Y-45875000D03*
D13*
X118265000Y-56035000D03*
D11*
X89690000Y-56035000D03*
D13*
X89690000Y-45875000D03*
X121440000Y-56035000D03*
D11*
X121440000Y-45875000D03*
X86515000Y-56035000D03*
D13*
X86515000Y-45875000D03*
D11*
X124615000Y-45875000D03*
D13*
X124615000Y-56035000D03*
X83340000Y-45875000D03*
D11*
X83340000Y-56035000D03*
X130965000Y-45875000D03*
D13*
X130965000Y-56035000D03*
D11*
X127790000Y-56035000D03*
D13*
X127790000Y-45875000D03*
X134140000Y-56035000D03*
D11*
X134140000Y-45875000D03*
D13*
X137315000Y-45875000D03*
D11*
X137315000Y-56035000D03*
X140490000Y-45875000D03*
D13*
X140490000Y-56035000D03*
D11*
X143665000Y-56035000D03*
D13*
X143665000Y-45875000D03*
X149535000Y-78740000D03*
D11*
X149535000Y-88900000D03*
X171760000Y-88900000D03*
D13*
X171760000Y-78740000D03*
X176840000Y-78740000D03*
D11*
X176840000Y-88900000D03*
D13*
X154615000Y-78740000D03*
D11*
X154615000Y-88900000D03*
X160330000Y-88900000D03*
D13*
X160330000Y-78740000D03*
X166045000Y-78740000D03*
D11*
X166045000Y-88900000D03*
D22*
X42494900Y-79999900D03*
X42494900Y-77499900D03*
X42494900Y-82499900D03*
X44994900Y-77499900D03*
X44994900Y-79999900D03*
X44994900Y-82499900D03*
X37494900Y-82499900D03*
X34994900Y-77499900D03*
X34994900Y-79999900D03*
X37494900Y-79999900D03*
X34994900Y-82499900D03*
X37494900Y-77499900D03*
D23*
X165890000Y-108740000D03*
X162080000Y-108740000D03*
X158270000Y-108740000D03*
D24*
X178590000Y-111280000D03*
X178590000Y-106200000D03*
D14*
X86515000Y-83975000D03*
D15*
X86515000Y-89055000D03*
D14*
X76355000Y-83975000D03*
X76355000Y-89055000D03*
D12*
X75720000Y-59845000D03*
D11*
X57940000Y-67465000D03*
X73180000Y-59845000D03*
X60480000Y-67465000D03*
X70640000Y-59845000D03*
X63020000Y-67465000D03*
X68100000Y-59845000D03*
X65560000Y-67465000D03*
X65560000Y-59845000D03*
X68100000Y-67465000D03*
X63020000Y-59845000D03*
X70640000Y-67465000D03*
X60480000Y-59845000D03*
X73180000Y-67465000D03*
X57940000Y-59845000D03*
X75720000Y-67465000D03*
X52860000Y-67465000D03*
X35080000Y-59845000D03*
X50320000Y-67465000D03*
X37620000Y-59845000D03*
X47780000Y-67465000D03*
X40160000Y-59845000D03*
X45240000Y-67465000D03*
X42700000Y-59845000D03*
X42700000Y-67465000D03*
X45240000Y-59845000D03*
X40160000Y-67465000D03*
X47780000Y-59845000D03*
X37620000Y-67465000D03*
X50320000Y-59845000D03*
X35080000Y-67465000D03*
D12*
X52860000Y-59845000D03*
X47625000Y-112705000D03*
D11*
X40005000Y-105085000D03*
X47625000Y-110165000D03*
X40005000Y-107625000D03*
X47625000Y-107625000D03*
X40005000Y-110165000D03*
X47625000Y-105085000D03*
X40005000Y-112705000D03*
D12*
X98580000Y-59845000D03*
D11*
X80800000Y-67465000D03*
X96040000Y-59845000D03*
X83340000Y-67465000D03*
X93500000Y-59845000D03*
X85880000Y-67465000D03*
X90960000Y-59845000D03*
X88420000Y-67465000D03*
X88420000Y-59845000D03*
X90960000Y-67465000D03*
X85880000Y-59845000D03*
X93500000Y-67465000D03*
X83340000Y-59845000D03*
X96040000Y-67465000D03*
X80800000Y-59845000D03*
X98580000Y-67465000D03*
D12*
X144935000Y-59845000D03*
D11*
X127155000Y-67465000D03*
X142395000Y-59845000D03*
X129695000Y-67465000D03*
X139855000Y-59845000D03*
X132235000Y-67465000D03*
X137315000Y-59845000D03*
X134775000Y-67465000D03*
X134775000Y-59845000D03*
X137315000Y-67465000D03*
X132235000Y-59845000D03*
X139855000Y-67465000D03*
X129695000Y-59845000D03*
X142395000Y-67465000D03*
X127155000Y-59845000D03*
X144935000Y-67465000D03*
M02*
